<?xml version="1.0" encoding="UTF-8" standalone="no"?>
<svg
   xmlns:dc="http://purl.org/dc/elements/1.1/"
   xmlns:cc="http://creativecommons.org/ns#"
   xmlns:rdf="http://www.w3.org/1999/02/22-rdf-syntax-ns#"
   xmlns:svg="http://www.w3.org/2000/svg"
   xmlns="http://www.w3.org/2000/svg"
   xmlns:sodipodi="http://sodipodi.sourceforge.net/DTD/sodipodi-0.dtd"
   xmlns:inkscape="http://www.inkscape.org/namespaces/inkscape"
   version="1.1"
   id="Capa_1"
   x="0px"
   y="0px"
   viewBox="0 0 295.428 295.428"
   xml:space="preserve"
   sodipodi:docname="danger.svg"
   width="295.42801"
   height="295.42801"
   inkscape:version="1.0.2 (1.0.2+r75+1)"><metadata
   id="metadata134"><rdf:RDF><cc:Work
       rdf:about=""><dc:format>image/svg+xml</dc:format><dc:type
         rdf:resource="http://purl.org/dc/dcmitype/StillImage" /><dc:title></dc:title></cc:Work></rdf:RDF></metadata><defs
   id="defs132" /><sodipodi:namedview
   pagecolor="#ffffff"
   bordercolor="#666666"
   borderopacity="1"
   objecttolerance="10"
   gridtolerance="10"
   guidetolerance="10"
   inkscape:pageopacity="0"
   inkscape:pageshadow="2"
   inkscape:window-width="1848"
   inkscape:window-height="1016"
   id="namedview130"
   showgrid="false"
   inkscape:zoom="2.7925586"
   inkscape:cx="147.714"
   inkscape:cy="147.714"
   inkscape:window-x="72"
   inkscape:window-y="27"
   inkscape:window-maximized="1"
   inkscape:current-layer="Capa_1" />
<g
   id="g97">
	<path
   d="M 147.714,0 C 66.264,0 0,66.264 0,147.714 c 0,81.45 66.264,147.714 147.714,147.714 81.45,0 147.714,-66.264 147.714,-147.714 C 295.428,66.264 229.164,0 147.714,0 Z m 0,265.428 C 82.807,265.428 30,212.621 30,147.714 30,82.807 82.807,30 147.714,30 c 64.907,0 117.714,52.807 117.714,117.714 0,64.907 -52.807,117.714 -117.714,117.714 z"
   id="path91" />
	<path
   d="m 147.714,61.68 c -8.284,0 -15,6.716 -15,15 v 79 c 0,8.284 6.716,15 15,15 8.284,0 15,-6.716 15,-15 v -79 c 0,-8.284 -6.716,-15 -15,-15 z"
   id="path93" />
	<circle
   cx="147.714"
   cy="217.67999"
   r="15"
   id="circle95" />
</g>
<g
   id="g99">
</g>
<g
   id="g101">
</g>
<g
   id="g103">
</g>
<g
   id="g105">
</g>
<g
   id="g107">
</g>
<g
   id="g109">
</g>
<g
   id="g111">
</g>
<g
   id="g113">
</g>
<g
   id="g115">
</g>
<g
   id="g117">
</g>
<g
   id="g119">
</g>
<g
   id="g121">
</g>
<g
   id="g123">
</g>
<g
   id="g125">
</g>
<g
   id="g127">
</g>
</svg>
