<?xml version="1.0" encoding="UTF-8" standalone="no"?>
<svg
   xmlns:dc="http://purl.org/dc/elements/1.1/"
   xmlns:cc="http://creativecommons.org/ns#"
   xmlns:rdf="http://www.w3.org/1999/02/22-rdf-syntax-ns#"
   xmlns:svg="http://www.w3.org/2000/svg"
   xmlns="http://www.w3.org/2000/svg"
   xmlns:sodipodi="http://sodipodi.sourceforge.net/DTD/sodipodi-0.dtd"
   xmlns:inkscape="http://www.inkscape.org/namespaces/inkscape"
   version="1.1"
   id="Capa_1"
   x="0px"
   y="0px"
   viewBox="0 0 295.428 295.428"
   xml:space="preserve"
   sodipodi:docname="danger-blanc.svg"
   width="295.42801"
   height="295.42801"
   inkscape:version="1.0.2 (1.0.2+r75+1)"><metadata
   id="metadata134"><rdf:RDF><cc:Work
       rdf:about=""><dc:format>image/svg+xml</dc:format><dc:type
         rdf:resource="http://purl.org/dc/dcmitype/StillImage" /><dc:title></dc:title></cc:Work></rdf:RDF></metadata><defs
   id="defs132" /><sodipodi:namedview
   pagecolor="#ffffff"
   bordercolor="#666666"
   borderopacity="1"
   objecttolerance="10"
   gridtolerance="10"
   guidetolerance="10"
   inkscape:pageopacity="0"
   inkscape:pageshadow="2"
   inkscape:window-width="1848"
   inkscape:window-height="1016"
   id="namedview130"
   showgrid="false"
   inkscape:zoom="2.7925586"
   inkscape:cx="147.714"
   inkscape:cy="147.714"
   inkscape:window-x="72"
   inkscape:window-y="27"
   inkscape:window-maximized="1"
   inkscape:current-layer="Capa_1"
   inkscape:document-rotation="0" />
<g
   id="g97">
	<path
   d="M 147.714,0 C 66.264,0 0,66.264 0,147.714 c 0,81.45 66.264,147.714 147.714,147.714 81.45,0 147.714,-66.264 147.714,-147.714 C 295.428,66.264 229.164,0 147.714,0 Z m 0,265.428 C 82.807,265.428 30,212.621 30,147.714 30,82.807 82.807,30 147.714,30 c 64.907,0 117.714,52.807 117.714,117.714 0,64.907 -52.807,117.714 -117.714,117.714 z"
   id="path91" />
	<path
   d="m 147.714,61.68 c -8.284,0 -15,6.716 -15,15 v 79 c 0,8.284 6.716,15 15,15 8.284,0 15,-6.716 15,-15 v -79 c 0,-8.284 -6.716,-15 -15,-15 z"
   id="path93" />
	<circle
   cx="147.714"
   cy="217.67999"
   r="15"
   id="circle95" />
</g>
<g
   id="g99">
</g>
<g
   id="g101">
</g>
<g
   id="g103">
</g>
<g
   id="g105">
</g>
<g
   id="g107">
</g>
<g
   id="g109">
</g>
<g
   id="g111">
</g>
<g
   id="g113">
</g>
<g
   id="g115">
</g>
<g
   id="g117">
</g>
<g
   id="g119">
</g>
<g
   id="g121">
</g>
<g
   id="g123">
</g>
<g
   id="g125">
</g>
<g
   id="g127">
</g>
<path
   style="fill:#ffffff;stroke:#000000;stroke-width:0.358095"
   d="M 139.83592,295.04495 C 71.474608,291.56369 14.064982,240.54263 2.3272762,172.83834 -0.50762154,156.48635 -0.5014912,138.94926 2.3448838,122.46833 12.902968,61.335498 61.335498,12.902968 122.46833,2.3448838 c 15.64389,-2.70181219 33.53434,-2.82698002 48.70086,-0.3407282 54.20236,8.8854054 99.18987,47.1274114 116.51643,99.0457644 5.12828,15.36671 7.4711,29.99983 7.4711,46.66408 0,9.72233 -0.55083,16.42858 -2.0736,25.24567 -10.31461,59.72308 -56.8505,107.51401 -116.25349,119.38876 -7.69157,1.53756 -13.96837,2.30596 -22.30484,2.73055 -7.06337,0.35974 -6.95122,0.36 -14.68887,-0.034 z m 19.51615,-30.08305 c 35.88495,-3.41906 69.03108,-24.03983 88.31049,-54.93945 9.54875,-15.30404 15.40861,-32.46914 17.3591,-50.84942 0.2299,-2.16648 0.418,-7.32304 0.418,-11.45903 0,-10.49436 -0.97429,-18.73588 -3.3443,-28.28947 C 251.5884,77.070734 218.37041,43.90675 175.82442,33.293863 166.44629,30.954534 158.20806,29.98474 147.714,29.98474 c -8.21598,0 -12.48001,0.340767 -19.6952,1.573971 -42.370337,7.24185 -77.524833,37.030303 -91.649683,77.660129 -4.393248,12.63707 -6.384377,24.64276 -6.384377,38.49516 0,10.54381 0.961823,18.67113 3.347902,28.28947 10.338034,41.67286 42.871353,74.68138 84.392968,85.62566 7.92036,2.08765 15.30158,3.22091 25.15411,3.86199 2.84528,0.18514 12.09318,-0.11198 16.47235,-0.52922 z"
   id="path877" /><path
   style="fill:#ffffff;stroke:#000000;stroke-width:0.358095"
   d="m 143.23782,169.80223 c -4.03479,-1.33875 -7.14012,-4.13431 -9.02255,-8.12254 l -1.18315,-2.50666 -0.0967,-42.03925 c -0.10526,-45.741086 -0.1612,-44.314833 1.87458,-47.788633 1.37127,-2.339904 4.07121,-4.813957 6.62605,-6.071702 2.18827,-1.077282 2.55462,-1.144041 6.27798,-1.144041 3.72808,0 4.0877,0.06577 6.29132,1.150611 2.62397,1.291774 5.18335,3.626118 6.57008,5.992379 2.08488,3.55759 2.02273,2.00603 1.91721,47.861386 l -0.0967,42.03925 -1.22374,2.61118 c -1.56218,3.33337 -4.73593,6.43294 -7.79415,7.61199 -2.87895,1.10994 -7.46524,1.29358 -10.14017,0.40603 z"
   id="path879" /><path
   style="fill:#ffffff;stroke:#000000;stroke-width:0.358095"
   d="m 143.34025,231.90364 c -10.64268,-3.46563 -13.92102,-17.00586 -5.99698,-24.76879 8.57667,-8.4023 22.93477,-3.67174 24.97309,8.22789 1.08707,6.34628 -2.28698,12.74533 -8.27451,15.69298 -2.05988,1.01407 -2.73302,1.15936 -5.76247,1.24375 -2.18586,0.0609 -3.97752,-0.0827 -4.93913,-0.39583 z"
   id="path881" /></svg>
