<?xml version="1.0" encoding="UTF-8" standalone="no"?>
<svg
   xmlns:dc="http://purl.org/dc/elements/1.1/"
   xmlns:cc="http://creativecommons.org/ns#"
   xmlns:rdf="http://www.w3.org/1999/02/22-rdf-syntax-ns#"
   xmlns:svg="http://www.w3.org/2000/svg"
   xmlns="http://www.w3.org/2000/svg"
   xmlns:sodipodi="http://sodipodi.sourceforge.net/DTD/sodipodi-0.dtd"
   xmlns:inkscape="http://www.inkscape.org/namespaces/inkscape"
   version="1.1"
   id="Layer_1"
   x="0px"
   y="0px"
   viewBox="0 0 300.112 300.112"
   style="enable-background:new 0 0 300.112 300.112;"
   xml:space="preserve"
   sodipodi:docname="engrenage-blanc.svg"
   inkscape:version="1.0.2 (1.0.2+r75+1)"><metadata
   id="metadata175"><rdf:RDF><cc:Work
       rdf:about=""><dc:format>image/svg+xml</dc:format><dc:type
         rdf:resource="http://purl.org/dc/dcmitype/StillImage" /><dc:title></dc:title></cc:Work></rdf:RDF></metadata><defs
   id="defs173" /><sodipodi:namedview
   pagecolor="#ffffff"
   bordercolor="#666666"
   borderopacity="1"
   objecttolerance="10"
   gridtolerance="10"
   guidetolerance="10"
   inkscape:pageopacity="0"
   inkscape:pageshadow="2"
   inkscape:window-width="1848"
   inkscape:window-height="1016"
   id="namedview171"
   showgrid="false"
   inkscape:zoom="2.7489737"
   inkscape:cx="150.056"
   inkscape:cy="150.056"
   inkscape:window-x="72"
   inkscape:window-y="27"
   inkscape:window-maximized="1"
   inkscape:current-layer="Layer_1" />
<g
   id="g138">
	<g
   id="g136">
		<g
   id="g134">
			<path
   d="M150.057,105.1c-24.789,0-44.955,20.167-44.955,44.955s20.166,44.955,44.955,44.955     c24.789,0,44.955-20.167,44.955-44.955S174.845,105.1,150.057,105.1z M150.057,178.36c-15.607,0-28.305-12.697-28.305-28.305     s12.697-28.305,28.305-28.305c15.608,0,28.305,12.697,28.305,28.305S165.663,178.36,150.057,178.36z"
   id="path128" />
			<path
   d="M297.365,183.342l-25.458-22.983v-20.608l25.457-22.981c2.614-2.361,3.461-6.112,2.112-9.366l-13.605-32.846     c-1.348-3.253-4.588-5.305-8.115-5.128l-34.252,1.749l-14.571-14.571l1.749-34.251c0.18-3.518-1.874-6.769-5.128-8.116     L192.707,0.635c-3.253-1.35-7.005-0.501-9.365,2.111l-22.984,25.458h-20.606L116.77,2.746c-2.361-2.613-6.112-3.458-9.365-2.111     L74.559,14.24c-3.255,1.348-5.308,4.599-5.128,8.116l1.75,34.251L56.609,71.178l-34.252-1.749     c-3.506-0.188-6.768,1.874-8.115,5.128L0.635,107.403c-1.348,3.255-0.502,7.005,2.112,9.366l25.457,22.981v20.608L2.749,183.341     c-2.614,2.361-3.461,6.112-2.112,9.366l13.605,32.846c1.348,3.255,4.603,5.321,8.115,5.128l34.252-1.749l14.572,14.571     l-1.75,34.251c-0.18,3.518,1.874,6.769,5.128,8.116l32.846,13.606c3.255,1.352,7.005,0.502,9.365-2.111l22.984-25.458h20.606     l22.984,25.458c1.613,1.785,3.873,2.746,6.182,2.746c1.071,0,2.152-0.208,3.183-0.634l32.846-13.606     c3.255-1.348,5.308-4.599,5.128-8.116l-1.749-34.251l14.571-14.571l34.252,1.749c3.506,0.178,6.768-1.874,8.115-5.128     l13.605-32.846C300.825,189.453,299.979,185.703,297.365,183.342z M272.737,213.754l-32.079-1.639     c-2.351-0.127-4.646,0.764-6.311,2.428l-19.804,19.804c-1.666,1.666-2.547,3.958-2.428,6.311l1.638,32.079l-21.99,9.109     l-21.525-23.843c-1.578-1.747-3.824-2.746-6.179-2.746h-28.006c-2.355,0-4.601,0.998-6.179,2.746l-21.525,23.843l-21.99-9.109     l1.639-32.079c0.12-2.353-0.763-4.646-2.429-6.311l-19.803-19.804c-1.665-1.665-3.955-2.55-6.311-2.428l-32.079,1.639     l-9.109-21.99l23.842-21.525c1.748-1.58,2.746-3.824,2.746-6.179v-28.008c0-2.355-0.998-4.601-2.746-6.179l-23.842-21.525     l9.109-21.99l32.079,1.639c2.354,0.124,4.646-0.763,6.311-2.428l19.803-19.803c1.666-1.666,2.549-3.958,2.429-6.313     l-1.639-32.079l21.99-9.109l21.525,23.842c1.578,1.747,3.824,2.746,6.179,2.746h28.006c2.355,0,4.601-0.998,6.179-2.746     l21.525-23.842l21.99,9.109l-1.638,32.079c-0.12,2.353,0.761,4.645,2.428,6.313l19.804,19.803     c1.666,1.665,3.959,2.564,6.311,2.428l32.079-1.639l9.109,21.99l-23.843,21.525c-1.748,1.58-2.746,3.824-2.746,6.179v28.008     c0,2.355,0.998,4.601,2.746,6.179l23.843,21.525L272.737,213.754z"
   id="path130" />
			<path
   d="M150.057,71.357c-43.394,0-78.698,35.305-78.698,78.698c0,43.394,35.304,78.698,78.698,78.698     c43.394,0,78.698-35.305,78.698-78.698C228.754,106.661,193.45,71.357,150.057,71.357z M150.057,212.103     c-34.214,0-62.048-27.834-62.048-62.048c0-34.214,27.834-62.048,62.048-62.048c34.214,0,62.048,27.834,62.048,62.048     C212.105,184.269,184.269,212.103,150.057,212.103z"
   id="path132" />
		</g>
	</g>
</g>
<g
   id="g140">
</g>
<g
   id="g142">
</g>
<g
   id="g144">
</g>
<g
   id="g146">
</g>
<g
   id="g148">
</g>
<g
   id="g150">
</g>
<g
   id="g152">
</g>
<g
   id="g154">
</g>
<g
   id="g156">
</g>
<g
   id="g158">
</g>
<g
   id="g160">
</g>
<g
   id="g162">
</g>
<g
   id="g164">
</g>
<g
   id="g166">
</g>
<g
   id="g168">
</g>
<path
   style="fill:#ffffff;stroke:#000000;stroke-width:0.363772"
   d="m 108.40409,299.58265 c -1.18609,-0.37162 -32.588007,-13.39442 -34.012691,-14.10553 -2.195449,-1.09583 -3.852292,-3.13164 -4.561648,-5.60502 -0.159008,-0.55443 0.122784,-8.91883 0.630497,-18.71496 l 0.918004,-17.71248 -7.405843,-7.36434 -7.405844,-7.36433 -17.737565,0.9233 c -19.99202,1.04066 -19.657021,1.06307 -22.334379,-1.4939 -1.477589,-1.41115 -2.086807,-2.72329 -8.8587779,-19.08017 -6.4455793,-15.56852 -7.27207098,-17.7924 -7.27207098,-19.56725 0,-2.00991 0.69883098,-3.84542 2.07931688,-5.46142 0.3569357,-0.41783 6.3374606,-5.87888 13.290055,-12.13567 L 28.374225,160.5249 V 150.056 139.5871 L 15.733144,128.21112 C 8.7805496,121.95433 2.8000247,116.49328 2.443089,116.07545 c -1.3804859,-1.616 -2.07931688,-3.45151 -2.07931688,-5.46142 0,-1.77485 0.82649168,-3.99873 7.27207098,-19.567248 C 14.407814,74.689899 15.017032,73.377759 16.494621,71.96661 19.162317,69.41887 18.820944,69.441781 38.81621,70.468637 l 17.750355,0.911573 7.405844,-7.356433 7.405843,-7.356436 -0.915858,-17.671079 c -0.666139,-12.852891 -0.814969,-18.068548 -0.54584,-19.12883 0.453155,-1.785301 2.458863,-4.199861 4.241103,-5.105635 2.261626,-1.14941 33.258933,-13.93457901 34.693853,-14.30985132 1.89534,-0.49568376 4.33262,-0.045896 6.0268,1.11221412 0.7903,0.5402347 6.63915,6.7525803 12.99743,13.8052122 l 11.56052,12.822967 h 10.62365 10.62366 L 171.8711,15.801135 c 6.15314,-6.8151615 11.61942,-12.8008329 12.14728,-13.3014916 1.71902,-1.63043538 2.99004,-2.11275127 5.5069,-2.08970543 2.22521,0.0203752 3.33966,0.42876918 18.91615,6.93188013 9.10339,3.8006259 17.06721,7.1777969 17.69737,7.5048239 1.63008,0.84594 3.62306,3.312598 4.05665,5.02079 0.26913,1.060276 0.12032,6.275441 -0.54574,19.126749 l -0.91575,17.668998 7.38574,7.392337 7.38574,7.392341 1.47509,-0.158911 c 0.81129,-0.0874 8.86687,-0.517305 17.90127,-0.955345 15.49021,-0.751055 16.51738,-0.761608 18.02678,-0.185164 3.35365,1.280773 3.63996,1.798329 11.56478,20.905402 6.46522,15.587931 7.27487,17.763871 7.27487,19.551321 0,2.15396 -0.75452,4.04788 -2.23897,5.62003 -0.47229,0.50019 -6.46408,5.96678 -13.31509,12.14799 l -12.4564,11.23855 v 10.44427 10.44427 l 12.4564,11.23855 c 6.85101,6.18121 12.8428,11.6478 13.31509,12.14799 1.48445,1.57215 2.23897,3.46607 2.23897,5.62003 0,1.78745 -0.80965,3.96339 -7.27487,19.55132 -7.92482,19.10707 -8.21113,19.62463 -11.56478,20.9054 -1.5094,0.57645 -2.53657,0.56589 -18.02678,-0.18516 -9.0344,-0.43804 -17.08998,-0.86795 -17.90127,-0.95535 l -1.47509,-0.15891 -7.38574,7.39234 -7.38574,7.39234 0.9179,17.7104 c 0.50765,9.79492 0.7894,18.15845 0.63039,18.71288 -0.7091,2.47249 -2.36411,4.5066 -4.56165,5.60654 -2.21058,1.10646 -33.14852,13.83839 -34.46011,14.18141 -1.89658,0.49601 -4.33488,0.0454 -6.01828,-1.11221 -0.78562,-0.54024 -6.70803,-6.83443 -13.16092,-13.9871 l -11.73254,-13.00485 h -10.28699 -10.28699 l -11.74663,13.00485 c -6.46065,7.15267 -12.24363,13.37491 -12.85107,13.8272 -1.86257,1.38685 -4.61186,1.87181 -6.77298,1.19471 z m 11.42031,-30.04658 c 8.38385,-9.33762 11.62387,-12.70352 12.75593,-13.25154 1.45168,-0.70275 2.20979,-0.73461 17.47567,-0.73461 15.3004,0 16.02112,0.0305 17.48568,0.73946 1.13684,0.55033 4.35283,3.868 12.57405,12.9716 6.07558,6.72769 11.14354,12.3788 11.26211,12.55803 0.11858,0.17923 5.23412,-1.75278 11.36788,-4.29335 10.60505,-4.39256 11.15201,-4.66575 11.14661,-5.56733 -0.003,-0.52145 -0.32796,-6.92306 -0.72187,-14.22578 -0.90725,-16.8198 -0.9108,-19.03421 -0.0336,-20.9169 0.44592,-0.95703 4.52106,-5.26482 11.90555,-12.58524 9.9841,-9.89748 11.41008,-11.17938 12.87564,-11.57469 1.34084,-0.36166 4.35877,-0.30536 16.18786,0.30202 7.99688,0.4106 15.49915,0.79014 16.67173,0.84341 l 2.13195,0.0969 4.51715,-10.89691 c 2.48443,-5.99329 4.44169,-11.09353 4.34947,-11.33386 -0.0922,-0.24033 -5.63804,-5.3732 -12.32403,-11.40638 -7.79932,-7.0378 -12.46924,-11.51557 -13.02932,-12.49321 l -0.87297,-1.52379 V 150.056 133.86814 l 0.87297,-1.52379 c 0.56008,-0.97764 5.23,-5.45541 13.02932,-12.49321 6.68599,-6.03318 12.23181,-11.16605 12.32403,-11.40638 0.0922,-0.24033 -1.86504,-5.34057 -4.34947,-11.333864 l -4.51715,-10.896903 -2.13195,0.09685 c -1.17258,0.05327 -8.67485,0.432809 -16.67173,0.843417 -11.82909,0.607375 -14.84702,0.66368 -16.18786,0.302014 -1.46556,-0.395307 -2.89154,-1.677204 -12.87564,-11.57469 -7.38449,-7.32042 -11.45963,-11.628213 -11.90555,-12.585239 -0.87723,-1.882692 -0.87368,-4.097103 0.0336,-20.916897 0.39391,-7.302725 0.71875,-13.704329 0.72187,-14.225786 0.005,-0.90158 -0.54156,-1.174768 -11.14661,-5.567326 -6.13376,-2.540573 -11.2493,-4.472962 -11.36788,-4.294198 -0.11857,0.178764 -5.18399,5.824987 -11.25647,12.547163 -8.61248,9.533926 -11.39196,12.387169 -12.63711,12.97246 -1.53623,0.722109 -2.19385,0.75032 -17.49133,0.75032 -15.21278,0 -15.96035,-0.03158 -17.41555,-0.736042 -1.12547,-0.544833 -4.34474,-3.860681 -12.39216,-12.763911 -5.97943,-6.615327 -11.05777,-12.264989 -11.2852,-12.554805 -0.34968,-0.445613 -2.1322,0.18494 -11.549766,4.085649 -10.589461,4.386104 -11.135981,4.659139 -11.130583,5.56069 0.0031,0.521457 0.327963,6.923061 0.721866,14.225786 0.90783,16.83051 0.911158,19.0347 0.03158,20.916897 -0.444806,0.951846 -4.499442,5.244888 -11.723662,12.413 -9.077964,9.00746 -11.34266,11.068778 -12.723346,11.580758 C 60.931779,87.881306 60.090971,87.8745 45.974477,87.156082 37.79489,86.739804 30.227824,86.357541 29.158775,86.306605 l -1.943713,-0.09261 -4.513228,10.872268 c -2.482275,5.979747 -4.513228,11.009777 -4.513228,11.177837 0,0.16806 5.536049,5.30286 12.302332,11.41066 8.001889,7.22317 12.611489,11.64488 13.18674,12.64924 l 0.884407,1.54414 v 16.18786 16.18786 l -0.884407,1.54414 c -0.575251,1.00436 -5.184851,5.42607 -13.18674,12.64924 -6.766283,6.1078 -12.302332,11.23307 -12.302332,11.38949 0,0.15641 2.029572,5.18643 4.51016,11.17783 l 4.51016,10.89345 2.128681,-0.0969 c 1.170775,-0.0533 8.671578,-0.43281 16.668449,-0.84341 11.829095,-0.60738 14.847025,-0.66368 16.18786,-0.30202 1.465565,0.39531 2.891541,1.67721 12.875649,11.57469 7.384486,7.32042 11.459629,11.62821 11.905548,12.58524 0.88194,1.8928 0.877248,3.5382 -0.06103,21.40174 -0.418599,7.96954 -0.696208,14.55495 -0.616906,14.63425 0.187477,0.18748 21.867953,9.21869 22.106913,9.20885 0.10004,-0.004 5.23918,-5.64011 11.42031,-12.52442 z"
   id="path187" /><path
   style="fill:#ffffff;stroke:#000000;stroke-width:0.363772"
   d="M 142.59867,228.20637 C 121.00313,226.17228 100.27311,214.44977 87.186803,196.87182 69.553279,173.1859 66.6632,141.79231 79.698076,115.52519 90.632903,93.489975 110.73242,77.971773 134.59568,73.14048 c 32.05821,-6.490417 64.84016,7.793727 82.25684,35.84193 14.0986,22.70469 15.46095,51.61191 3.56311,75.6044 -14.57188,29.38478 -45.4118,46.6718 -77.81696,43.61956 z m 15.38739,-16.48906 c 18.33941,-2.40408 34.10407,-12.31691 44.25839,-27.82971 7.30528,-11.16031 10.67119,-24.33466 9.78214,-38.28781 -1.86723,-29.30503 -24.52026,-53.341557 -53.89529,-57.186859 -26.43313,-3.460196 -52.17444,10.306388 -63.907916,34.178269 -9.608382,19.54836 -8.102234,43.69286 3.846347,61.65938 13.234109,19.8995 36.451379,30.54272 59.916329,27.46673 z"
   id="path189" /><path
   style="fill:#ffffff;stroke:#000000;stroke-width:0.363772"
   d="m 145.50885,194.63259 c -0.30011,-0.072 -1.77339,-0.32954 -3.27395,-0.5724 -16.77857,-2.7156 -31.22919,-16.16417 -35.51266,-33.0501 -6.33208,-24.96179 9.70747,-49.93615 35.33077,-55.01177 3.78809,-0.75036 13.04622,-0.64894 16.91541,0.18531 12.69184,2.73654 23.30576,10.46306 29.90548,21.77004 7.92223,13.57278 7.82011,30.88036 -0.26351,44.6562 -6.41028,10.92421 -17.03432,18.54839 -29.70104,21.31451 -2.40285,0.52472 -12.04129,1.03411 -13.4005,0.70821 z m 11.26809,-16.94656 c 10.0356,-2.40571 18.09358,-10.24774 20.80791,-20.25029 1.08007,-3.98018 1.08007,-10.7793 0,-14.75948 -2.62003,-9.65502 -10.4576,-17.52886 -20.07152,-20.1644 -3.31282,-0.90816 -11.61069,-0.90749 -14.90315,0.001 -9.64249,2.6613 -17.47629,10.52767 -20.0797,20.16317 -1.00355,3.71425 -1.08806,10.41412 -0.17798,14.10953 0.84614,3.43578 3.42801,8.60067 5.67198,11.34647 6.77131,8.28562 18.20048,12.08327 28.75246,9.55377 z"
   id="path191" /></svg>
