<?xml version="1.0" encoding="UTF-8" standalone="no"?>
<svg
   xmlns:dc="http://purl.org/dc/elements/1.1/"
   xmlns:cc="http://creativecommons.org/ns#"
   xmlns:rdf="http://www.w3.org/1999/02/22-rdf-syntax-ns#"
   xmlns:svg="http://www.w3.org/2000/svg"
   xmlns="http://www.w3.org/2000/svg"
   xmlns:sodipodi="http://sodipodi.sourceforge.net/DTD/sodipodi-0.dtd"
   xmlns:inkscape="http://www.inkscape.org/namespaces/inkscape"
   version="1.1"
   id="Layer_1"
   x="0px"
   y="0px"
   viewBox="0 0 368.666 368.666"
   style="enable-background:new 0 0 368.666 368.666;"
   xml:space="preserve"
   sodipodi:docname="location-pointer-blanc.svg"
   inkscape:version="1.0.2 (1.0.2+r75+1)"><metadata
   id="metadata173"><rdf:RDF><cc:Work
       rdf:about=""><dc:format>image/svg+xml</dc:format><dc:type
         rdf:resource="http://purl.org/dc/dcmitype/StillImage" /><dc:title></dc:title></cc:Work></rdf:RDF></metadata><defs
   id="defs171" /><sodipodi:namedview
   pagecolor="#ffffff"
   bordercolor="#666666"
   borderopacity="1"
   objecttolerance="10"
   gridtolerance="10"
   guidetolerance="10"
   inkscape:pageopacity="0"
   inkscape:pageshadow="2"
   inkscape:window-width="1848"
   inkscape:window-height="1016"
   id="namedview169"
   showgrid="false"
   inkscape:zoom="2.2377979"
   inkscape:cx="184.333"
   inkscape:cy="184.333"
   inkscape:window-x="72"
   inkscape:window-y="27"
   inkscape:window-maximized="1"
   inkscape:current-layer="Layer_1" />
<g
   id="XMLID_20_">
	<g
   id="g135">
		<g
   id="g133">
			<path
   d="M184.333,0C102.011,0,35.037,66.974,35.037,149.297c0,33.968,11.132,65.959,32.193,92.515     C94.5,276.195,173.8,357.833,177.164,361.291l7.169,7.375l7.17-7.374c3.363-3.459,82.688-85.116,109.963-119.51     c21.042-26.534,32.164-58.515,32.164-92.485C333.63,66.974,266.656,0,184.333,0z M285.797,229.355     c-21.957,27.687-80.921,89.278-101.463,110.581c-20.54-21.302-79.482-82.875-101.434-110.552     C64.67,206.4,55.037,178.707,55.037,149.297C55.037,78.002,113.039,20,184.333,20S313.63,78.002,313.63,149.297     C313.63,178.708,304.005,206.392,285.797,229.355z"
   id="path127" />
			<path
   d="M184.333,59.265c-48.729,0-88.374,39.645-88.374,88.374s39.644,88.374,88.374,88.374s88.374-39.644,88.374-88.374     C272.708,98.909,233.063,59.265,184.333,59.265z M184.333,216.013c-37.701,0-68.374-30.672-68.374-68.374     c0-37.702,30.672-68.374,68.374-68.374c37.702,0,68.374,30.672,68.374,68.374C252.708,185.34,222.034,216.013,184.333,216.013z"
   id="path129" />
			<polygon
   points="180.672,154.314 155.56,134.334 143.107,149.986 183.797,182.357 227.13,128.423 211.537,115.897    "
   id="polygon131" />
		</g>
	</g>
</g>
<g
   id="g138">
</g>
<g
   id="g140">
</g>
<g
   id="g142">
</g>
<g
   id="g144">
</g>
<g
   id="g146">
</g>
<g
   id="g148">
</g>
<g
   id="g150">
</g>
<g
   id="g152">
</g>
<g
   id="g154">
</g>
<g
   id="g156">
</g>
<g
   id="g158">
</g>
<g
   id="g160">
</g>
<g
   id="g162">
</g>
<g
   id="g164">
</g>
<g
   id="g166">
</g>
<path
   style="fill:#ffffff;stroke:#000000;stroke-width:0.446868"
   d="m 182.7119,366.62581 c -0.82884,-0.94285 -8.75502,-9.21477 -17.61374,-18.38206 C 113.81241,295.17163 76.20588,253.73083 63.446229,236.22764 49.871064,217.60575 40.643748,195.31298 37.139051,172.67071 29.770011,125.06265 45.15083,77.898679 79.094962,44.016486 112.64766,10.525017 159.1964,-4.949741 206.00609,1.8259007 c 52.05744,7.5352472 97.20277,43.2813273 116.77595,92.4632213 9.87806,24.820788 12.84786,51.354038 8.76152,78.278568 -3.54064,23.32904 -13.1755,46.09662 -27.73054,65.5285 -14.24966,19.02417 -57.85692,66.6925 -111.94033,122.36515 l -7.65382,7.87873 z M 196.90212,327.219 c 49.9304,-52.23243 81.81428,-87.49013 92.66198,-102.46707 12.05221,-16.63996 19.65238,-35.31716 22.85021,-56.15371 1.18095,-7.69492 1.62656,-23.93774 0.8626,-31.4428 C 310.67244,111.56948 301.99239,89.907663 285.983,69.041087 281.16372,62.759653 269.37733,51.217784 262.68497,46.226395 243.99403,32.286066 224.86787,24.342396 201.76085,20.922783 c -4.10974,-0.608202 -8.18093,-0.793585 -17.42785,-0.793585 -9.24692,0 -13.31811,0.185383 -17.42785,0.793585 -29.11956,4.30941 -53.35699,16.368672 -73.77733,36.707694 -7.333066,7.303859 -11.366138,12.165294 -16.695439,20.124534 -11.799864,17.622945 -18.802869,37.390839 -21.043286,59.400409 -0.772798,7.59186 -0.318222,23.73806 0.890867,31.64293 3.123752,20.42267 10.925531,39.54856 22.833652,55.97619 10.13983,13.98821 41.592826,48.92178 85.095906,94.51256 7.15294,7.49621 14.58334,15.28847 16.51199,17.31613 1.92865,2.02766 3.54695,3.68666 3.59622,3.68666 0.0493,0 5.71225,-5.8819 12.58439,-13.07089 z"
   id="path175" /><path
   style="fill:#ffffff;stroke:#000000;stroke-width:0.446868"
   d="m 173.1613,235.02457 c -37.35075,-5.06639 -67.31116,-32.77964 -75.046905,-69.41808 -6.134191,-29.05307 2.872245,-59.05186 24.092925,-80.249135 16.64457,-16.626206 38.5798,-25.700493 62.12568,-25.700493 28.73466,0 55.07381,13.615303 71.81709,37.123887 11.80507,16.575041 17.6964,37.573781 16.05105,57.211581 -3.90934,46.65961 -42.21156,82.03223 -88.44961,81.68443 -3.36685,-0.0253 -8.13245,-0.31881 -10.59023,-0.65219 z m 26.14177,-20.44759 c 13.33086,-3.17518 24.04218,-9.0902 33.29166,-18.38438 8.07419,-8.11321 13.24754,-16.4224 16.71744,-26.85076 2.71647,-8.16406 3.36149,-12.43388 3.33833,-22.09887 -0.0163,-6.79384 -0.19725,-9.10321 -1.01552,-12.95917 -2.97051,-13.998 -8.92336,-24.98373 -19.02399,-35.107954 C 220.64374,87.180637 206.3821,80.615394 189.52921,79.343447 154.89024,76.729122 124.33012,99.888098 117.03102,134.2838 c -1.32556,6.24648 -1.45444,19.02126 -0.25697,25.47147 1.73897,9.36707 6.28011,20.09053 11.7846,27.82824 3.1185,4.3837 10.3643,11.78744 14.61208,14.93058 7.21382,5.33787 15.72373,9.40139 24.18184,11.54697 6.77795,1.71936 9.22139,1.95506 18.54447,1.78885 7.38902,-0.13173 9.42733,-0.32527 13.40603,-1.27293 z"
   id="path177" /><path
   style="fill:#ffffff;stroke:#000000;stroke-width:0.446868"
   d="m 163.95829,166.22285 c -10.66809,-8.48592 -19.5759,-15.69237 -19.79512,-16.01433 -0.28125,-0.41305 1.34162,-2.77979 5.51228,-8.03896 l 5.91087,-7.45357 1.6376,1.29796 c 0.90069,0.71388 6.46378,5.13839 12.36244,9.83226 5.89866,4.69386 10.86879,8.53707 11.04474,8.54047 0.17595,0.003 6.89135,-8.18827 14.9231,-18.20369 8.03176,-10.01543 14.94033,-18.57055 15.35237,-19.01139 0.71327,-0.76308 1.10118,-0.51989 8.0906,5.0723 4.03777,3.23059 7.34141,6.06373 7.34141,6.29586 0,0.54046 -42.22459,53.11203 -42.65868,53.11203 -0.1788,0 -9.05352,-6.94302 -19.72161,-15.42894 z"
   id="path179" /></svg>
