<?xml version="1.0" encoding="UTF-8" standalone="no"?>
<svg
   xmlns:dc="http://purl.org/dc/elements/1.1/"
   xmlns:cc="http://creativecommons.org/ns#"
   xmlns:rdf="http://www.w3.org/1999/02/22-rdf-syntax-ns#"
   xmlns:svg="http://www.w3.org/2000/svg"
   xmlns="http://www.w3.org/2000/svg"
   xmlns:sodipodi="http://sodipodi.sourceforge.net/DTD/sodipodi-0.dtd"
   xmlns:inkscape="http://www.inkscape.org/namespaces/inkscape"
   version="1.1"
   id="Calque_1"
   x="0px"
   y="0px"
   viewBox="0 0 343.3288 491.7439"
   xml:space="preserve"
   sodipodi:docname="logo.svg"
   width="343.3288"
   height="491.7439"
   inkscape:version="1.0.2 (1.0.2+r75+1)"><metadata
   id="metadata33"><rdf:RDF><cc:Work
       rdf:about=""><dc:format>image/svg+xml</dc:format><dc:type
         rdf:resource="http://purl.org/dc/dcmitype/StillImage" /><dc:title></dc:title></cc:Work></rdf:RDF></metadata><defs
   id="defs31" /><sodipodi:namedview
   pagecolor="#ffffff"
   bordercolor="#666666"
   borderopacity="1"
   objecttolerance="10"
   gridtolerance="10"
   guidetolerance="10"
   inkscape:pageopacity="0"
   inkscape:pageshadow="2"
   inkscape:window-width="1848"
   inkscape:window-height="1016"
   id="namedview29"
   showgrid="false"
   inkscape:zoom="0.76388889"
   inkscape:cx="215.22656"
   inkscape:cy="351.08"
   inkscape:window-x="72"
   inkscape:window-y="27"
   inkscape:window-maximized="1"
   inkscape:current-layer="Calque_1" />
<g
   id="g26"
   transform="translate(-744.77344,-188.92)">
	<g
   id="g24">
		<path
   d="M 976.2,680.5 C 966.06,661.42 957.13,642 945.88,624.03 923.6,588.42 899.97,553.65 877.19,518.36 c -1.49,-2.3 -1.29,-6.32 -0.63,-9.26 3.23,-14.36 7.5,-28.5 10.23,-42.94 3.63,-19.2 6.13,-38.62 9.23,-57.92 0.23,-1.43 1.37,-2.72 3.58,-3.61 -1.64,12.91 -2.62,25.94 -5.06,38.69 -3.82,19.98 -8.76,39.74 -12.81,59.68 -0.46,2.27 1.29,5.34 2.72,7.59 5.57,8.73 11.9,16.99 17.08,25.94 23.55,40.67 46.82,81.49 70.11,122.3 1.7,2.98 2.77,6.32 5.04,11.61 7.34,-10.96 14.06,-20.67 20.44,-30.58 10.06,-15.61 20.47,-31.03 29.7,-47.12 15.43,-26.89 30.07,-54.23 45.01,-81.39 2.95,-5.36 7.43,-10.54 8.25,-16.23 0.92,-6.31 -1.54,-13.12 -2.81,-21.67 -2.58,4.9 -4.42,8.23 -6.11,11.64 -2.94,5.91 -5.55,12 -8.84,17.71 -0.79,1.36 -3.72,1.48 -5.67,2.18 0.07,-1.79 -0.35,-3.78 0.27,-5.34 7.89,-19.69 5.5,-39.03 -1.81,-58.19 -0.86,-2.25 -2.44,-4.23 -5.1,-8.71 -6.69,15.1 -12.35,28.53 -18.58,41.69 -3.91,8.26 -8.63,16.13 -13.06,24.14 -2.15,3.9 -4.25,7.86 -6.82,11.47 -0.84,1.18 -3.09,1.37 -4.69,2.01 0.22,-1.54 0.19,-3.17 0.71,-4.6 4.91,-13.41 10.22,-26.69 14.82,-40.21 6.87,-20.16 9.89,-40.82 6.21,-62.08 -0.27,-1.56 -0.83,-3.08 0.33,-2.29 -7.71,6.43 -15.2,13.16 -23.24,19.16 -3.67,2.74 -8.4,4.05 -12.65,6.01 -0.48,-1.26 -1.74,-3.18 -1.32,-3.67 16.34,-19.34 21.57,-42.63 25.37,-66.85 1.31,-8.32 -1.19,-14.25 -5.83,-19.33 -12.19,-13.34 -25.02,-26.11 -37.93,-38.75 -1.72,-1.68 -5.42,-1.34 -9.07,-2.13 1.63,-0.93 2.57,-1.47 3.19,-1.83 -13.75,-8.12 -27.78,-16.14 -41.53,-24.6 -8.98,-5.53 -17.59,-11.66 -26.27,-17.65 -0.85,-0.59 -1.06,-2.11 -1.57,-3.2 1.22,0.11 2.77,-0.22 3.61,0.41 9.41,6.99 19.12,13.79 31,6.17 7.58,-4.86 14.78,-10.61 21.16,-16.96 5,-4.99 8.45,-11.52 12.64,-17.34 0.86,-1.19 1.93,-2.22 2.91,-3.32 0.15,1.61 0.78,3.35 0.37,4.8 -3.43,12.38 -7.18,24.67 -10.46,37.1 -0.4,1.51 0.94,4.54 2.34,5.31 21.95,12.09 47.61,8.32 68.39,-10.09 5.79,-5.13 10.94,-10.97 16.55,-16.31 0.94,-0.89 2.74,-0.87 4.14,-1.27 0.18,1.28 0.46,2.56 0.5,3.84 0.04,1.49 -0.11,2.99 -0.21,4.48 -0.1,1.45 0.29,3.3 -0.45,4.28 -10.9,14.54 -21.97,28.95 -32.97,43.42 -5.31,6.98 -10.62,13.97 -15.7,21.11 -0.7,0.98 -0.71,3.31 -0.01,4.31 12.78,18.51 26.13,36.63 38.5,55.41 14.03,21.3 22.66,45.08 31.31,69.01 5.86,16.22 9.02,32.63 11.77,49.38 0.55,3.33 3.29,6.25 4.29,9.58 0.59,1.95 0.43,4.75 -0.58,6.46 -9.55,16.22 -19.03,32.51 -29.21,48.34 -7.46,11.6 -16.27,22.33 -23.91,33.82 -14.92,22.44 -29.45,45.14 -44.11,67.75 -4.4,6.78 -8.68,13.63 -13.09,20.4 -0.35,0.54 -1.3,0.7 -0.66,0.38 z"
   id="path10" />
		<path
   d="m 752.91,345.47 c 3.27,-3.31 6.41,-6.77 9.82,-9.92 18.5,-17.08 36.88,-34.31 55.7,-51.04 11.93,-10.61 24.59,-20.4 36.86,-30.65 1.75,-1.46 2.85,-3.8 4.73,-4.95 1.38,-0.85 3.54,-0.43 5.35,-0.58 -0.49,1.42 -0.55,3.35 -1.54,4.17 -17.88,14.81 -36.21,29.1 -53.74,44.31 -17.4,15.11 -34,31.15 -50.98,46.75 -1.42,1.3 -3.09,2.33 -4.64,3.49 -0.52,-0.53 -1.04,-1.06 -1.56,-1.58 z"
   id="path12" />
		<path
   d="m 866.56,287.18 c -2.35,0.78 -4.7,1.57 -7.35,2.45 -0.65,4.29 -0.93,9.3 -2.3,13.99 -0.72,2.46 -2.93,5.46 -5.17,6.29 -5,1.84 -8.85,0.16 -8.41,-6.15 0.46,-6.51 0.38,-13.23 2.18,-19.38 0.63,-2.14 4.15,-7.76 9.84,-3.45 3.01,2.28 7.38,2.75 11.14,4.04 0.02,0.73 0.04,1.47 0.07,2.21 z"
   id="path14" />
		<path
   d="m 785.66,336.24 c -1.15,7.94 -2.26,16.01 -9.48,21.32 -1.9,1.4 -6.2,2.78 -6.84,2.02 -1.93,-2.29 -3.68,-5.74 -3.43,-8.55 0.22,-2.5 3.87,-7.03 4.88,-6.74 6.74,1.94 8.44,-3.5 11.53,-6.87 0.63,-0.68 0.78,-1.8 1.15,-2.72 0.73,0.51 1.46,1.03 2.19,1.54 z"
   id="path16" />
		<path
   d="m 893.55,250.08 c -1.47,-5.25 -2.03,-11.01 -4.6,-15.66 -4.84,-8.78 -10.36,-17.3 -16.51,-25.23 -4.7,-6.06 -10.86,-10.97 -16.18,-16.57 -0.63,-0.67 -0.11,-2.44 -0.12,-3.7 1.47,0.22 3.59,-0.11 4.31,0.74 8.54,10.19 17.59,20.06 25,31.04 4.77,7.06 7.19,15.75 10.32,23.84 0.6,1.54 -0.38,3.69 -0.63,5.57 -0.53,-0.02 -1.06,-0.03 -1.59,-0.03 z"
   id="path18" />
		<path
   d="m 745.68,367.93 c 7.21,15.62 17.62,20.26 36.89,16.58 3.82,-0.73 7.44,-2.5 11.24,-3.39 1.27,-0.3 2.83,0.65 4.25,1.02 -0.77,1.3 -1.3,3.46 -2.36,3.76 -14.84,4.22 -29.69,4.8 -44.22,-1.29 -4.92,-2.06 -8.45,-12.27 -5.8,-16.68 z"
   id="path20" />
		<path
   d="m 867.68,240.03 c -0.74,-7.06 -1.49,-14.12 -2.23,-21.18 0.7,-0.09 1.4,-0.19 2.1,-0.28 1.07,7.03 2.14,14.06 3.22,21.1 -1.04,0.12 -2.06,0.24 -3.09,0.36 z"
   id="path22" />
	</g>
</g>
</svg>
