<?xml version="1.0" encoding="UTF-8" standalone="no"?>
<svg
   xmlns:dc="http://purl.org/dc/elements/1.1/"
   xmlns:cc="http://creativecommons.org/ns#"
   xmlns:rdf="http://www.w3.org/1999/02/22-rdf-syntax-ns#"
   xmlns:svg="http://www.w3.org/2000/svg"
   xmlns="http://www.w3.org/2000/svg"
   xmlns:sodipodi="http://sodipodi.sourceforge.net/DTD/sodipodi-0.dtd"
   xmlns:inkscape="http://www.inkscape.org/namespaces/inkscape"
   version="1.1"
   id="Calque_1"
   x="0px"
   y="0px"
   viewBox="0 0 343.3288 491.7439"
   xml:space="preserve"
   sodipodi:docname="logo-orange.svg"
   width="343.3288"
   height="491.7439"
   inkscape:version="1.0.2 (1.0.2+r75+1)"><metadata
   id="metadata33"><rdf:RDF><cc:Work
       rdf:about=""><dc:format>image/svg+xml</dc:format><dc:type
         rdf:resource="http://purl.org/dc/dcmitype/StillImage" /><dc:title></dc:title></cc:Work></rdf:RDF></metadata><defs
   id="defs31" /><sodipodi:namedview
   pagecolor="#ffffff"
   bordercolor="#666666"
   borderopacity="1"
   objecttolerance="10"
   gridtolerance="10"
   guidetolerance="10"
   inkscape:pageopacity="0"
   inkscape:pageshadow="2"
   inkscape:window-width="1848"
   inkscape:window-height="1016"
   id="namedview29"
   showgrid="false"
   inkscape:zoom="0.57848045"
   inkscape:cx="215.22656"
   inkscape:cy="192.63885"
   inkscape:window-x="72"
   inkscape:window-y="27"
   inkscape:window-maximized="1"
   inkscape:current-layer="Calque_1"
   inkscape:document-rotation="0" />
<g
   id="g26"
   transform="translate(-744.77344,-188.92)">
	<g
   id="g24">
		<path
   d="M 976.2,680.5 C 966.06,661.42 957.13,642 945.88,624.03 923.6,588.42 899.97,553.65 877.19,518.36 c -1.49,-2.3 -1.29,-6.32 -0.63,-9.26 3.23,-14.36 7.5,-28.5 10.23,-42.94 3.63,-19.2 6.13,-38.62 9.23,-57.92 0.23,-1.43 1.37,-2.72 3.58,-3.61 -1.64,12.91 -2.62,25.94 -5.06,38.69 -3.82,19.98 -8.76,39.74 -12.81,59.68 -0.46,2.27 1.29,5.34 2.72,7.59 5.57,8.73 11.9,16.99 17.08,25.94 23.55,40.67 46.82,81.49 70.11,122.3 1.7,2.98 2.77,6.32 5.04,11.61 7.34,-10.96 14.06,-20.67 20.44,-30.58 10.06,-15.61 20.47,-31.03 29.7,-47.12 15.43,-26.89 30.07,-54.23 45.01,-81.39 2.95,-5.36 7.43,-10.54 8.25,-16.23 0.92,-6.31 -1.54,-13.12 -2.81,-21.67 -2.58,4.9 -4.42,8.23 -6.11,11.64 -2.94,5.91 -5.55,12 -8.84,17.71 -0.79,1.36 -3.72,1.48 -5.67,2.18 0.07,-1.79 -0.35,-3.78 0.27,-5.34 7.89,-19.69 5.5,-39.03 -1.81,-58.19 -0.86,-2.25 -2.44,-4.23 -5.1,-8.71 -6.69,15.1 -12.35,28.53 -18.58,41.69 -3.91,8.26 -8.63,16.13 -13.06,24.14 -2.15,3.9 -4.25,7.86 -6.82,11.47 -0.84,1.18 -3.09,1.37 -4.69,2.01 0.22,-1.54 0.19,-3.17 0.71,-4.6 4.91,-13.41 10.22,-26.69 14.82,-40.21 6.87,-20.16 9.89,-40.82 6.21,-62.08 -0.27,-1.56 -0.83,-3.08 0.33,-2.29 -7.71,6.43 -15.2,13.16 -23.24,19.16 -3.67,2.74 -8.4,4.05 -12.65,6.01 -0.48,-1.26 -1.74,-3.18 -1.32,-3.67 16.34,-19.34 21.57,-42.63 25.37,-66.85 1.31,-8.32 -1.19,-14.25 -5.83,-19.33 -12.19,-13.34 -25.02,-26.11 -37.93,-38.75 -1.72,-1.68 -5.42,-1.34 -9.07,-2.13 1.63,-0.93 2.57,-1.47 3.19,-1.83 -13.75,-8.12 -27.78,-16.14 -41.53,-24.6 -8.98,-5.53 -17.59,-11.66 -26.27,-17.65 -0.85,-0.59 -1.06,-2.11 -1.57,-3.2 1.22,0.11 2.77,-0.22 3.61,0.41 9.41,6.99 19.12,13.79 31,6.17 7.58,-4.86 14.78,-10.61 21.16,-16.96 5,-4.99 8.45,-11.52 12.64,-17.34 0.86,-1.19 1.93,-2.22 2.91,-3.32 0.15,1.61 0.78,3.35 0.37,4.8 -3.43,12.38 -7.18,24.67 -10.46,37.1 -0.4,1.51 0.94,4.54 2.34,5.31 21.95,12.09 47.61,8.32 68.39,-10.09 5.79,-5.13 10.94,-10.97 16.55,-16.31 0.94,-0.89 2.74,-0.87 4.14,-1.27 0.18,1.28 0.46,2.56 0.5,3.84 0.04,1.49 -0.11,2.99 -0.21,4.48 -0.1,1.45 0.29,3.3 -0.45,4.28 -10.9,14.54 -21.97,28.95 -32.97,43.42 -5.31,6.98 -10.62,13.97 -15.7,21.11 -0.7,0.98 -0.71,3.31 -0.01,4.31 12.78,18.51 26.13,36.63 38.5,55.41 14.03,21.3 22.66,45.08 31.31,69.01 5.86,16.22 9.02,32.63 11.77,49.38 0.55,3.33 3.29,6.25 4.29,9.58 0.59,1.95 0.43,4.75 -0.58,6.46 -9.55,16.22 -19.03,32.51 -29.21,48.34 -7.46,11.6 -16.27,22.33 -23.91,33.82 -14.92,22.44 -29.45,45.14 -44.11,67.75 -4.4,6.78 -8.68,13.63 -13.09,20.4 -0.35,0.54 -1.3,0.7 -0.66,0.38 z"
   id="path10" />
		<path
   d="m 752.91,345.47 c 3.27,-3.31 6.41,-6.77 9.82,-9.92 18.5,-17.08 36.88,-34.31 55.7,-51.04 11.93,-10.61 24.59,-20.4 36.86,-30.65 1.75,-1.46 2.85,-3.8 4.73,-4.95 1.38,-0.85 3.54,-0.43 5.35,-0.58 -0.49,1.42 -0.55,3.35 -1.54,4.17 -17.88,14.81 -36.21,29.1 -53.74,44.31 -17.4,15.11 -34,31.15 -50.98,46.75 -1.42,1.3 -3.09,2.33 -4.64,3.49 -0.52,-0.53 -1.04,-1.06 -1.56,-1.58 z"
   id="path12" />
		<path
   d="m 866.56,287.18 c -2.35,0.78 -4.7,1.57 -7.35,2.45 -0.65,4.29 -0.93,9.3 -2.3,13.99 -0.72,2.46 -2.93,5.46 -5.17,6.29 -5,1.84 -8.85,0.16 -8.41,-6.15 0.46,-6.51 0.38,-13.23 2.18,-19.38 0.63,-2.14 4.15,-7.76 9.84,-3.45 3.01,2.28 7.38,2.75 11.14,4.04 0.02,0.73 0.04,1.47 0.07,2.21 z"
   id="path14" />
		<path
   d="m 785.66,336.24 c -1.15,7.94 -2.26,16.01 -9.48,21.32 -1.9,1.4 -6.2,2.78 -6.84,2.02 -1.93,-2.29 -3.68,-5.74 -3.43,-8.55 0.22,-2.5 3.87,-7.03 4.88,-6.74 6.74,1.94 8.44,-3.5 11.53,-6.87 0.63,-0.68 0.78,-1.8 1.15,-2.72 0.73,0.51 1.46,1.03 2.19,1.54 z"
   id="path16" />
		<path
   d="m 893.55,250.08 c -1.47,-5.25 -2.03,-11.01 -4.6,-15.66 -4.84,-8.78 -10.36,-17.3 -16.51,-25.23 -4.7,-6.06 -10.86,-10.97 -16.18,-16.57 -0.63,-0.67 -0.11,-2.44 -0.12,-3.7 1.47,0.22 3.59,-0.11 4.31,0.74 8.54,10.19 17.59,20.06 25,31.04 4.77,7.06 7.19,15.75 10.32,23.84 0.6,1.54 -0.38,3.69 -0.63,5.57 -0.53,-0.02 -1.06,-0.03 -1.59,-0.03 z"
   id="path18" />
		<path
   d="m 745.68,367.93 c 7.21,15.62 17.62,20.26 36.89,16.58 3.82,-0.73 7.44,-2.5 11.24,-3.39 1.27,-0.3 2.83,0.65 4.25,1.02 -0.77,1.3 -1.3,3.46 -2.36,3.76 -14.84,4.22 -29.69,4.8 -44.22,-1.29 -4.92,-2.06 -8.45,-12.27 -5.8,-16.68 z"
   id="path20" />
		<path
   d="m 867.68,240.03 c -0.74,-7.06 -1.49,-14.12 -2.23,-21.18 0.7,-0.09 1.4,-0.19 2.1,-0.28 1.07,7.03 2.14,14.06 3.22,21.1 -1.04,0.12 -2.06,0.24 -3.09,0.36 z"
   id="path22" />
	</g>
</g>
<path
   style="fill:#ff6600;stroke:#000000;stroke-width:1.30909"
   d="m 263.00838,320.78432 c 0,-0.82262 3.51179,-10.98443 7.80398,-22.58181 12.72588,-34.38493 13.73659,-38.92754 13.76845,-61.88205 0.0152,-10.91776 -0.37968,-20.25955 -0.87743,-20.75955 -0.49776,-0.50001 -6.09412,3.37064 -12.43637,8.60143 -11.8213,9.74966 -21.15683,15.05219 -23.09258,13.11644 -0.60034,-0.60034 1.00451,-4.00905 3.56633,-7.57493 7.07292,-9.84499 12.28455,-22.0603 16.42797,-38.50486 5.66318,-22.47622 6.16467,-28.65904 2.87561,-35.45332 -3.73213,-7.70955 -41.98457,-46.84749 -45.78755,-46.84749 -1.55663,0 -2.83847,-0.73636 -2.84854,-1.63636 -0.0101,-0.9 -8.11006,-6.33587 -18,-12.079719 -19.83028,-11.516972 -47.94293,-29.744712 -49.32552,-31.981791 -1.5293,-2.474469 0.99899,-1.512579 8.37408,3.185925 5.76953,3.675634 8.43024,4.548311 13.86742,4.548311 5.93771,0 7.79026,-0.748385 15.76975,-6.370589 9.81518,-6.915589 19.63756,-16.886536 26.46151,-26.861737 2.38091,-3.4804 4.62229,-6.034634 4.98085,-5.676076 0.35856,0.358559 -1.76938,9.032216 -4.72876,19.274794 -2.95937,10.242577 -5.20076,20.175739 -4.98085,22.073693 0.82569,7.126315 21.20187,12.967932 36.7271,10.529241 13.85754,-2.176732 25.27627,-8.554739 39.39349,-22.003504 6.87683,-6.551201 13.12382,-11.911277 13.88219,-11.911277 0.75839,0 1.37887,2.412245 1.37887,5.360544 0,4.92875 -2.00351,8.018567 -24.87273,38.358631 -13.68,18.148944 -24.87273,33.942134 -24.87273,35.095964 0,1.15383 8.00176,13.49426 17.78169,27.42318 28.48038,40.56276 34.60978,51.83369 48.10478,88.45649 8.72431,23.67606 12.56484,38.06297 10.50869,39.36629 -0.79891,0.50639 -4.73251,7.47229 -8.74134,15.47975 -9.27238,18.52126 -14.34919,21.56866 -9.54902,5.73188 3.21911,-10.62049 3.67012,-20.86387 1.46977,-33.38182 -2.18432,-12.42678 -9.06466,-29.47324 -11.05476,-27.38884 -0.63384,0.66385 -4.52044,8.8652 -8.63689,18.2252 -9.37542,21.31786 -15.72534,34.00686 -24.18694,48.33267 -6.08639,10.30447 -9.15052,13.56442 -9.15052,9.73529 z"
   id="path922" /><path
   style="fill:#ff6600;stroke:#000000;stroke-width:0.495129"
   d="m 148.87832,60.563293 c -0.11963,-0.340401 -0.80587,-3.069797 -1.52498,-6.065325 -1.50963,-6.288475 -3.66189,-10.773902 -9.74076,-20.300273 -6.60332,-10.348251 -11.02149,-15.873547 -18.80607,-23.518608 -6.5001,-6.3836033 -7.31033,-7.3610383 -7.30989,-8.8184216 4.8e-4,-1.59056621 0.0553,-1.63451031 1.85292,-1.48538585 1.68763,0.14000033 2.30837,0.68222515 6.97786,6.09521395 7.38392,8.5596175 16.39635,19.8215445 19.25809,24.0648695 3.44993,5.115497 4.78221,7.892769 8.39742,17.505242 3.1386,8.345199 3.25057,8.939804 2.31147,12.275124 -0.28299,1.005081 -1.09968,1.147857 -1.41606,0.247564 z"
   id="path924" /><path
   style="fill:#ff6600;stroke:#000000;stroke-width:0.495129"
   d="m 122.20773,42.491099 c -0.46099,-4.561372 -0.96809,-9.240337 -1.12689,-10.3977 -0.25177,-1.83505 -0.16901,-2.104297 0.64682,-2.104297 0.83546,0 1.08798,1.018591 2.36067,9.522258 0.78383,5.237242 1.52817,9.916207 1.65408,10.397701 0.18077,0.691276 -0.0788,0.875442 -1.23379,0.875442 h -1.46272 z"
   id="path926" /><path
   style="fill:#ff6600;stroke:#000000;stroke-width:0.495129"
   d="M 9.0781021,157.07707 C 8.3667495,156.21995 16.95968,147.69826 39.208342,127.19665 70.603184,98.267043 77.619493,92.101944 99.118903,74.554364 105.24612,69.553398 111.48964,64.1646 112.9934,62.579258 c 2.56991,-2.709344 2.8726,-2.88244 5.0405,-2.88244 h 2.30641 l -0.46057,1.605899 c -0.25331,0.883245 -0.46056,1.641392 -0.46056,1.684771 0,0.04338 -6.51713,5.386406 -14.48252,11.873393 -38.555947,31.399869 -42.046317,34.432199 -76.868711,66.781289 -12.661844,11.76251 -17.55869,16.09011 -18.2066016,16.09011 -0.1317082,0 -0.4841686,-0.29484 -0.7832453,-0.65521 z"
   id="path928" /><path
   style="fill:#ff6600;stroke:#000000;stroke-width:0.495129"
   d="m 101.01575,120.83058 c -2.210376,-1.20039 -2.521726,-3.15494 -1.905764,-11.96376 0.879089,-12.571779 2.085694,-16.24988 5.846224,-17.82113 1.64965,-0.689271 1.85205,-0.644307 5.73463,1.273957 2.21354,1.093644 5.52857,2.379989 7.36673,2.858545 2.854,0.743023 3.34212,1.029736 3.34212,1.963118 0,0.915871 -0.57683,1.285293 -3.5591,2.279385 l -3.5591,1.186365 -0.88203,6.15804 c -0.48512,3.38692 -1.25038,7.1284 -1.70058,8.31439 -1.97554,5.20426 -6.85408,7.83054 -10.68313,5.75109 z"
   id="path930" /><path
   style="fill:#ff6600;stroke:#000000;stroke-width:0.495129"
   d="m 22.907743,167.55577 c -1.891725,-3.78568 -1.948344,-5.98044 -0.221717,-8.59451 1.866251,-2.82546 2.52722,-3.20949 5.523905,-3.20949 1.907651,0 3.086889,-0.29264 4.107334,-1.01926 1.50711,-1.07316 5.504765,-6.046 6.04668,-7.52171 0.379749,-1.03411 1.01711,-1.10886 1.765534,-0.20707 0.575157,0.69302 -0.30732,7.08343 -1.47812,10.70373 -1.721281,5.32247 -5.087798,9.6926 -8.94885,11.61664 -4.125387,2.05577 -4.997222,1.82887 -6.794766,-1.76833 z"
   id="path932" /><path
   style="fill:#ff6600;stroke:#000000;stroke-width:0.495129"
   d="m 19.130681,199.12434 c -8.626715,-1.64036 -13.814651,-3.84055 -15.7954021,-6.69877 -2.33880518,-3.3749 -3.70127095,-8.91361 -2.91511962,-11.85058 0.28611848,-1.06891 0.4474544,-0.93677 1.84997142,1.51517 6.0855992,10.63912 12.9180203,14.76062 24.4605853,14.75529 5.638459,-0.003 12.155069,-1.0937 17.645575,-2.95444 4.844101,-1.64168 5.535261,-1.73556 7.441521,-1.0108 1.2578,0.47822 1.268831,0.52207 0.503645,2.00179 -0.90761,1.75512 -1.859263,2.17999 -7.914264,3.5333 -5.77972,1.29178 -20.099355,1.69347 -25.276512,0.70904 z"
   id="path934" /><path
   style="fill:#ff6600;stroke:#000000;stroke-width:0.495129"
   d="m 152.63188,233.19813 c 0.0238,-0.57679 0.14108,-0.69412 0.29914,-0.29914 0.14303,0.35742 0.12544,0.78447 -0.0391,0.949 -0.16452,0.16453 -0.28155,-0.12791 -0.26005,-0.64986 z"
   id="path936" /><path
   style="fill:#ff6600;stroke:#000000;stroke-width:0.495129"
   d="m 226.38469,481.4226 c -20.64076,-40.33955 -21.43524,-41.65607 -67.60255,-112.02284 -24.88286,-37.92567 -26.46929,-40.41925 -27.02277,-42.47468 -0.71506,-2.65556 -0.25777,-5.10429 4.52224,-24.21605 5.73494,-22.92987 6.93879,-29.29731 12.56419,-66.45519 2.51096,-16.58588 2.77626,-17.86532 3.94713,-19.03619 0.69038,-0.69039 1.37208,-1.1384 1.51489,-0.99559 0.14281,0.14281 -0.0795,2.9989 -0.49396,6.34687 -0.41449,3.34797 -0.8443,7.34126 -0.95513,8.87397 -0.72425,10.01546 -3.25733,23.79215 -10.16242,55.27038 -6.43584,29.33909 -6.21363,28.10526 -5.49427,30.50625 0.32629,1.08908 4.2711,7.44388 8.76624,14.12181 8.94669,13.29109 12.86852,19.96355 53.79937,91.53231 16.25191,28.41692 28.60984,50.5742 29.82435,53.47389 1.1406,2.7232 2.20549,4.95128 2.36643,4.95128 0.6726,0 26.16969,-38.54285 39.95992,-60.40569 8.67142,-13.74753 17.3716,-29.08212 40.59214,-71.54608 7.96685,-14.56916 15.78571,-28.6133 17.37524,-31.2092 4.97957,-8.13225 5.65225,-9.94189 5.60754,-15.08532 -0.0243,-2.79312 -0.55879,-7.00737 -1.43223,-11.2922 l -1.39349,-6.83604 -1.81091,3.12258 c -0.99601,1.71741 -4.43143,8.26927 -7.63428,14.55968 -5.20139,10.21557 -6.00642,11.52441 -7.5373,12.25444 -0.94267,0.44952 -2.152,0.81732 -2.6874,0.81732 -1.48659,0 -1.26502,-3.00455 0.70327,-9.53681 2.4263,-8.05221 3.01351,-12.04996 2.99915,-20.41848 -0.0133,-7.76735 -0.50933,-11.6812 -2.48749,-19.62816 -2.16607,-8.70186 -6.32109,-19.01815 -8.33197,-20.68703 -0.88318,-0.73298 -0.90078,-0.69837 -9.79864,19.27223 -9.31988,20.91779 -16.12593,34.29178 -25.55804,50.22193 -3.52243,5.94913 -5.08492,7.70812 -6.84708,7.70812 -0.96644,0 -1.16552,-0.2552 -1.16552,-1.49405 0,-0.82173 3.25607,-10.45817 7.23571,-21.41431 10.36352,-28.53126 12.30059,-34.88617 13.61811,-44.6767 0.72449,-5.38368 0.82595,-36.77461 0.12291,-38.03086 -0.42906,-0.7667 -0.6766,-0.71369 -2.72076,0.58268 -1.23681,0.78436 -4.56923,3.30534 -7.40537,5.60217 -12.3579,10.00799 -16.4376,12.68308 -22.54948,14.78588 l -2.54345,0.87507 -0.55332,-1.21443 c -0.30434,-0.66793 -0.55334,-1.3852 -0.55334,-1.59392 0,-0.20873 1.90427,-3.23092 4.23171,-6.71599 7.84567,-11.748 12.28566,-22.30262 16.57428,-39.40001 2.75873,-10.99821 4.02817,-17.95434 4.29193,-23.51861 0.22554,-4.75809 0.1242,-5.80012 -0.80187,-8.24515 -1.88982,-4.98954 -8.39792,-12.68809 -24.78383,-29.31725 -16.14864,-16.38838 -20.73959,-20.10374 -24.85833,-20.11732 -1.01783,-0.003 -1.62669,-0.83187 -0.81112,-1.10373 1.65497,-0.55166 -2.16066,-3.13483 -23.57667,-15.961315 -22.87953,-13.703014 -41.91616,-26.319119 -43.20057,-28.630223 -0.87935,-1.582264 -0.79384,-1.839838 0.61076,-1.839838 0.69057,0 3.40356,1.36694 6.02886,3.037644 2.62529,1.670705 6.23792,3.72649 8.02807,4.568412 2.95447,1.389519 3.71396,1.531831 8.23094,1.542295 4.75657,0.01102 5.13889,-0.06942 8.66475,-1.823035 9.33654,-4.64361 23.49475,-17.566348 31.62289,-28.86341 5.30506,-7.37336 6.45319,-8.738007 7.04426,-8.372705 0.88481,0.546838 0.34132,3.821192 -2.09689,12.633299 -4.36221,15.765706 -6.8874,26.1837 -6.8874,28.414839 0,2.904897 1.59256,4.713829 6.10172,6.93075 8.14549,4.004719 20.93014,5.682799 30.51844,4.005784 14.70605,-2.572124 23.93665,-8.060823 42.10529,-25.036633 8.02244,-7.49574 9.20083,-8.425198 10.6817,-8.425198 0.97298,0 1.19002,0.328808 1.47604,2.236093 0.18442,1.229851 0.17948,3.899125 -0.011,5.93172 l -0.3463,3.695628 -17.36081,23.157084 c -17.43672,23.258359 -29.32537,39.626139 -30.91018,42.555809 l -0.85151,1.5741 3.18826,5.24589 c 1.75354,2.88525 7.94835,12.09186 13.76624,20.45913 28.04386,40.33262 33.5505,49.96166 44.37743,77.59944 11.08864,28.30584 14.73638,40.92109 19.32378,66.82893 1.11495,6.29684 1.62325,8.01215 3.3746,11.38796 1.61943,3.12155 2.06191,4.50914 2.06191,6.46603 0,2.87203 -0.019,2.9075 -14.26529,26.69469 -12.29958,20.53669 -17.92406,29.18411 -27.98923,43.0324 -10.68,14.69422 -31.3939,46.08531 -64.16472,97.2391 -2.66049,4.15289 -4.88187,7.55071 -4.9364,7.55071 -0.0545,0 -2.40777,-4.51186 -5.2294,-10.02636 z m 41.65618,-165.03589 c 7.2195,-10.75231 17.31551,-30.24711 27.40176,-52.91117 6.58961,-14.80701 8.9867,-19.59088 9.81656,-19.59088 2.77426,0 8.98886,15.45017 11.23737,27.93737 2.14094,11.88974 1.78112,21.22883 -1.26535,32.84214 -0.94689,3.60962 -1.72162,7.37618 -1.72162,8.37014 v 1.80722 l 1.06547,-0.94322 c 1.76466,-1.56216 5.15273,-7.12071 10.03598,-16.46525 2.54392,-4.86801 5.43153,-10.11127 6.41693,-11.65169 1.12164,-1.75341 1.78889,-3.39895 1.78431,-4.40034 -0.036,-7.86178 -15.48301,-51.136 -25.49127,-71.41268 -7.0553,-14.29402 -12.94602,-23.77685 -30.43909,-49.00064 -10.00445,-14.42573 -18.4445,-27.10249 -20.05858,-30.12753 l -0.98427,-1.8447 1.12225,-2.09462 c 1.77946,-3.32128 9.01802,-13.42396 25.26682,-35.264311 16.70648,-22.455527 21.05645,-28.629792 22.43284,-31.840789 0.97828,-2.282237 1.24916,-7.239691 0.46342,-8.481303 -0.57369,-0.906539 -1.97161,0.13893 -9.74631,7.289005 -15.1855,13.965479 -20.98338,18.168763 -30.40059,22.039489 -7.87854,3.2383 -12.08631,4.031996 -21.28105,4.014166 -6.5403,-0.01268 -9.07535,-0.226026 -12.71105,-1.06975 -6.45611,-1.498244 -11.76131,-3.829879 -14.34335,-6.303912 -1.98025,-1.897412 -2.1573,-2.268803 -2.14747,-4.504638 0.014,-3.176004 1.21102,-8.490865 5.39165,-23.938761 3.81977,-14.114472 4.13149,-15.385054 3.77449,-15.385054 -0.1372,0 -2.14712,2.564646 -4.4665,5.699213 -2.31937,3.134567 -6.0097,7.698589 -8.20072,10.14227 -6.9507,7.752218 -18.37612,17.01123 -25.20576,20.426425 -2.96687,1.483599 -3.55495,1.598577 -8.16962,1.59728 -6.22827,-0.0017 -8.18939,-0.653182 -15.622,-5.189213 -5.59622,-3.415306 -7.09131,-4.111035 -5.99456,-2.789533 1.76676,2.128812 24.96839,17.176557 44.61871,28.938089 15.47387,9.261757 20.48154,12.584697 21.94197,14.560037 0.5816,0.78666 1.49118,1.37985 2.11582,1.37985 2.04828,0 7.35928,4.6108 20.77672,18.03754 18.4405,18.45328 25.66077,26.99896 27.23721,32.23708 1.66016,5.5163 0.45243,15.39586 -3.99246,32.65942 -3.47037,13.47864 -8.41922,26.22458 -12.90791,33.24485 -5.60056,8.7592 -7.14388,11.33323 -7.14388,11.91494 0,1.7686 5.23223,-0.26382 11.35917,-4.4124 2.05824,-1.39364 6.28529,-4.53926 9.39344,-6.99026 8.13006,-6.41113 12.88898,-9.74339 13.91491,-9.74339 0.65535,0 0.96759,0.49671 1.16718,1.85673 0.63901,4.35441 0.84622,21.86098 0.35762,30.21485 -0.87096,14.89131 -2.10794,19.58727 -13.39192,50.83993 -4.03573,11.17754 -7.49818,21.07333 -7.69434,21.99064 -0.59469,2.78097 0.68561,1.68118 4.28707,-3.68264 z"
   id="path938" /></svg>
