<?xml version="1.0" encoding="UTF-8" standalone="no"?>
<svg
   xmlns:dc="http://purl.org/dc/elements/1.1/"
   xmlns:cc="http://creativecommons.org/ns#"
   xmlns:rdf="http://www.w3.org/1999/02/22-rdf-syntax-ns#"
   xmlns:svg="http://www.w3.org/2000/svg"
   xmlns="http://www.w3.org/2000/svg"
   xmlns:sodipodi="http://sodipodi.sourceforge.net/DTD/sodipodi-0.dtd"
   xmlns:inkscape="http://www.inkscape.org/namespaces/inkscape"
   version="1.1"
   id="Calque_1"
   x="0px"
   y="0px"
   viewBox="0 0 343.3288 491.7439"
   xml:space="preserve"
   sodipodi:docname="logo-blanc.svg"
   inkscape:version="1.0.2 (1.0.2+r75+1)"
   width="343.3288"
   height="491.7439"><metadata
   id="metadata33"><rdf:RDF><cc:Work
       rdf:about=""><dc:format>image/svg+xml</dc:format><dc:type
         rdf:resource="http://purl.org/dc/dcmitype/StillImage" /><dc:title /></cc:Work></rdf:RDF></metadata><defs
   id="defs31" /><sodipodi:namedview
   pagecolor="#ffffff"
   bordercolor="#666666"
   borderopacity="1"
   objecttolerance="10"
   gridtolerance="10"
   guidetolerance="10"
   inkscape:pageopacity="0"
   inkscape:pageshadow="2"
   inkscape:window-width="1848"
   inkscape:window-height="1016"
   id="namedview29"
   showgrid="false"
   inkscape:zoom="0.96844913"
   inkscape:cx="215.22656"
   inkscape:cy="226.81945"
   inkscape:window-x="72"
   inkscape:window-y="27"
   inkscape:window-maximized="1"
   inkscape:current-layer="Calque_1"
   inkscape:document-rotation="0" />
<g
   id="g26"
   transform="translate(-744.77344,-188.92)">
	<g
   id="g24">
		<path
   d="M 976.2,680.5 C 966.06,661.42 957.13,642 945.88,624.03 923.6,588.42 899.97,553.65 877.19,518.36 c -1.49,-2.3 -1.29,-6.32 -0.63,-9.26 3.23,-14.36 7.5,-28.5 10.23,-42.94 3.63,-19.2 6.13,-38.62 9.23,-57.92 0.23,-1.43 1.37,-2.72 3.58,-3.61 -1.64,12.91 -2.62,25.94 -5.06,38.69 -3.82,19.98 -8.76,39.74 -12.81,59.68 -0.46,2.27 1.29,5.34 2.72,7.59 5.57,8.73 11.9,16.99 17.08,25.94 23.55,40.67 46.82,81.49 70.11,122.3 1.7,2.98 2.77,6.32 5.04,11.61 7.34,-10.96 14.06,-20.67 20.44,-30.58 10.06,-15.61 20.47,-31.03 29.7,-47.12 15.43,-26.89 30.07,-54.23 45.01,-81.39 2.95,-5.36 7.43,-10.54 8.25,-16.23 0.92,-6.31 -1.54,-13.12 -2.81,-21.67 -2.58,4.9 -4.42,8.23 -6.11,11.64 -2.94,5.91 -5.55,12 -8.84,17.71 -0.79,1.36 -3.72,1.48 -5.67,2.18 0.07,-1.79 -0.35,-3.78 0.27,-5.34 7.89,-19.69 5.5,-39.03 -1.81,-58.19 -0.86,-2.25 -2.44,-4.23 -5.1,-8.71 -6.69,15.1 -12.35,28.53 -18.58,41.69 -3.91,8.26 -8.63,16.13 -13.06,24.14 -2.15,3.9 -4.25,7.86 -6.82,11.47 -0.84,1.18 -3.09,1.37 -4.69,2.01 0.22,-1.54 0.19,-3.17 0.71,-4.6 4.91,-13.41 10.22,-26.69 14.82,-40.21 6.87,-20.16 9.89,-40.82 6.21,-62.08 -0.27,-1.56 -0.83,-3.08 0.33,-2.29 -7.71,6.43 -15.2,13.16 -23.24,19.16 -3.67,2.74 -8.4,4.05 -12.65,6.01 -0.48,-1.26 -1.74,-3.18 -1.32,-3.67 16.34,-19.34 21.57,-42.63 25.37,-66.85 1.31,-8.32 -1.19,-14.25 -5.83,-19.33 -12.19,-13.34 -25.02,-26.11 -37.93,-38.75 -1.72,-1.68 -5.42,-1.34 -9.07,-2.13 1.63,-0.93 2.57,-1.47 3.19,-1.83 -13.75,-8.12 -27.78,-16.14 -41.53,-24.6 -8.98,-5.53 -17.59,-11.66 -26.27,-17.65 -0.85,-0.59 -1.06,-2.11 -1.57,-3.2 1.22,0.11 2.77,-0.22 3.61,0.41 9.41,6.99 19.12,13.79 31,6.17 7.58,-4.86 14.78,-10.61 21.16,-16.96 5,-4.99 8.45,-11.52 12.64,-17.34 0.86,-1.19 1.93,-2.22 2.91,-3.32 0.15,1.61 0.78,3.35 0.37,4.8 -3.43,12.38 -7.18,24.67 -10.46,37.1 -0.4,1.51 0.94,4.54 2.34,5.31 21.95,12.09 47.61,8.32 68.39,-10.09 5.79,-5.13 10.94,-10.97 16.55,-16.31 0.94,-0.89 2.74,-0.87 4.14,-1.27 0.18,1.28 0.46,2.56 0.5,3.84 0.04,1.49 -0.11,2.99 -0.21,4.48 -0.1,1.45 0.29,3.3 -0.45,4.28 -10.9,14.54 -21.97,28.95 -32.97,43.42 -5.31,6.98 -10.62,13.97 -15.7,21.11 -0.7,0.98 -0.71,3.31 -0.01,4.31 12.78,18.51 26.13,36.63 38.5,55.41 14.03,21.3 22.66,45.08 31.31,69.01 5.86,16.22 9.02,32.63 11.77,49.38 0.55,3.33 3.29,6.25 4.29,9.58 0.59,1.95 0.43,4.75 -0.58,6.46 -9.55,16.22 -19.03,32.51 -29.21,48.34 -7.46,11.6 -16.27,22.33 -23.91,33.82 -14.92,22.44 -29.45,45.14 -44.11,67.75 -4.4,6.78 -8.68,13.63 -13.09,20.4 -0.35,0.54 -1.3,0.7 -0.66,0.38 z"
   id="path10" />
		<path
   d="m 752.91,345.47 c 3.27,-3.31 6.41,-6.77 9.82,-9.92 18.5,-17.08 36.88,-34.31 55.7,-51.04 11.93,-10.61 24.59,-20.4 36.86,-30.65 1.75,-1.46 2.85,-3.8 4.73,-4.95 1.38,-0.85 3.54,-0.43 5.35,-0.58 -0.49,1.42 -0.55,3.35 -1.54,4.17 -17.88,14.81 -36.21,29.1 -53.74,44.31 -17.4,15.11 -34,31.15 -50.98,46.75 -1.42,1.3 -3.09,2.33 -4.64,3.49 -0.52,-0.53 -1.04,-1.06 -1.56,-1.58 z"
   id="path12" />
		<path
   d="m 866.56,287.18 c -2.35,0.78 -4.7,1.57 -7.35,2.45 -0.65,4.29 -0.93,9.3 -2.3,13.99 -0.72,2.46 -2.93,5.46 -5.17,6.29 -5,1.84 -8.85,0.16 -8.41,-6.15 0.46,-6.51 0.38,-13.23 2.18,-19.38 0.63,-2.14 4.15,-7.76 9.84,-3.45 3.01,2.28 7.38,2.75 11.14,4.04 0.02,0.73 0.04,1.47 0.07,2.21 z"
   id="path14" />
		<path
   d="m 785.66,336.24 c -1.15,7.94 -2.26,16.01 -9.48,21.32 -1.9,1.4 -6.2,2.78 -6.84,2.02 -1.93,-2.29 -3.68,-5.74 -3.43,-8.55 0.22,-2.5 3.87,-7.03 4.88,-6.74 6.74,1.94 8.44,-3.5 11.53,-6.87 0.63,-0.68 0.78,-1.8 1.15,-2.72 0.73,0.51 1.46,1.03 2.19,1.54 z"
   id="path16" />
		<path
   d="m 893.55,250.08 c -1.47,-5.25 -2.03,-11.01 -4.6,-15.66 -4.84,-8.78 -10.36,-17.3 -16.51,-25.23 -4.7,-6.06 -10.86,-10.97 -16.18,-16.57 -0.63,-0.67 -0.11,-2.44 -0.12,-3.7 1.47,0.22 3.59,-0.11 4.31,0.74 8.54,10.19 17.59,20.06 25,31.04 4.77,7.06 7.19,15.75 10.32,23.84 0.6,1.54 -0.38,3.69 -0.63,5.57 -0.53,-0.02 -1.06,-0.03 -1.59,-0.03 z"
   id="path18" />
		<path
   d="m 745.68,367.93 c 7.21,15.62 17.62,20.26 36.89,16.58 3.82,-0.73 7.44,-2.5 11.24,-3.39 1.27,-0.3 2.83,0.65 4.25,1.02 -0.77,1.3 -1.3,3.46 -2.36,3.76 -14.84,4.22 -29.69,4.8 -44.22,-1.29 -4.92,-2.06 -8.45,-12.27 -5.8,-16.68 z"
   id="path20" />
		<path
   d="m 867.68,240.03 c -0.74,-7.06 -1.49,-14.12 -2.23,-21.18 0.7,-0.09 1.4,-0.19 2.1,-0.28 1.07,7.03 2.14,14.06 3.22,21.1 -1.04,0.12 -2.06,0.24 -3.09,0.36 z"
   id="path22" />
	</g>
</g>
<path
   style="fill:#ffffff;stroke:#000000;stroke-width:0.931977"
   d="m 230.59853,489.1749 c -0.003,-0.38444 -5.1614,-10.55464 -11.46286,-22.60044 -13.02776,-24.90372 -19.13676,-34.88149 -53.6376,-87.60583 -13.58444,-20.75979 -26.72048,-40.83945 -29.19121,-44.62148 -2.68641,-4.11217 -4.49223,-7.93515 -4.49223,-9.51017 0,-1.44858 2.11548,-11.14557 4.70106,-21.54889 4.70693,-18.93869 8.0738,-36.77568 12.5422,-66.44594 2.2457,-14.91153 3.66502,-20.87535 4.7176,-19.82277 0.7696,0.7696 -3.1467,30.35694 -5.64836,42.6729 -1.29962,6.39816 -4.50338,21.36471 -7.11947,33.259 -2.79842,12.72323 -4.51874,22.57348 -4.17888,23.92758 0.31772,1.26588 4.42049,8.10008 9.11727,15.18711 9.79375,14.77789 10.81744,16.51616 50.6737,86.04569 16.30753,28.44859 30.83916,54.3459 32.29251,57.54957 1.45335,3.20367 2.95282,5.82096 3.33216,5.8162 0.73816,-0.009 23.04604,-33.61104 37.13764,-55.93937 10.7272,-16.99746 18.2649,-30.12168 38.5222,-67.07292 8.8519,-16.1465 18.6194,-33.6697 21.7057,-38.94044 3.7918,-6.47566 5.7622,-10.92089 6.0764,-13.70855 0.5406,-4.79583 -2.3964,-22.45493 -3.5417,-21.29514 -0.4258,0.43116 -3.9905,7.21 -7.9217,15.06408 -4.8909,9.77169 -7.7775,14.51683 -9.1431,15.02983 -2.9145,1.09483 -3.0152,-0.91641 -0.4596,-9.17724 3.1124,-10.06106 3.1458,-29.52769 0.07,-41.10221 -2.1365,-8.04096 -7.3512,-19.65138 -9.076,-20.20765 -0.5202,-0.16774 -5.0588,9.0285 -10.0859,20.43607 -8.7248,19.7986 -24.8792,50.6578 -29.0677,55.52724 -1.085,1.2613 -2.437,2.12849 -3.0046,1.92709 -1.0994,-0.39004 -0.7242,-1.55544 8.6679,-26.92752 11.2267,-30.32827 13.9719,-43.75086 13.2601,-64.83531 -0.2435,-7.21083 -0.8301,-13.80295 -1.3037,-14.64917 -0.7275,-1.3001 -2.5913,-0.0937 -12.0242,7.78336 -11.4223,9.53838 -22.17138,15.86478 -23.94387,14.09229 -0.63619,-0.63618 0.42057,-2.86528 3.24705,-6.84927 8.87242,-12.50589 14.67272,-27.18281 18.90822,-47.84511 3.2153,-15.68505 3.327,-22.84646 0.4435,-28.4253 -1.3394,-2.59117 -10.0405,-12.12178 -22.76848,-24.93888 -18.75928,-18.89065 -20.88166,-20.74423 -23.74376,-20.73649 -2.55844,0.007 -2.94564,-0.22936 -2.08173,-1.2703 0.86092,-1.03734 -2.50492,-3.36267 -17.82644,-12.31557 -18.6164,-10.87822 -48.48378,-30.19686 -49.68138,-32.13462 -1.44897,-2.34449 0.70699,-1.63558 6.68949,2.19958 7.42879,4.76231 11.32155,6.25033 16.35134,6.25033 5.18989,0 9.05695,-1.89412 18.76655,-9.19201 10.21844,-7.68035 15.37059,-13.02334 21.91641,-22.7282 2.67944,-3.97255 5.32319,-7.22282 5.87499,-7.22282 0.55181,0 0.81569,0.52424 0.58641,1.16497 -0.22929,0.64074 -2.84373,9.85968 -5.80987,20.48654 -5.2199,18.70144 -5.3424,19.39878 -3.81667,21.72732 3.00831,4.59127 16.53245,8.81188 28.23598,8.81188 13.08426,0 27.13556,-4.94089 37.99266,-13.35949 2.0503,-1.58985 8.0155,-7.02469 13.2559,-12.07744 5.2404,-5.05274 9.9585,-8.92073 10.4847,-8.59552 0.5262,0.32521 0.9568,2.81163 0.9568,5.52537 v 4.93409 l -22.6005,29.77785 c -29.06634,38.29718 -28.2529,37.09903 -27.022,39.80054 0.542,1.18948 7.1782,10.93134 14.7473,21.64858 29.3779,41.59724 36.5208,54.15499 48.1912,84.72425 8.794,23.03488 12.5131,35.39713 15.7014,52.1907 1.557,8.2014 3.6891,17.00858 4.738,19.57152 3.6388,8.8914 3.5372,9.41622 -4.4588,23.05107 -13.6151,23.21665 -23.9454,39.38453 -35.2917,55.23499 -11.1778,15.61489 -25.6129,37.39079 -53.59436,80.849 -12.60374,19.57496 -15.88566,23.99769 -15.90637,21.43547 z"
   id="path53" /><path
   style="fill:#ffffff;stroke:#000000;stroke-width:0.931977"
   d="m 100.31381,119.69265 c -1.380463,-1.38046 -1.439613,-10.32743 -0.12199,-18.45315 1.41761,-8.7424 5.12743,-12.16341 9.74697,-8.98816 1.01108,0.69497 4.04338,1.98792 6.73844,2.87323 5.27742,1.7336 5.58715,2.81213 1.09117,3.79961 -3.21253,0.70559 -4.02377,2.28365 -4.97827,9.68389 -1.07809,8.35848 -3.96173,12.20295 -9.15314,12.20295 -1.21264,0 -2.70808,-0.50327 -3.32318,-1.11837 z"
   id="path55" /><path
   style="fill:#ffffff;stroke:#000000;stroke-width:0.284461"
   d="m 24.129047,169.82857 c -1.4674,-1.92433 -2.55754,-4.55809 -2.69775,-6.51771 -0.11396,-1.59268 -0.0283,-2.06979 0.59118,-3.29224 0.39844,-0.7863 1.29565,-2.06038 1.9938,-2.83131 l 1.26936,-1.40167 h 2.68412 c 2.49119,0 2.78433,-0.0619 4.07803,-0.8612 1.60001,-0.98852 5.81289,-6.2203 6.37125,-7.91214 l 0.34218,-1.03682 0.97417,0.74304 c 0.5358,0.40867 0.97418,0.80963 0.97418,0.89102 0,0.86893 -1.30736,7.41733 -1.86505,9.3418 -1.34867,4.65396 -4.02229,8.91461 -6.93641,11.05377 -1.72374,1.26534 -4.25177,2.39779 -5.83808,2.61522 -1.12432,0.15411 -1.26278,0.0976 -1.94098,-0.79176 z"
   id="path57" /><path
   style="fill:#ffffff;stroke:#000000;stroke-width:0.284461"
   d="m 22.788507,199.70494 c -4.59975,-0.51877 -11.7192,-2.33051 -15.4611698,-3.9345 -2.72486,-1.16801 -5.08203,-4.18808 -6.32426,-8.10283 -0.81363005,-2.56409 -1.01189005,-5.98493 -0.42947005,-7.41053 l 0.34546,-0.84561 1.01079005,1.98346 c 3.18977,6.2592 7.70729,10.95319 12.7356798,13.23317 3.73896,1.69533 6.20738,2.11091 12.38988,2.08596 6.86235,-0.0277 10.15721,-0.56949 17.04263,-2.80249 2.66711,-0.86496 5.14911,-1.57266 5.51557,-1.57266 0.61354,0 3.32778,0.80437 3.32778,0.9862 0,0.39357 -1.22997,2.70699 -1.63326,3.07197 -0.51055,0.46204 -4.12488,1.46435 -8.39578,2.32828 -5.80468,1.17419 -14.60156,1.6024 -20.12385,0.97958 z"
   id="path59" /><path
   style="fill:#ffffff;stroke:#000000;stroke-width:0.284461"
   d="m 9.1150772,157.18741 -0.65066,-0.69259 2.5082498,-2.63028 c 3.71767,-3.89853 5.3334,-5.4352 19.63912,-18.67822 40.28062,-37.28834 45.81367,-42.17315 71.397123,-63.0323 6.30399,-5.13988 9.56987,-8.0034 10.70622,-9.38722 2.10319,-2.5612 2.93934,-3.04422 5.5611,-3.21248 l 2.08324,-0.13369 -0.18117,0.96193 c -0.51159,2.71632 0.97503,1.35842 -21.296403,19.45256 -28.18681,22.90001 -38.64361,31.89528 -57.88787,49.79698 -23.40928,21.77614 -27.56159,25.58097 -29.28552,26.83486 l -1.9427698,1.41305 z"
   id="path61" /><path
   style="fill:#ffffff;stroke:#000000;stroke-width:0.284461"
   d="m 121.97369,40.80104 c -0.58261,-5.5981 -1.05631,-10.33837 -1.05267,-10.53394 0.004,-0.20178 0.36596,-0.35558 0.83741,-0.35558 0.67702,0 0.86104,0.14478 0.9943,0.78227 0.34165,1.63442 3.04608,19.75785 2.95943,19.83235 -0.05,0.043 -0.67327,0.16256 -1.38504,0.26571 l -1.29415,0.18756 z"
   id="path63" /><path
   style="fill:#ffffff;stroke:#000000;stroke-width:0.284461"
   d="m 147.95596,57.00646 c -1.29099,-5.62401 -1.96435,-7.91391 -2.99041,-10.16949 -2.18122,-4.79499 -9.64866,-16.62342 -15.35443,-24.32144 -2.53449,-3.41944 -4.36506,-5.41818 -10.70619,-11.68971 -4.71932,-4.66753 -7.64777,-7.77267 -7.64584,-8.10715 0.002,-0.29817 0.0776,-0.99206 0.1686,-1.54199 l 0.16547,-0.99986 1.80381,0.15136 c 0.99209,0.0833 1.86253,0.21317 1.93431,0.28871 1.20567,1.26891 13.53916,15.946 16.51267,19.65039 9.78212,12.18656 11.77502,15.69397 16.95553,29.84099 l 2.34376,6.40038 -0.35664,1.849 c -0.47747,2.47541 -0.51972,2.56015 -1.27655,2.56015 -0.61,0 -0.71951,-0.27562 -1.55409,-3.91134 z"
   id="path65" /></svg>
