<?xml version="1.0" encoding="UTF-8" standalone="no"?>
<svg
   xmlns:dc="http://purl.org/dc/elements/1.1/"
   xmlns:cc="http://creativecommons.org/ns#"
   xmlns:rdf="http://www.w3.org/1999/02/22-rdf-syntax-ns#"
   xmlns:svg="http://www.w3.org/2000/svg"
   xmlns="http://www.w3.org/2000/svg"
   xmlns:sodipodi="http://sodipodi.sourceforge.net/DTD/sodipodi-0.dtd"
   xmlns:inkscape="http://www.inkscape.org/namespaces/inkscape"
   version="1.1"
   id="Layer_1"
   x="0px"
   y="0px"
   viewBox="0 0 206.622 206.622"
   style="enable-background:new 0 0 206.622 206.622;"
   xml:space="preserve"
   sodipodi:docname="moon.svg"
   inkscape:version="1.0.2 (1.0.2+r75+1)"><metadata
   id="metadata326"><rdf:RDF><cc:Work
       rdf:about=""><dc:format>image/svg+xml</dc:format><dc:type
         rdf:resource="http://purl.org/dc/dcmitype/StillImage" /><dc:title></dc:title></cc:Work></rdf:RDF></metadata><defs
   id="defs324" /><sodipodi:namedview
   pagecolor="#ffffff"
   bordercolor="#666666"
   borderopacity="1"
   objecttolerance="10"
   gridtolerance="10"
   guidetolerance="10"
   inkscape:pageopacity="0"
   inkscape:pageshadow="2"
   inkscape:window-width="1848"
   inkscape:window-height="1016"
   id="namedview322"
   showgrid="false"
   inkscape:zoom="3.9968591"
   inkscape:cx="103.311"
   inkscape:cy="103.311"
   inkscape:window-x="72"
   inkscape:window-y="27"
   inkscape:window-maximized="1"
   inkscape:current-layer="Layer_1" />
<g
   id="g289">
	<g
   id="g287">
		<g
   id="g285">
			<path
   d="M155.287,58.38c-6.703-7.189-14.65-12.775-23.62-16.603c-1.299-0.552-2.8-0.291-3.83,0.672     c-1.034,0.963-1.4,2.443-0.94,3.777c8.128,23.444,1.654,49.524-16.485,66.441c-18.146,16.918-44.614,21.557-67.43,11.812     c-1.288-0.55-2.8-0.291-3.83,0.672c-1.034,0.963-1.4,2.443-0.94,3.777c3.197,9.218,8.215,17.535,14.918,24.72     c12.721,13.643,29.996,21.517,48.64,22.168c0.836,0.03,1.668,0.043,2.5,0.043c17.728,0,34.54-6.611,47.571-18.764     c13.647-12.724,21.517-29.998,22.168-48.643C174.658,89.807,168.011,72.025,155.287,58.38z M166.883,108.203     c-0.585,16.74-7.655,32.251-19.905,43.675c-12.25,11.423-28.223,17.425-44.959,16.809c-16.743-0.583-32.252-7.652-43.674-19.904     c-4.21-4.511-7.678-9.519-10.363-14.947c23.47,6.872,49.127,0.987,67.291-15.952c18.167-16.941,25.828-42.13,20.608-66.02     c5.23,3.057,9.984,6.867,14.19,11.382C161.496,75.496,167.465,91.464,166.883,108.203z"
   id="path267" />
			<path
   d="M167.607,163.757c-1.393-1.393-3.649-1.393-5.042,0s-1.393,3.649,0,5.042l7.563,7.563     c0.696,0.696,1.609,1.045,2.521,1.045c0.912,0,1.825-0.348,2.521-1.045c1.393-1.393,1.393-3.649,0-5.042L167.607,163.757z"
   id="path269" />
			<path
   d="M170.128,30.259l-7.563,7.565c-1.393,1.393-1.393,3.651,0,5.042c0.696,0.696,1.609,1.045,2.521,1.045     s1.825-0.348,2.521-1.045l7.563-7.565c1.393-1.393,1.393-3.651,0-5.042C173.777,28.866,171.521,28.866,170.128,30.259z"
   id="path271" />
			<path
   d="M103.311,188.793c-1.971,0-3.566,1.597-3.566,3.566v10.697c0,1.969,1.595,3.566,3.566,3.566     c1.971,0,3.566-1.597,3.566-3.566v-10.697C106.877,190.39,105.282,188.793,103.311,188.793z"
   id="path273" />
			<path
   d="M201.371,99.745h-10.697c-1.971,0-3.566,1.597-3.566,3.566c0,1.969,1.595,3.566,3.566,3.566h10.697     c1.971,0,3.566-1.597,3.566-3.566C204.937,101.342,203.341,99.745,201.371,99.745z"
   id="path275" />
			<path
   d="M39.015,42.866c0.696,0.696,1.609,1.045,2.521,1.045s1.825-0.348,2.521-1.045c1.393-1.391,1.393-3.649,0-5.042     l-7.563-7.565c-1.393-1.393-3.649-1.393-5.042,0c-1.393,1.391-1.393,3.649,0,5.042L39.015,42.866z"
   id="path277" />
			<path
   d="M39.015,163.757l-7.563,7.563c-1.393,1.393-1.393,3.649,0,5.042c0.696,0.696,1.609,1.045,2.521,1.045     c0.912,0,1.825-0.348,2.521-1.045l7.563-7.563c1.393-1.393,1.393-3.649,0-5.042C42.664,162.364,40.408,162.364,39.015,163.757z"
   id="path279" />
			<path
   d="M103.311,17.829c1.971,0,3.566-1.597,3.566-3.566V3.566c0-1.969-1.595-3.566-3.566-3.566     c-1.971,0-3.566,1.597-3.566,3.566v10.697C99.745,16.232,101.34,17.829,103.311,17.829z"
   id="path281" />
			<path
   d="M15.949,99.745H5.251c-1.971,0-3.566,1.597-3.566,3.566c0,1.969,1.595,3.566,3.566,3.566h10.697     c1.971,0,3.566-1.597,3.566-3.566C19.514,101.342,17.919,99.745,15.949,99.745z"
   id="path283" />
		</g>
	</g>
</g>
<g
   id="g291">
</g>
<g
   id="g293">
</g>
<g
   id="g295">
</g>
<g
   id="g297">
</g>
<g
   id="g299">
</g>
<g
   id="g301">
</g>
<g
   id="g303">
</g>
<g
   id="g305">
</g>
<g
   id="g307">
</g>
<g
   id="g309">
</g>
<g
   id="g311">
</g>
<g
   id="g313">
</g>
<g
   id="g315">
</g>
<g
   id="g317">
</g>
<g
   id="g319">
</g>
<path
   style="fill:#ffffff;stroke:#000000;stroke-width:0.250196"
   d="m 3.8628917,106.37551 c -1.8808587,-0.94497 -2.5460871,-3.18367 -1.4386295,-4.84144 1.0779231,-1.61355 1.6072024,-1.725046 8.1889468,-1.725046 5.103736,0 5.992826,0.05773 6.737519,0.437456 1.290126,0.65785 1.894259,1.63521 1.894259,3.06452 0,1.4293 -0.604133,2.40666 -1.894259,3.06451 -0.744693,0.37973 -1.633783,0.43746 -6.737519,0.43746 -5.0988565,0 -5.9952381,-0.0581 -6.7503173,-0.43746 z"
   id="path328" /><path
   style="fill:#ffffff;stroke:#000000;stroke-width:0.250196"
   d="M 39.886195,43.200016 C 39.404566,42.891103 37.110437,40.699487 34.78813,38.329759 l -4.222377,-4.308597 0.115179,-1.388909 c 0.134414,-1.620865 0.987225,-2.727945 2.402408,-3.118696 1.722236,-0.475532 2.15873,-0.195127 6.762228,4.344055 2.385796,2.352464 4.496828,4.581234 4.691183,4.952823 0.834196,1.594904 0.11093,3.786343 -1.502307,4.551874 -1.161345,0.551094 -2.112445,0.502065 -3.148249,-0.162293 z"
   id="path330" /><path
   style="fill:#ffffff;stroke:#000000;stroke-width:0.250196"
   d="m 101.9399,17.317937 c -0.47888,-0.247399 -1.12626,-0.832379 -1.43863,-1.299955 -0.552846,-0.827567 -0.5679,-1.016887 -0.56699,-7.1305989 8.62e-4,-5.7877189 0.03925,-6.3433037 0.48933,-7.0814526 1.27915,-2.09787721 4.49562,-2.09787721 5.77478,0 0.45001,0.7380409 0.48839,1.2925733 0.48839,7.0559033 0,5.7594742 -0.0386,6.3182412 -0.48751,7.0544562 -0.97259,1.595085 -2.75168,2.180538 -4.25937,1.401647 z"
   id="path332" /><path
   style="fill:#ffffff;stroke:#000000;stroke-width:0.250196"
   d="m 163.54735,43.352753 c -1.58551,-0.781629 -2.28887,-2.974198 -1.45713,-4.542318 0.19709,-0.371589 2.25322,-2.561658 4.56918,-4.866821 4.52213,-4.501046 5.1327,-4.898067 6.82982,-4.441079 1.78658,0.481075 2.87946,2.473027 2.40155,4.377191 -0.18925,0.754033 -7.81716,8.548457 -9.15497,9.354823 -1.04046,0.627139 -2.07806,0.665605 -3.18845,0.118204 z"
   id="path334" /><path
   style="fill:#ffffff;stroke:#000000;stroke-width:0.250196"
   d="m 189.27127,106.37551 c -1.86232,-0.94961 -2.55443,-3.21165 -1.47352,-4.81589 1.10672,-1.642558 1.61346,-1.750596 8.21104,-1.750596 6.58174,0 7.11102,0.111496 8.18894,1.725046 1.10746,1.65777 0.44223,3.89647 -1.43863,4.84144 -0.75508,0.37937 -1.65146,0.43746 -6.75031,0.43746 -5.10374,0 -5.99283,-0.0577 -6.73752,-0.43746 z"
   id="path336" /><path
   style="fill:#ffffff;stroke:#000000;stroke-width:0.250196"
   d="m 171.74365,177.18489 c -0.69548,-0.12991 -9.07945,-8.26642 -9.65841,-9.37333 -0.83419,-1.59491 -0.11093,-3.78634 1.50231,-4.55187 1.14706,-0.54432 2.10202,-0.50392 3.14825,0.1332 1.36627,0.83201 8.96316,8.58517 9.15291,9.34119 0.29021,1.15627 -0.057,2.63847 -0.79959,3.41359 -0.57658,0.60182 -2.12682,1.3093 -2.5988,1.18601 -0.0688,-0.018 -0.40481,-0.0849 -0.74667,-0.14879 z"
   id="path338" /><path
   style="fill:#ffffff;stroke:#000000;stroke-width:0.250196"
   d="m 101.50922,205.90167 c -1.49815,-0.91347 -1.575875,-1.31877 -1.575875,-8.21718 0,-6.06083 0.01545,-6.25347 0.567925,-7.08048 1.47919,-2.2142 4.31678,-2.16356 5.698,0.10169 0.44889,0.73622 0.48751,1.29499 0.48751,7.05446 0,5.76333 -0.0384,6.31786 -0.48839,7.0559 -0.93899,1.53999 -3.11699,2.04423 -4.68917,1.08561 z"
   id="path340" /><path
   style="fill:#ffffff;stroke:#000000;stroke-width:0.250196"
   d="m 33.041458,177.11758 c -1.473796,-0.45338 -2.412532,-1.82916 -2.412532,-3.53573 0,-1.03858 0.08967,-1.15036 4.440987,-5.53618 2.442543,-2.46192 4.745014,-4.63634 5.116602,-4.83206 2.702581,-1.42348 5.791856,1.84171 4.350236,4.59795 -0.468764,0.89623 -8.989835,9.30643 -9.433558,9.31081 -0.190314,0.002 -0.571203,0.0511 -0.846419,0.10928 -0.275216,0.0582 -0.822108,0.007 -1.215316,-0.11407 z"
   id="path342" /><path
   style="fill:#ffffff;stroke:#000000;stroke-width:0.250196"
   d="m 97.681577,175.45975 c -8.366698,-1.01363 -15.36752,-2.86949 -21.985103,-5.82806 -13.217655,-5.90932 -24.743055,-16.38946 -32.075493,-29.16652 -2.496031,-4.34943 -5.487301,-11.35129 -5.485226,-12.83964 0.0021,-1.47798 1.823433,-3.29505 3.304905,-3.29709 0.373328,-5.1e-4 1.274035,0.2375 2.001572,0.52892 7.35077,2.94442 14.266693,4.40713 21.9841,4.64959 5.529557,0.17373 9.652276,-0.15569 14.741493,-1.1779 21.972475,-4.41337 39.889425,-20.23639 47.026995,-41.531019 1.95441,-5.830886 2.96372,-11.545734 3.18151,-18.014145 0.22824,-6.778782 -0.48757,-12.655643 -2.33128,-19.140029 -0.50865,-1.788905 -0.97165,-3.828836 -1.02889,-4.53318 -0.0939,-1.154939 -0.0261,-1.369456 0.6906,-2.18573 1.03859,-1.182888 2.31092,-1.545389 3.70176,-1.054672 1.98636,0.700828 7.97406,3.897559 10.93312,5.837012 16.98175,11.130293 28.42285,29.354098 30.99964,49.377368 1.40639,10.928565 0.13796,22.424245 -3.62034,32.810805 -2.44929,6.76895 -7.36055,15.24726 -12.06496,20.82777 -10.99588,13.04363 -26.24434,21.61349 -43.21124,24.28536 -2.52527,0.39767 -14.536425,0.72093 -16.763163,0.45116 z m 16.093153,-7.33429 c 8.29337,-1.31539 15.4143,-3.85006 22.32609,-7.9469 16.40675,-9.7248 27.34094,-25.93072 30.26593,-44.85813 0.5604,-3.62632 0.76053,-11.68133 0.38272,-15.404566 -1.92482,-18.968825 -11.88965,-35.58754 -27.706,-46.206315 -1.58846,-1.066462 -2.99558,-1.939023 -3.12693,-1.939023 -0.13135,0 -0.17775,0.19703 -0.10311,0.437844 0.0746,0.240814 0.36132,1.845199 0.63706,3.5653 3.13784,19.573897 -2.19125,39.362518 -14.82318,55.04322 -2.48397,3.08348 -7.91464,8.43983 -10.93552,10.78586 -17.017022,13.2155 -38.517595,17.90191 -59.374382,12.94166 -1.762903,-0.41926 -3.261303,-0.70627 -3.329778,-0.6378 -0.19424,0.19424 2.28993,4.54093 4.177245,7.30915 10.200082,14.96099 25.766158,24.6413 43.452894,27.0227 4.129467,0.55601 4.591231,0.57849 9.945001,0.48406 3.42289,-0.0604 6.01753,-0.24901 8.21196,-0.59706 z"
   id="path344" /></svg>
