<?xml version="1.0" encoding="UTF-8" standalone="no"?>
<svg
   xmlns:dc="http://purl.org/dc/elements/1.1/"
   xmlns:cc="http://creativecommons.org/ns#"
   xmlns:rdf="http://www.w3.org/1999/02/22-rdf-syntax-ns#"
   xmlns:svg="http://www.w3.org/2000/svg"
   xmlns="http://www.w3.org/2000/svg"
   xmlns:sodipodi="http://sodipodi.sourceforge.net/DTD/sodipodi-0.dtd"
   xmlns:inkscape="http://www.inkscape.org/namespaces/inkscape"
   version="1.1"
   id="Layer_1"
   x="0px"
   y="0px"
   viewBox="0 0 172.151 172.151"
   style="enable-background:new 0 0 172.151 172.151;"
   xml:space="preserve"
   sodipodi:docname="moon-blanc.svg"
   inkscape:version="1.0.2 (1.0.2+r75+1)"><metadata
   id="metadata361"><rdf:RDF><cc:Work
       rdf:about=""><dc:format>image/svg+xml</dc:format><dc:type
         rdf:resource="http://purl.org/dc/dcmitype/StillImage" /></cc:Work></rdf:RDF></metadata><defs
   id="defs359" /><sodipodi:namedview
   pagecolor="#ffffff"
   bordercolor="#666666"
   borderopacity="1"
   objecttolerance="10"
   gridtolerance="10"
   guidetolerance="10"
   inkscape:pageopacity="0"
   inkscape:pageshadow="2"
   inkscape:window-width="1848"
   inkscape:window-height="1016"
   id="namedview357"
   showgrid="false"
   inkscape:zoom="4.7923044"
   inkscape:cx="86.0755"
   inkscape:cy="86.0755"
   inkscape:window-x="72"
   inkscape:window-y="27"
   inkscape:window-maximized="1"
   inkscape:current-layer="Layer_1" />
<g
   id="g324">
	<g
   id="g322">
		<g
   id="g320">
			<path
   d="M94.992,27.9c-1.292-0.552-2.796-0.292-3.832,0.67c-1.031,0.963-1.398,2.443-0.937,3.777     c8.126,23.446,1.654,49.526-16.488,66.441c-18.141,16.918-44.614,21.557-67.43,11.814c-1.297-0.55-2.8-0.291-3.832,0.672     c-1.031,0.963-1.398,2.443-0.937,3.777c3.195,9.216,8.213,17.533,14.916,24.72c12.722,13.643,29.998,21.515,48.642,22.166     c0.836,0.03,1.666,0.044,2.499,0.044c17.728,0,34.54-6.611,47.573-18.764c13.643-12.724,21.517-29.998,22.168-48.643     c0.651-18.644-5.998-36.426-18.72-50.069C111.91,37.318,103.964,31.731,94.992,27.9z M130.205,94.325     c-0.584,16.74-7.653,32.251-19.905,43.675c-12.25,11.423-28.237,17.373-44.957,16.811c-16.741-0.585-32.251-7.654-43.674-19.904     c-4.208-4.513-7.678-9.519-10.363-14.948c23.46,6.862,49.127,0.987,67.294-15.954c18.165-16.939,25.826-42.128,20.608-66.018     c5.229,3.059,9.982,6.869,14.188,11.382C124.821,61.619,130.79,77.586,130.205,94.325z"
   id="path312" />
			<path
   d="M47.4,31.377c0.696,0.696,1.609,1.045,2.521,1.045s1.825-0.348,2.521-1.045l5.107-5.107l5.107,5.107     c0.696,0.696,1.609,1.045,2.521,1.045s1.825-0.348,2.521-1.045c1.393-1.393,1.393-3.649,0-5.042l-5.106-5.106l4.972-4.972     c1.393-1.393,1.393-3.649,0-5.042c-1.393-1.393-3.649-1.393-5.042,0l-4.972,4.972l-4.973-4.973c-1.393-1.393-3.649-1.393-5.042,0     c-1.393,1.393-1.393,3.649,0,5.042l4.973,4.973L47.4,26.335C46.007,27.728,46.007,29.984,47.4,31.377z"
   id="path314" />
			<path
   d="M171.107,65.559L166,60.452l4.973-4.973c1.393-1.393,1.393-3.649,0-5.042s-3.649-1.393-5.042,0l-4.973,4.973     l-4.973-4.973c-1.393-1.393-3.649-1.393-5.042,0s-1.393,3.649,0,5.042l4.973,4.973l-5.107,5.107     c-1.393,1.393-1.393,3.649,0,5.042c0.696,0.696,1.609,1.045,2.521,1.045s1.825-0.348,2.521-1.045l5.107-5.107l5.107,5.107     c0.696,0.696,1.609,1.045,2.521,1.045s1.825-0.348,2.521-1.045C172.499,69.208,172.499,66.952,171.107,65.559z"
   id="path316" />
			<path
   d="M6.087,95.562l5.107-5.107l5.107,5.107c0.696,0.696,1.609,1.045,2.521,1.045c0.912,0,1.825-0.348,2.521-1.045     c1.393-1.393,1.393-3.649,0-5.042l-5.107-5.107l4.973-4.973c1.393-1.393,1.393-3.649,0-5.042s-3.649-1.393-5.042,0l-4.973,4.973     l-4.972-4.973c-1.393-1.393-3.649-1.393-5.042,0s-1.393,3.649,0,5.042l4.973,4.973l-5.108,5.106     c-1.393,1.393-1.393,3.649,0,5.042c0.696,0.696,1.609,1.045,2.521,1.045C4.478,96.606,5.39,96.258,6.087,95.562z"
   id="path318" />
		</g>
	</g>
</g>
<g
   id="g326">
</g>
<g
   id="g328">
</g>
<g
   id="g330">
</g>
<g
   id="g332">
</g>
<g
   id="g334">
</g>
<g
   id="g336">
</g>
<g
   id="g338">
</g>
<g
   id="g340">
</g>
<g
   id="g342">
</g>
<g
   id="g344">
</g>
<g
   id="g346">
</g>
<g
   id="g348">
</g>
<g
   id="g350">
</g>
<g
   id="g352">
</g>
<g
   id="g354">
</g>
<path
   style="fill:#ffffff;stroke:#000000;stroke-width:0.208668"
   d="m 1.9885154,96.032781 c -1.18146892,-0.669163 -1.77984752,-1.646536 -1.77984752,-2.90715 0,-0.564409 0.10402496,-1.231302 0.23116659,-1.481983 C 0.56697611,91.392966 1.9492094,89.898275 3.5114641,88.322112 L 6.3519272,85.456361 3.5103315,82.583746 C 1.2594249,80.308267 0.61405185,79.52678 0.40567212,78.824291 -0.32219292,76.370514 2.1215929,73.933907 4.6323856,74.609993 c 0.7073349,0.190466 1.4323639,0.783223 3.759055,3.073266 l 2.8826914,2.837286 2.86615,-2.829196 c 3.235282,-3.193568 3.817652,-3.527259 5.388386,-3.087481 1.125388,0.31509 2.298654,1.532316 2.497224,2.590797 0.311038,1.657967 0.05352,2.10021 -3.044944,5.229147 l -2.892896,2.92135 2.890946,2.928774 c 3.120721,3.161554 3.522557,3.843974 3.222828,5.4732 -0.195853,1.064592 -1.596939,2.465873 -2.666072,2.666445 -1.57293,0.295083 -2.29012,-0.128143 -5.355569,-3.160405 -1.554436,-1.537608 -2.917349,-2.795651 -3.028695,-2.795651 -0.111346,0 -1.4218001,1.230415 -2.9121194,2.734255 -1.4903196,1.50384 -3.0118327,2.865398 -3.3811402,3.025684 -0.9601867,0.416739 -1.9165112,0.355195 -2.869715,-0.184683 z"
   id="path363" /><path
   style="fill:#ffffff;stroke:#000000;stroke-width:0.208668"
   d="m 48.185937,31.764718 c -1.471693,-0.991773 -2.034939,-2.667145 -1.430843,-4.256036 0.122186,-0.321374 1.502889,-1.876846 3.068228,-3.456604 l 2.846072,-2.872288 -2.838195,-2.869184 c -3.158995,-3.193486 -3.536648,-3.847835 -3.10586,-5.381442 0.276673,-0.98496 0.745511,-1.580178 1.705789,-2.165603 0.834633,-0.508826 2.24621,-0.57138 3.068034,-0.13596 0.30991,0.164198 1.735821,1.478806 3.168691,2.921351 1.43287,1.442544 2.693764,2.622809 2.801988,2.622809 0.108224,0 1.47703,-1.260094 3.041791,-2.800209 2.324085,-2.287478 2.98806,-2.827043 3.62621,-2.946761 2.714268,-0.5091995 4.718691,1.495223 4.209492,4.209491 -0.119719,0.63815 -0.659284,1.302125 -2.946762,3.62621 -1.540114,1.564761 -2.800208,2.928134 -2.800208,3.029716 0,0.101583 1.306444,1.503328 2.903209,3.11499 2.422631,2.445233 2.927952,3.063157 3.052683,3.732927 0.281218,1.510063 -0.51711,3.124081 -1.860562,3.761591 -0.824838,0.391411 -2.246651,0.444344 -2.909208,0.108305 -0.250682,-0.127142 -1.745373,-1.509375 -3.321536,-3.07163 l -2.86575,-2.840463 -2.875721,2.849473 c -1.581646,1.56721 -3.138662,2.949443 -3.460036,3.07163 -0.990637,0.376639 -2.303986,0.268963 -3.077506,-0.252313 z"
   id="path365" /><path
   style="fill:#ffffff;stroke:#000000;stroke-width:0.208668"
   d="m 62.183028,161.68228 c -10.160438,-1.01373 -18.06802,-3.23735 -26.187819,-7.36403 -7.065741,-3.59099 -12.672452,-7.75282 -18.467107,-13.70802 -6.981945,-7.1754 -12.0427092,-15.16146 -15.3583953,-24.23607 -0.8290352,-2.26897 -0.8702009,-2.98232 -0.2360962,-4.09122 0.6383912,-1.11641 1.3988708,-1.62604 2.5893718,-1.73527 0.8331046,-0.0764 1.4336579,0.0735 3.4824058,0.86944 4.6022249,1.78796 9.6150209,3.08111 14.7574789,3.80696 3.945265,0.55687 13.067611,0.51026 16.886649,-0.0863 9.931126,-1.55127 18.359724,-4.76029 26.1852,-9.96952 14.081363,-9.373613 23.924611,-24.382532 26.890785,-41.002897 0.756459,-4.238669 0.966377,-6.725404 0.966377,-11.447954 0,-6.221324 -0.780452,-11.793648 -2.4427,-17.440561 -0.407343,-1.3838 -0.836673,-2.848439 -0.954069,-3.254753 -0.690042,-2.38827 1.85666,-4.907001 4.192855,-4.146805 2.569562,0.836134 8.430376,4.001051 12.244856,6.61238 21.81776,14.936088 33.29054,40.448897 29.93641,66.57167 -2.49818,19.45645 -13.04372,36.8767 -29.16799,48.1828 -9.819157,6.88505 -20.813636,10.98362 -32.902473,12.26554 -2.618035,0.27762 -10.30036,0.38565 -12.415739,0.17459 z m 10.642062,-6.9648 c 13.160704,-1.1901 25.120157,-6.1152 35.0562,-14.43672 12.55008,-10.51081 20.12621,-24.73913 22.14047,-41.580853 0.37661,-3.148918 0.3193,-10.509498 -0.10886,-13.980748 -2.06089,-16.708388 -10.18693,-31.254361 -23.38795,-41.865448 -2.0748,-1.667745 -7.169705,-5.079382 -7.33646,-4.912626 -0.05822,0.05822 0.04297,0.841447 0.22486,1.740505 3.51316,17.36475 -0.32053,36.660109 -10.244159,51.55989 -4.702422,7.060428 -10.830994,13.44549 -17.564929,18.30005 -9.017526,6.50082 -19.610758,10.74399 -31.075772,12.44754 -3.724555,0.55341 -11.611585,0.75927 -15.517329,0.405 -3.606228,-0.3271 -8.180591,-1.09831 -11.203824,-1.88889 -1.319147,-0.34495 -2.44104,-0.5846 -2.493094,-0.53255 -0.174798,0.1748 2.060441,4.16022 3.82952,6.82802 5.98699,9.02848 14.191137,16.37893 23.743387,21.27273 7.403144,3.79278 14.554743,5.78562 24.130549,6.72415 1.714437,0.16803 7.59471,0.12003 9.807391,-0.08 z"
   id="path367" /><path
   style="fill:#ffffff;stroke:#000000;stroke-width:0.208668"
   d="m 151.73269,71.11475 c -0.7972,-0.392784 -1.62953,-1.534408 -1.82263,-2.49992 -0.26379,-1.318931 0.23154,-2.102914 3.2765,-5.185882 l 2.89135,-2.927437 -2.51554,-2.497928 c -3.07082,-3.049334 -3.62014,-3.887768 -3.48291,-5.315999 0.22804,-2.373224 2.62422,-3.786523 4.81098,-2.837579 0.3693,0.160261 1.84381,1.474869 3.27668,2.921351 1.43287,1.446481 2.69637,2.629966 2.80779,2.629966 0.11141,0 1.47438,-1.260056 3.02881,-2.800124 1.72926,-1.713273 3.0538,-2.857167 3.4125,-2.947088 0.90638,-0.227214 2.33542,0.0107 3.02847,0.504191 0.97444,0.693866 1.57476,2.121143 1.39675,3.320852 -0.13642,0.919405 -0.33709,1.176209 -3.09428,3.959956 l -2.9484,2.976793 2.84062,2.865908 c 1.56234,1.576249 2.94464,3.071011 3.07179,3.321692 0.12714,0.250682 0.23116,0.917574 0.23116,1.481984 0,2.482558 -2.67327,4.156198 -4.86189,3.043858 -0.36729,-0.186674 -1.91361,-1.568831 -3.43626,-3.071463 l -2.76845,-2.732057 -2.86558,2.840296 c -1.57607,1.562162 -3.07069,2.944321 -3.32137,3.071462 -0.66312,0.336325 -2.14953,0.274561 -2.95609,-0.122832 z"
   id="path369" /></svg>
