<?xml version="1.0" encoding="UTF-8" standalone="no"?>
<svg
   xmlns:dc="http://purl.org/dc/elements/1.1/"
   xmlns:cc="http://creativecommons.org/ns#"
   xmlns:rdf="http://www.w3.org/1999/02/22-rdf-syntax-ns#"
   xmlns:svg="http://www.w3.org/2000/svg"
   xmlns="http://www.w3.org/2000/svg"
   xmlns:sodipodi="http://sodipodi.sourceforge.net/DTD/sodipodi-0.dtd"
   xmlns:inkscape="http://www.inkscape.org/namespaces/inkscape"
   version="1.1"
   id="Capa_1"
   x="0px"
   y="0px"
   viewBox="0 0 491.147 491.147"
   style="enable-background:new 0 0 491.147 491.147;"
   xml:space="preserve"
   sodipodi:docname="owl-inter-blanc.svg"
   inkscape:version="1.0.2 (1.0.2+r75+1)"><metadata
   id="metadata181"><rdf:RDF><cc:Work
       rdf:about=""><dc:format>image/svg+xml</dc:format><dc:type
         rdf:resource="http://purl.org/dc/dcmitype/StillImage" /><dc:title></dc:title></cc:Work></rdf:RDF></metadata><defs
   id="defs179" /><sodipodi:namedview
   pagecolor="#ffffff"
   bordercolor="#666666"
   borderopacity="1"
   objecttolerance="10"
   gridtolerance="10"
   guidetolerance="10"
   inkscape:pageopacity="0"
   inkscape:pageshadow="2"
   inkscape:window-width="1848"
   inkscape:window-height="1016"
   id="namedview177"
   showgrid="false"
   inkscape:zoom="1.6797415"
   inkscape:cx="245.5735"
   inkscape:cy="245.5735"
   inkscape:window-x="72"
   inkscape:window-y="27"
   inkscape:window-maximized="1"
   inkscape:current-layer="Capa_1" />
<g
   id="XMLID_1_">
	<path
   id="XMLID_7_"
   d="M420.486,434.466H392.67c24.843-41.797,39.852-94.219,39.852-151.467   c0-64.474-18.924-122.995-49.641-166.941l-7.651-104.437c-0.366-4.688-3.281-8.79-7.613-10.627   c-4.326-1.836-9.327-1.096-12.954,1.921l-53.441,44.584c-17.576-7.217-36.25-11.12-55.636-11.12   c-19.38,0-38.073,3.903-55.655,11.12L136.478,2.916c-3.607-3.017-8.596-3.757-12.922-1.921c-4.326,1.837-7.28,5.939-7.606,10.627   l-7.679,104.437c-30.729,43.946-49.633,102.467-49.633,166.941c0,57.248,15.002,109.67,39.844,151.467H70.66   c-9.269,0-16.792,7.511-16.792,16.792c0,9.28,7.523,16.79,16.792,16.79h28.63v-31.481c0-0.248,0.065-0.461,0.065-0.709   c0.392-18.216,15.213-32.875,33.515-32.875c6.15,0,11.837,1.772,16.793,4.655c4.949-2.883,10.643-4.655,16.792-4.655   c6.143,0,11.837,1.772,16.787,4.655c4.956-2.883,10.643-4.655,16.792-4.655c18.546,0,33.58,15.038,33.58,33.584v30.743v0.738   h23.924v-0.738v-30.743c0-18.546,15.039-33.584,33.585-33.584c6.149,0,11.824,1.772,16.793,4.655   c4.968-2.883,10.637-4.655,16.786-4.655c6.15,0,11.824,1.772,16.793,4.655c4.969-2.883,10.644-4.655,16.793-4.655   c18.301,0,33.123,14.659,33.502,32.875c0.013,0.248,0.077,0.461,0.077,0.709v31.481h28.618c9.282,0,16.793-7.51,16.793-16.79   C437.279,441.977,429.768,434.466,420.486,434.466z M185.771,224.94C159.927,224.94,139,204,139,178.19   c0-25.828,20.927-46.782,46.771-46.782c25.805,0,46.732,20.954,46.732,46.782C232.503,204,211.576,224.94,185.771,224.94z    M283.171,275.477l-32.352,55.49c-1.098,1.868-3.082,3.016-5.232,3.016c-2.163,0-4.165-1.147-5.244-3.016l-32.354-55.49   c-2.118-3.643-1.527-8.231,1.458-11.218l29.58-29.596c3.607-3.609,9.481-3.609,13.102,0l29.599,29.596   C284.698,267.246,285.302,271.833,283.171,275.477z M305.407,224.94c-25.825,0-46.765-20.939-46.765-46.75   c0-25.828,20.939-46.782,46.765-46.782c25.824,0,46.765,20.954,46.765,46.782C352.172,204,331.232,224.94,305.407,224.94z" />
	<path
   id="XMLID_6_"
   d="M190.592,164.071c-10.56,0-19.123,8.545-19.123,19.103c0,10.576,8.564,19.121,19.123,19.121   c10.54,0,19.104-8.545,19.104-19.121C209.696,172.617,201.132,164.071,190.592,164.071z" />
	<path
   id="XMLID_5_"
   d="M300.587,164.071c-10.561,0-19.124,8.545-19.124,19.103c0,10.576,8.563,19.121,19.124,19.121   c10.559,0,19.116-8.545,19.116-19.121C319.703,172.617,311.146,164.071,300.587,164.071z" />
	<path
   id="XMLID_2_"
   d="M199.696,419.78c-9.125,0.18-16.454,7.617-16.454,16.787c0-0.081,0-0.162,0-0.243   c0.001-9.146-7.413-16.56-16.558-16.56h-0.464c-9.148,0-16.56,7.42-16.558,16.567c0,0.079,0,0.157,0,0.235   c0-9.17-7.328-16.607-16.453-16.787c-9.421-0.186-17.132,7.805-17.132,17.226v36.898c0,9.424,7.712,17.414,17.132,17.227   c9.126-0.181,16.453-7.62,16.453-16.786c0,0.078,0,0.155,0,0.233c-0.002,9.148,7.41,16.568,16.558,16.568h0.464   c9.143,0,16.557-7.412,16.558-16.555c0-0.083,0-0.165,0-0.247c0,9.166,7.328,16.606,16.453,16.786   c9.421,0.187,17.132-7.805,17.132-17.227v-36.898C216.827,427.584,209.116,419.594,199.696,419.78z" />
	<path
   id="XMLID_176_"
   d="M357.95,419.78c-9.125,0.18-16.453,7.617-16.453,16.787c0-0.081,0-0.162,0-0.243   c0-9.146-7.413-16.56-16.558-16.56h-0.465c-9.148,0-16.559,7.42-16.557,16.567c0,0.079,0,0.157,0,0.235   c0-9.17-7.328-16.607-16.454-16.787c-9.421-0.186-17.132,7.805-17.132,17.226v36.898c0,9.424,7.712,17.414,17.133,17.227   c9.125-0.181,16.453-7.62,16.453-16.786c0,0.078,0,0.155,0,0.233c-0.002,9.148,7.409,16.568,16.557,16.568h0.465   c9.143,0,16.557-7.412,16.558-16.555c0-0.083,0-0.165,0-0.247c0,9.166,7.328,16.606,16.453,16.786   c9.421,0.187,17.132-7.805,17.132-17.227v-36.898C375.082,427.584,367.371,419.594,357.95,419.78z" />
</g>
<g
   id="g146">
</g>
<g
   id="g148">
</g>
<g
   id="g150">
</g>
<g
   id="g152">
</g>
<g
   id="g154">
</g>
<g
   id="g156">
</g>
<g
   id="g158">
</g>
<g
   id="g160">
</g>
<g
   id="g162">
</g>
<g
   id="g164">
</g>
<g
   id="g166">
</g>
<g
   id="g168">
</g>
<g
   id="g170">
</g>
<g
   id="g172">
</g>
<g
   id="g174">
</g>
<path
   style="fill:#ffffff;stroke:#000000;stroke-width:0.59533"
   d="m 233.95424,450.51575 c -0.0116,-19.16409 -0.4424,-22.58206 -3.67965,-29.1931 -2.36066,-4.8209 -9.39701,-12.16827 -13.97671,-14.5945 -8.94316,-4.7379 -20.3932,-5.1929 -29.5041,-1.17242 l -3.41406,1.50656 -2.9328,-1.26166 c -9.42994,-4.05665 -18.66878,-4.05915 -28.08684,-0.008 l -2.91511,1.25405 -2.7039,-1.27098 c -12.42297,-5.83948 -27.61695,-3.0895 -37.50115,6.7874 -5.94704,5.94265 -9.81523,14.02203 -9.822086,20.51512 l -0.0022,2.10741 -1.127078,-1.84832 C 95.346498,428.51299 89.614037,417.54492 86.288941,410.37855 61.943879,357.9092 53.451697,295.04157 62.579501,234.85757 68.82714,193.66388 83.481455,154.41595 104.68723,122.08253 l 3.87825,-5.91336 3.72248,-51.238292 c 2.04736,-28.181063 4.00067,-52.676683 4.34068,-54.434712 1.54024,-7.9637784 9.9312,-12.4313288 16.72521,-8.904905 1.47344,0.7647879 14.75911,11.47113 29.52371,23.791873 l 26.84472,22.401348 9.47039,-3.183363 c 17.22261,-5.789183 28.47708,-7.644035 46.38083,-7.644035 19.02023,0 34.07644,2.740822 51.69246,9.410062 l 4.06609,1.539378 26.89105,-22.464938 c 14.79009,-12.355715 28.07504,-23.0677088 29.52211,-23.8044293 2.91692,-1.48503124 5.11843,-1.65715322 8.68022,-0.67865023 3.20299,0.87993403 7.02144,4.88979873 7.92151,8.31862213 0.37963,1.4462054 2.38857,26.0898524 4.46432,54.7636594 l 3.77408,52.134192 3.87634,5.91045 c 6.10418,9.30733 10.14572,16.45464 15.81519,27.96853 33.65353,68.34555 39.25491,153.83839 14.98599,228.72855 -5.96693,18.41303 -15.88417,40.5827 -24.40439,54.55518 l -1.12708,1.84832 -0.002,-2.10741 c -0.007,-6.48868 -3.87364,-14.56798 -9.82209,-20.52235 -9.79378,-9.80355 -24.19003,-12.54548 -36.75559,-7.00052 l -3.41406,1.50656 -2.93281,-1.26166 c -4.66122,-2.00527 -9.50507,-3.06009 -14.05211,-3.06009 -4.54704,0 -9.39089,1.05482 -14.05227,3.06009 l -2.9328,1.26166 -3.41406,-1.50656 c -9.12459,-4.02652 -20.63021,-3.56235 -29.5041,1.19028 -4.71436,2.52489 -11.63116,9.78271 -13.99818,14.68835 -3.24191,6.71883 -3.64661,9.93609 -3.65818,29.08139 l -0.0103,17.11573 H 245.5735 233.96457 l -0.0104,-17.11573 z m 14.7743,-117.0832 c 1.19008,-0.6256 5.99758,-8.38383 18.5107,-29.87214 17.47422,-30.00781 18.13955,-31.40273 17.0637,-35.77545 -0.45375,-1.84428 -31.5698,-33.56729 -34.38374,-35.05444 -0.88417,-0.46728 -2.83974,-0.8496 -4.3457,-0.8496 -1.50596,0 -3.46153,0.38232 -4.3457,0.8496 -2.81394,1.48715 -33.92999,33.21016 -34.38374,35.05444 -1.07588,4.37286 -0.41068,5.76742 17.0637,35.77335 11.48538,19.72199 17.38013,29.28885 18.39143,29.8483 1.93753,1.07184 4.42066,1.08186 6.42935,0.026 z M 192.50372,224.71861 c 10.17342,-1.47071 18.88488,-5.87938 26.33101,-13.32551 5.71358,-5.71358 9.19986,-11.34486 11.72238,-18.93481 1.6914,-5.08922 1.83846,-6.18183 1.86545,-13.85938 0.0243,-6.91355 -0.19807,-9.12627 -1.30421,-12.9777 -4.55013,-15.84291 -16.20791,-27.63803 -32.27823,-32.65847 -3.82047,-1.19353 -5.71101,-1.39488 -13.09725,-1.39488 -9.86757,0 -14.06459,0.97337 -22.0272,5.1085 -20.71407,10.75721 -30.13399,35.52624 -22.00241,57.85388 7.56109,20.76121 28.77619,33.37085 50.79046,30.18837 z m 124.31569,-0.90159 c 8.98132,-2.3273 16.45929,-6.71694 22.68455,-13.31604 21.35732,-22.63988 15.31272,-59.60289 -12.07263,-73.82462 -7.96261,-4.13513 -12.15963,-5.1085 -22.0272,-5.1085 -9.86444,0 -14.05711,0.9718 -22.02719,5.10556 -27.18843,14.10155 -33.41716,51.02476 -12.39806,73.49425 7.42207,7.93422 16.75039,12.88077 27.565,14.61699 4.26343,0.68446 13.8609,0.1763 18.27553,-0.96764 z"
   id="path183" /><path
   style="fill:#ffffff;stroke:#000000;stroke-width:0.59533"
   d="m 186.60037,201.59134 c -14.41133,-3.72515 -19.49763,-21.26251 -9.16377,-31.59636 7.3792,-7.37921 20.17839,-7.13746 26.89111,0.5079 5.05925,5.76217 6.38258,14.03325 3.2648,20.40575 -1.88937,3.86174 -5.93287,7.83892 -9.63419,9.4762 -2.93366,1.29769 -8.65429,1.90538 -11.35795,1.20651 z"
   id="path185" /><path
   style="fill:#ffffff;stroke:#000000;stroke-width:0.59533"
   d="m 295.84943,201.3389 c -11.09363,-3.13654 -17.04095,-15.35441 -12.38648,-25.44614 3.22182,-6.98547 8.44102,-10.68891 15.72225,-11.15619 17.27022,-1.10834 26.53446,18.41422 14.86681,31.32891 -4.21939,4.67036 -12.1793,6.9764 -18.20258,5.27342 z"
   id="path187" /><path
   style="fill:#ffffff;stroke:#000000;stroke-width:0.59533"
   d="m 66.077742,467.07524 c -6.666306,-2.0278 -11.90274,-8.98552 -11.90274,-15.81533 0,-5.59501 3.960671,-11.98283 9.151282,-14.7593 2.337746,-1.25047 3.263629,-1.32355 18.978047,-1.49793 l 16.520399,-0.18332 v 16.40606 16.40606 l -15.627405,-0.0512 c -8.595072,-0.0281 -16.298884,-0.25543 -17.119583,-0.50507 z"
   id="path189" /><path
   style="fill:#ffffff;stroke:#000000;stroke-width:0.59533"
   d="m 127.59358,489.9108 c -3.60677,-1.33075 -7.6096,-5.13141 -9.53604,-9.05441 l -1.67058,-3.40197 v -22.0272 -22.0272 l 1.67058,-3.40198 c 4.46358,-9.08962 14.45029,-12.40485 22.87457,-7.59355 4.44219,2.53704 7.33455,6.7217 8.21714,11.88852 l 0.45762,2.67899 0.68638,-3.27432 c 0.92837,-4.42869 2.15554,-6.5578 5.45245,-9.45986 2.85512,-2.51317 7.18126,-4.23272 10.64895,-4.23272 7.76578,0 15.1098,6.40522 16.32777,14.24055 l 0.4238,2.72635 0.7336,-3.3673 c 1.37791,-6.32462 5.58604,-10.90058 11.72282,-12.74748 3.58902,-1.08013 5.25936,-1.07148 9.02488,0.0468 4.01131,1.19123 8.49729,5.24334 10.35449,9.35304 1.41355,3.12798 1.42033,3.24685 1.42033,24.87253 0,19.99161 -0.0913,21.96627 -1.1415,24.68942 -2.36027,6.12012 -9.09358,11.03607 -15.10356,11.02704 -7.77595,-0.0117 -14.55164,-5.67765 -16.28129,-13.61476 l -0.72977,-3.34881 -0.4238,2.72634 c -2.0353,13.09335 -17.57878,18.73415 -27.19582,9.86947 -3.13828,-2.89276 -4.79187,-5.92858 -5.31953,-9.76609 l -0.3891,-2.82972 -0.68729,3.046 c -1.79597,7.95954 -7.76141,13.24499 -15.45226,13.69091 -2.25816,0.13093 -4.525,-0.13303 -6.08484,-0.70855 z"
   id="path191" /><path
   style="fill:#ffffff;stroke:#000000;stroke-width:0.59533"
   d="m 285.49906,489.64647 c -3.72349,-1.45378 -7.61147,-5.24903 -9.38032,-9.15657 -1.35578,-2.99504 -1.37408,-3.32899 -1.37408,-25.06268 0,-21.93939 0.006,-22.03973 1.42034,-25.1702 1.85719,-4.10969 6.34317,-8.16181 10.35448,-9.35304 3.76553,-1.11824 5.43586,-1.12689 9.02488,-0.0468 6.13678,1.8469 10.34492,6.42286 11.72282,12.74748 l 0.73361,3.3673 0.42379,-2.72635 c 1.21797,-7.83533 8.56199,-14.24055 16.32777,-14.24055 3.46769,0 7.79383,1.71955 10.64895,4.23272 3.29691,2.90206 4.52408,5.03117 5.45245,9.45986 l 0.68638,3.27432 0.45762,-2.67899 c 0.88259,-5.16682 3.77495,-9.35148 8.21714,-11.88852 8.42428,-4.8113 18.41099,-1.49607 22.87457,7.59355 l 1.67058,3.40198 v 22.0272 22.0272 l -1.67058,3.40197 c -7.28634,14.83789 -27.33541,12.33754 -31.02326,-3.86896 l -0.70655,-3.10499 -0.4044,2.82972 c -0.55041,3.85136 -2.20589,6.88192 -5.33485,9.76609 -9.61704,8.86468 -25.16052,3.22388 -27.19582,-9.86947 l -0.42379,-2.72634 -0.72978,3.34881 c -2.24254,10.2907 -12.39114,16.07783 -21.77195,12.41522 z"
   id="path193" /><path
   style="fill:#ffffff;stroke:#000000;stroke-width:0.59533"
   d="m 392.32227,451.25991 v -16.44055 l 16.5204,0.18332 c 18.8524,0.20921 19.21932,0.2946 23.84481,5.54943 5.66204,6.43242 5.66204,14.98318 0,21.4156 -4.62549,5.25483 -4.99241,5.34022 -23.84481,5.54943 l -16.5204,0.18332 z"
   id="path195" /></svg>
