<?xml version="1.0" encoding="UTF-8" standalone="no"?>
<svg
   xmlns:dc="http://purl.org/dc/elements/1.1/"
   xmlns:cc="http://creativecommons.org/ns#"
   xmlns:rdf="http://www.w3.org/1999/02/22-rdf-syntax-ns#"
   xmlns:svg="http://www.w3.org/2000/svg"
   xmlns="http://www.w3.org/2000/svg"
   xmlns:sodipodi="http://sodipodi.sourceforge.net/DTD/sodipodi-0.dtd"
   xmlns:inkscape="http://www.inkscape.org/namespaces/inkscape"
   version="1.1"
   id="Capa_1"
   x="0px"
   y="0px"
   viewBox="0 0 491.147 491.147"
   style="enable-background:new 0 0 491.147 491.147;"
   xml:space="preserve"
   sodipodi:docname="owl-inter.svg"
   inkscape:version="1.0.2 (1.0.2+r75+1)"><metadata
   id="metadata181"><rdf:RDF><cc:Work
       rdf:about=""><dc:format>image/svg+xml</dc:format><dc:type
         rdf:resource="http://purl.org/dc/dcmitype/StillImage" /><dc:title /></cc:Work></rdf:RDF></metadata><defs
   id="defs179" /><sodipodi:namedview
   pagecolor="#ffffff"
   bordercolor="#666666"
   borderopacity="1"
   objecttolerance="10"
   gridtolerance="10"
   guidetolerance="10"
   inkscape:pageopacity="0"
   inkscape:pageshadow="2"
   inkscape:window-width="1848"
   inkscape:window-height="1016"
   id="namedview177"
   showgrid="false"
   inkscape:zoom="1.6797415"
   inkscape:cx="245.5735"
   inkscape:cy="245.5735"
   inkscape:window-x="72"
   inkscape:window-y="27"
   inkscape:window-maximized="1"
   inkscape:current-layer="Capa_1"
   inkscape:document-rotation="0" />
<g
   id="XMLID_1_">
	<path
   id="XMLID_7_"
   d="M420.486,434.466H392.67c24.843-41.797,39.852-94.219,39.852-151.467   c0-64.474-18.924-122.995-49.641-166.941l-7.651-104.437c-0.366-4.688-3.281-8.79-7.613-10.627   c-4.326-1.836-9.327-1.096-12.954,1.921l-53.441,44.584c-17.576-7.217-36.25-11.12-55.636-11.12   c-19.38,0-38.073,3.903-55.655,11.12L136.478,2.916c-3.607-3.017-8.596-3.757-12.922-1.921c-4.326,1.837-7.28,5.939-7.606,10.627   l-7.679,104.437c-30.729,43.946-49.633,102.467-49.633,166.941c0,57.248,15.002,109.67,39.844,151.467H70.66   c-9.269,0-16.792,7.511-16.792,16.792c0,9.28,7.523,16.79,16.792,16.79h28.63v-31.481c0-0.248,0.065-0.461,0.065-0.709   c0.392-18.216,15.213-32.875,33.515-32.875c6.15,0,11.837,1.772,16.793,4.655c4.949-2.883,10.643-4.655,16.792-4.655   c6.143,0,11.837,1.772,16.787,4.655c4.956-2.883,10.643-4.655,16.792-4.655c18.546,0,33.58,15.038,33.58,33.584v30.743v0.738   h23.924v-0.738v-30.743c0-18.546,15.039-33.584,33.585-33.584c6.149,0,11.824,1.772,16.793,4.655   c4.968-2.883,10.637-4.655,16.786-4.655c6.15,0,11.824,1.772,16.793,4.655c4.969-2.883,10.644-4.655,16.793-4.655   c18.301,0,33.123,14.659,33.502,32.875c0.013,0.248,0.077,0.461,0.077,0.709v31.481h28.618c9.282,0,16.793-7.51,16.793-16.79   C437.279,441.977,429.768,434.466,420.486,434.466z M185.771,224.94C159.927,224.94,139,204,139,178.19   c0-25.828,20.927-46.782,46.771-46.782c25.805,0,46.732,20.954,46.732,46.782C232.503,204,211.576,224.94,185.771,224.94z    M283.171,275.477l-32.352,55.49c-1.098,1.868-3.082,3.016-5.232,3.016c-2.163,0-4.165-1.147-5.244-3.016l-32.354-55.49   c-2.118-3.643-1.527-8.231,1.458-11.218l29.58-29.596c3.607-3.609,9.481-3.609,13.102,0l29.599,29.596   C284.698,267.246,285.302,271.833,283.171,275.477z M305.407,224.94c-25.825,0-46.765-20.939-46.765-46.75   c0-25.828,20.939-46.782,46.765-46.782c25.824,0,46.765,20.954,46.765,46.782C352.172,204,331.232,224.94,305.407,224.94z" />
	<path
   id="XMLID_6_"
   d="M190.592,164.071c-10.56,0-19.123,8.545-19.123,19.103c0,10.576,8.564,19.121,19.123,19.121   c10.54,0,19.104-8.545,19.104-19.121C209.696,172.617,201.132,164.071,190.592,164.071z" />
	<path
   id="XMLID_5_"
   d="M300.587,164.071c-10.561,0-19.124,8.545-19.124,19.103c0,10.576,8.563,19.121,19.124,19.121   c10.559,0,19.116-8.545,19.116-19.121C319.703,172.617,311.146,164.071,300.587,164.071z" />
	<path
   id="XMLID_2_"
   d="M199.696,419.78c-9.125,0.18-16.454,7.617-16.454,16.787c0-0.081,0-0.162,0-0.243   c0.001-9.146-7.413-16.56-16.558-16.56h-0.464c-9.148,0-16.56,7.42-16.558,16.567c0,0.079,0,0.157,0,0.235   c0-9.17-7.328-16.607-16.453-16.787c-9.421-0.186-17.132,7.805-17.132,17.226v36.898c0,9.424,7.712,17.414,17.132,17.227   c9.126-0.181,16.453-7.62,16.453-16.786c0,0.078,0,0.155,0,0.233c-0.002,9.148,7.41,16.568,16.558,16.568h0.464   c9.143,0,16.557-7.412,16.558-16.555c0-0.083,0-0.165,0-0.247c0,9.166,7.328,16.606,16.453,16.786   c9.421,0.187,17.132-7.805,17.132-17.227v-36.898C216.827,427.584,209.116,419.594,199.696,419.78z" />
	<path
   id="XMLID_176_"
   d="M357.95,419.78c-9.125,0.18-16.453,7.617-16.453,16.787c0-0.081,0-0.162,0-0.243   c0-9.146-7.413-16.56-16.558-16.56h-0.465c-9.148,0-16.559,7.42-16.557,16.567c0,0.079,0,0.157,0,0.235   c0-9.17-7.328-16.607-16.454-16.787c-9.421-0.186-17.132,7.805-17.132,17.226v36.898c0,9.424,7.712,17.414,17.133,17.227   c9.125-0.181,16.453-7.62,16.453-16.786c0,0.078,0,0.155,0,0.233c-0.002,9.148,7.409,16.568,16.557,16.568h0.465   c9.143,0,16.557-7.412,16.558-16.555c0-0.083,0-0.165,0-0.247c0,9.166,7.328,16.606,16.453,16.786   c9.421,0.187,17.132-7.805,17.132-17.227v-36.898C375.082,427.584,367.371,419.594,357.95,419.78z" />
</g>
<g
   id="g146">
</g>
<g
   id="g148">
</g>
<g
   id="g150">
</g>
<g
   id="g152">
</g>
<g
   id="g154">
</g>
<g
   id="g156">
</g>
<g
   id="g158">
</g>
<g
   id="g160">
</g>
<g
   id="g162">
</g>
<g
   id="g164">
</g>
<g
   id="g166">
</g>
<g
   id="g168">
</g>
<g
   id="g170">
</g>
<g
   id="g172">
</g>
<g
   id="g174">
</g>
<path
   style="fill:#ffffff;stroke:#000000;stroke-width:0.59533"
   d="m 233.95424,450.51575 c -0.0116,-19.16409 -0.4424,-22.58206 -3.67965,-29.1931 -2.36066,-4.8209 -9.39701,-12.16827 -13.97671,-14.5945 -8.94316,-4.7379 -20.3932,-5.1929 -29.5041,-1.17242 l -3.41406,1.50656 -2.9328,-1.26166 c -9.42994,-4.05665 -18.66878,-4.05915 -28.08684,-0.008 l -2.91511,1.25405 -2.7039,-1.27098 c -12.42297,-5.83948 -27.61695,-3.0895 -37.50115,6.7874 -5.94704,5.94265 -9.81523,14.02203 -9.822086,20.51512 l -0.0022,2.10741 -1.127078,-1.84832 C 95.346498,428.51299 89.614037,417.54492 86.288941,410.37855 61.943879,357.9092 53.451697,295.04157 62.579501,234.85757 68.82714,193.66388 83.481455,154.41595 104.68723,122.08253 l 3.87825,-5.91336 3.72248,-51.238292 c 2.04736,-28.181063 4.00067,-52.676683 4.34068,-54.434712 1.54024,-7.9637784 9.9312,-12.4313288 16.72521,-8.904905 1.47344,0.7647879 14.75911,11.47113 29.52371,23.791873 l 26.84472,22.401348 9.47039,-3.183363 c 17.22261,-5.789183 28.47708,-7.644035 46.38083,-7.644035 19.02023,0 34.07644,2.740822 51.69246,9.410062 l 4.06609,1.539378 26.89105,-22.464938 c 14.79009,-12.355715 28.07504,-23.0677088 29.52211,-23.8044293 2.91692,-1.48503124 5.11843,-1.65715322 8.68022,-0.67865023 3.20299,0.87993403 7.02144,4.88979873 7.92151,8.31862213 0.37963,1.4462054 2.38857,26.0898524 4.46432,54.7636594 l 3.77408,52.134192 3.87634,5.91045 c 6.10418,9.30733 10.14572,16.45464 15.81519,27.96853 33.65353,68.34555 39.25491,153.83839 14.98599,228.72855 -5.96693,18.41303 -15.88417,40.5827 -24.40439,54.55518 l -1.12708,1.84832 -0.002,-2.10741 c -0.007,-6.48868 -3.87364,-14.56798 -9.82209,-20.52235 -9.79378,-9.80355 -24.19003,-12.54548 -36.75559,-7.00052 l -3.41406,1.50656 -2.93281,-1.26166 c -4.66122,-2.00527 -9.50507,-3.06009 -14.05211,-3.06009 -4.54704,0 -9.39089,1.05482 -14.05227,3.06009 l -2.9328,1.26166 -3.41406,-1.50656 c -9.12459,-4.02652 -20.63021,-3.56235 -29.5041,1.19028 -4.71436,2.52489 -11.63116,9.78271 -13.99818,14.68835 -3.24191,6.71883 -3.64661,9.93609 -3.65818,29.08139 l -0.0103,17.11573 H 245.5735 233.96457 l -0.0104,-17.11573 z m 14.7743,-117.0832 c 1.19008,-0.6256 5.99758,-8.38383 18.5107,-29.87214 17.47422,-30.00781 18.13955,-31.40273 17.0637,-35.77545 -0.45375,-1.84428 -31.5698,-33.56729 -34.38374,-35.05444 -0.88417,-0.46728 -2.83974,-0.8496 -4.3457,-0.8496 -1.50596,0 -3.46153,0.38232 -4.3457,0.8496 -2.81394,1.48715 -33.92999,33.21016 -34.38374,35.05444 -1.07588,4.37286 -0.41068,5.76742 17.0637,35.77335 11.48538,19.72199 17.38013,29.28885 18.39143,29.8483 1.93753,1.07184 4.42066,1.08186 6.42935,0.026 z M 192.50372,224.71861 c 10.17342,-1.47071 18.88488,-5.87938 26.33101,-13.32551 5.71358,-5.71358 9.19986,-11.34486 11.72238,-18.93481 1.6914,-5.08922 1.83846,-6.18183 1.86545,-13.85938 0.0243,-6.91355 -0.19807,-9.12627 -1.30421,-12.9777 -4.55013,-15.84291 -16.20791,-27.63803 -32.27823,-32.65847 -3.82047,-1.19353 -5.71101,-1.39488 -13.09725,-1.39488 -9.86757,0 -14.06459,0.97337 -22.0272,5.1085 -20.71407,10.75721 -30.13399,35.52624 -22.00241,57.85388 7.56109,20.76121 28.77619,33.37085 50.79046,30.18837 z m 124.31569,-0.90159 c 8.98132,-2.3273 16.45929,-6.71694 22.68455,-13.31604 21.35732,-22.63988 15.31272,-59.60289 -12.07263,-73.82462 -7.96261,-4.13513 -12.15963,-5.1085 -22.0272,-5.1085 -9.86444,0 -14.05711,0.9718 -22.02719,5.10556 -27.18843,14.10155 -33.41716,51.02476 -12.39806,73.49425 7.42207,7.93422 16.75039,12.88077 27.565,14.61699 4.26343,0.68446 13.8609,0.1763 18.27553,-0.96764 z"
   id="path183" /><path
   style="fill:#ffffff;stroke:#000000;stroke-width:0.59533"
   d="m 186.60037,201.59134 c -14.41133,-3.72515 -19.49763,-21.26251 -9.16377,-31.59636 7.3792,-7.37921 20.17839,-7.13746 26.89111,0.5079 5.05925,5.76217 6.38258,14.03325 3.2648,20.40575 -1.88937,3.86174 -5.93287,7.83892 -9.63419,9.4762 -2.93366,1.29769 -8.65429,1.90538 -11.35795,1.20651 z"
   id="path185" /><path
   style="fill:#ffffff;stroke:#000000;stroke-width:0.59533"
   d="m 295.84943,201.3389 c -11.09363,-3.13654 -17.04095,-15.35441 -12.38648,-25.44614 3.22182,-6.98547 8.44102,-10.68891 15.72225,-11.15619 17.27022,-1.10834 26.53446,18.41422 14.86681,31.32891 -4.21939,4.67036 -12.1793,6.9764 -18.20258,5.27342 z"
   id="path187" /><path
   style="fill:#ffffff;stroke:#000000;stroke-width:0.59533"
   d="m 66.077742,467.07524 c -6.666306,-2.0278 -11.90274,-8.98552 -11.90274,-15.81533 0,-5.59501 3.960671,-11.98283 9.151282,-14.7593 2.337746,-1.25047 3.263629,-1.32355 18.978047,-1.49793 l 16.520399,-0.18332 v 16.40606 16.40606 l -15.627405,-0.0512 c -8.595072,-0.0281 -16.298884,-0.25543 -17.119583,-0.50507 z"
   id="path189" /><path
   style="fill:#ffffff;stroke:#000000;stroke-width:0.59533"
   d="m 127.59358,489.9108 c -3.60677,-1.33075 -7.6096,-5.13141 -9.53604,-9.05441 l -1.67058,-3.40197 v -22.0272 -22.0272 l 1.67058,-3.40198 c 4.46358,-9.08962 14.45029,-12.40485 22.87457,-7.59355 4.44219,2.53704 7.33455,6.7217 8.21714,11.88852 l 0.45762,2.67899 0.68638,-3.27432 c 0.92837,-4.42869 2.15554,-6.5578 5.45245,-9.45986 2.85512,-2.51317 7.18126,-4.23272 10.64895,-4.23272 7.76578,0 15.1098,6.40522 16.32777,14.24055 l 0.4238,2.72635 0.7336,-3.3673 c 1.37791,-6.32462 5.58604,-10.90058 11.72282,-12.74748 3.58902,-1.08013 5.25936,-1.07148 9.02488,0.0468 4.01131,1.19123 8.49729,5.24334 10.35449,9.35304 1.41355,3.12798 1.42033,3.24685 1.42033,24.87253 0,19.99161 -0.0913,21.96627 -1.1415,24.68942 -2.36027,6.12012 -9.09358,11.03607 -15.10356,11.02704 -7.77595,-0.0117 -14.55164,-5.67765 -16.28129,-13.61476 l -0.72977,-3.34881 -0.4238,2.72634 c -2.0353,13.09335 -17.57878,18.73415 -27.19582,9.86947 -3.13828,-2.89276 -4.79187,-5.92858 -5.31953,-9.76609 l -0.3891,-2.82972 -0.68729,3.046 c -1.79597,7.95954 -7.76141,13.24499 -15.45226,13.69091 -2.25816,0.13093 -4.525,-0.13303 -6.08484,-0.70855 z"
   id="path191" /><path
   style="fill:#ffffff;stroke:#000000;stroke-width:0.59533"
   d="m 285.49906,489.64647 c -3.72349,-1.45378 -7.61147,-5.24903 -9.38032,-9.15657 -1.35578,-2.99504 -1.37408,-3.32899 -1.37408,-25.06268 0,-21.93939 0.006,-22.03973 1.42034,-25.1702 1.85719,-4.10969 6.34317,-8.16181 10.35448,-9.35304 3.76553,-1.11824 5.43586,-1.12689 9.02488,-0.0468 6.13678,1.8469 10.34492,6.42286 11.72282,12.74748 l 0.73361,3.3673 0.42379,-2.72635 c 1.21797,-7.83533 8.56199,-14.24055 16.32777,-14.24055 3.46769,0 7.79383,1.71955 10.64895,4.23272 3.29691,2.90206 4.52408,5.03117 5.45245,9.45986 l 0.68638,3.27432 0.45762,-2.67899 c 0.88259,-5.16682 3.77495,-9.35148 8.21714,-11.88852 8.42428,-4.8113 18.41099,-1.49607 22.87457,7.59355 l 1.67058,3.40198 v 22.0272 22.0272 l -1.67058,3.40197 c -7.28634,14.83789 -27.33541,12.33754 -31.02326,-3.86896 l -0.70655,-3.10499 -0.4044,2.82972 c -0.55041,3.85136 -2.20589,6.88192 -5.33485,9.76609 -9.61704,8.86468 -25.16052,3.22388 -27.19582,-9.86947 l -0.42379,-2.72634 -0.72978,3.34881 c -2.24254,10.2907 -12.39114,16.07783 -21.77195,12.41522 z"
   id="path193" /><path
   style="fill:#ffffff;stroke:#000000;stroke-width:0.59533"
   d="m 392.32227,451.25991 v -16.44055 l 16.5204,0.18332 c 18.8524,0.20921 19.21932,0.2946 23.84481,5.54943 5.66204,6.43242 5.66204,14.98318 0,21.4156 -4.62549,5.25483 -4.99241,5.34022 -23.84481,5.54943 l -16.5204,0.18332 z"
   id="path195" /><path
   style="fill:#000000;stroke:#000000;stroke-width:0.59533"
   d="m 234.40605,448.72976 c -0.31417,-19.83611 -0.65949,-22.35942 -3.88422,-28.38243 -2.56638,-4.79337 -10.48333,-12.4588 -15.09787,-14.6182 -9.14279,-4.27843 -19.67151,-4.61677 -28.46702,-0.91479 l -3.39039,1.42699 -5.31164,-1.88508 c -4.73488,-1.6804 -6.0227,-1.8851 -11.86026,-1.8851 -5.82391,0 -7.13037,0.20653 -11.80534,1.86617 l -5.25671,1.86615 -2.53974,-1.12344 c -19.20157,-8.49377 -42.08408,2.74351 -47.284309,23.22066 l -1.062989,4.18577 -4.553877,-8.47316 C 75.657449,390.08579 64.866024,352.75728 60.635198,308.97611 c -0.979511,-10.1361 -0.978349,-42.3531 0.0019,-52.68668 4.814709,-50.75569 20.066445,-96.49918 44.622762,-133.83404 2.00429,-3.04728 3.77604,-6.39601 3.93722,-7.44162 0.16118,-1.04562 0.85303,-9.93808 1.53744,-19.761019 1.94309,-27.888071 5.31472,-72.582838 5.9902,-79.406908 0.84238,-8.5101302 2.73573,-11.8999826 7.83702,-14.0314406 2.73058,-1.14090949 4.67584,-1.16480616 7.25045,-0.089069 2.28887,0.9563531 13.45104,9.8605536 38.45931,30.6794806 9.66319,8.044427 17.98008,14.948318 18.48198,15.341979 0.73618,0.577409 2.97856,0.0424 11.60172,-2.76804 17.77628,-5.7936 26.43306,-7.162755 45.33664,-7.170434 18.5496,-0.0075 31.65631,2.186057 48.26471,8.077782 6.16767,2.187939 7.60967,2.512982 8.39888,1.893196 0.52404,-0.411539 8.85856,-7.328274 18.52116,-15.370524 34.84973,-29.0057002 38.22815,-31.53332096 42.10657,-31.50270477 3.75086,0.0296093 8.89534,3.76409857 10.30964,7.48399267 0.89543,2.3551581 1.69957,12.2591571 8.22375,101.2854791 0.43726,5.96658 0.68295,6.98834 2.29055,9.52528 0.99042,1.56297 3.58241,5.6547 5.75999,9.09273 4.78445,7.55381 14.62244,26.79647 18.71864,36.61278 24.21463,58.02895 29.64723,123.58327 15.53889,187.50538 -5.22182,23.65903 -15.71381,51.78096 -27.12788,72.71152 l -4.00169,7.33809 -1.0598,-4.17321 c -5.16439,-20.33601 -27.24387,-31.49372 -46.39036,-23.44303 l -3.32064,1.39625 -5.31164,-1.88508 c -4.73488,-1.6804 -6.0227,-1.8851 -11.86026,-1.8851 -5.83756,0 -7.12538,0.2047 -11.86026,1.8851 l -5.31164,1.88508 -3.39039,-1.42699 c -8.79551,-3.70198 -19.32423,-3.36364 -28.46702,0.91479 -5.19343,2.4303 -12.70284,9.97924 -15.38563,15.46663 -3.04599,6.23026 -3.26329,7.90132 -3.5805,27.534 l -0.29578,18.30639 h -10.88257 -10.88257 z m 13.96726,-114.48098 c 0.75212,-0.3433 2.0235,-1.61582 2.82528,-2.82782 6.27814,-9.49028 27.04856,-45.15552 31.06906,-53.34922 3.9709,-8.09261 3.91887,-9.25117 -0.65396,-14.56426 -7.03828,-8.17763 -29.59522,-30.4156 -31.77624,-31.32689 -2.7164,-1.13498 -5.79941,-1.14003 -8.49459,-0.0139 -2.16052,0.90273 -24.83899,23.24186 -31.76864,31.29328 -3.0272,3.51725 -3.59014,4.52576 -3.59014,6.43173 0,3.68884 4.1773,11.6147 22.79573,43.25174 8.35441,14.19609 12.83365,21.01767 14.0035,21.32641 1.88214,0.4967 4.22003,0.40425 5.59,-0.22106 z M 192.09958,225.2881 c 10.95966,-1.50505 19.09251,-5.65155 27.27941,-13.9083 6.24684,-6.30012 8.64479,-10.10341 11.3892,-18.06395 1.91674,-5.55979 1.99528,-6.13854 2.0004,-14.74069 0.006,-10.56301 -0.65679,-13.76263 -4.4365,-21.40812 -4.67256,-9.45154 -11.36972,-16.32805 -20.50908,-21.05832 -7.76501,-4.01894 -11.40989,-4.83852 -21.51822,-4.83852 -10.45408,0 -13.49043,0.54677 -20.11465,3.62217 -11.71396,5.43838 -19.598,13.56422 -24.43588,25.18533 -1.96898,4.7297 -3.63777,12.95303 -3.63777,17.92588 0,4.58497 1.55074,12.69215 3.36293,17.58117 5.3084,14.32126 19.6722,26.45577 34.44051,29.09526 7.79958,1.39398 9.88588,1.4724 16.17965,0.60809 z m 124.4616,-0.89895 c 15.08541,-3.34244 28.79068,-15.81261 33.75577,-30.71374 6.64808,-19.95209 -0.19486,-42.06392 -16.65172,-53.80729 -4.59935,-3.28202 -12.60407,-7.05834 -16.8303,-7.93987 -4.07583,-0.85017 -18.78576,-0.85017 -22.86159,0 -4.20303,0.87669 -12.22479,4.65304 -16.75421,7.88727 -14.38444,10.27118 -21.82522,29.0132 -18.58817,46.82034 1.01293,5.57217 3.15297,11.46829 5.76854,15.89318 2.94823,4.98766 10.72572,12.87401 15.8397,16.06142 5.02528,3.13211 12.80706,6.00145 18.1993,6.71052 4.60878,0.60606 13.22968,0.1723 18.12268,-0.91183 z"
   id="path143" /><path
   style="fill:#000000;stroke:#000000;stroke-width:0.59533"
   d="m 185.34546,200.42963 c -13.58162,-4.74876 -17.01362,-22.416 -6.03959,-31.09047 12.01821,-9.49985 29.03249,-1.26942 29.05371,14.05433 0.005,3.31485 -0.31366,4.84036 -1.51112,7.24334 -4.03809,8.10339 -13.72177,12.51349 -21.503,9.7928 z"
   id="path145" /><path
   style="fill:#000000;stroke:#000000;stroke-width:0.59533"
   d="m 296.17652,200.70921 c -3.91442,-1.27556 -5.87866,-2.5227 -8.56737,-5.43961 -5.12017,-5.55473 -6.39014,-12.55518 -3.44479,-18.98868 3.29968,-7.20746 8.69121,-10.72852 16.47714,-10.76077 7.26418,-0.0301 12.66084,3.28869 16.21193,9.96983 1.08293,2.03746 1.33578,3.47215 1.3348,7.5739 -10e-4,4.33776 -0.22976,5.49581 -1.60184,8.11039 -3.83129,7.30074 -13.46079,11.79939 -20.40987,9.53494 z"
   id="path147" /><path
   style="fill:#000000;stroke:#000000;stroke-width:0.59533"
   d="m 129.04607,489.69399 c -4.34407,-1.3954 -8.31223,-5.10224 -10.87423,-10.1581 l -1.48722,-2.93489 v -21.21949 -21.2195 l 1.89144,-3.5487 c 3.49084,-6.54949 10.33481,-10.74347 15.86982,-9.72501 3.19828,0.5885 7.29936,2.52417 9.23292,4.35785 2.15747,2.04603 4.41612,6.45977 4.92083,9.61601 0.5079,3.17629 1.47238,2.80069 2.32195,-0.90423 0.95397,-4.16019 2.23137,-6.31852 5.37982,-9.0899 3.44315,-3.03078 7.73794,-4.53613 11.62742,-4.07548 6.79955,0.80531 12.96455,6.75933 14.1423,13.65833 0.59641,3.49367 1.57835,3.3458 2.40827,-0.36267 1.48701,-6.64469 6.27628,-11.46834 12.84646,-12.93868 6.19688,-1.3868 13.42923,2.53114 16.74268,9.06993 l 1.47948,2.9196 v 22.02813 c 0,21.02758 -0.0564,22.15569 -1.24049,24.83666 -1.46501,3.3169 -4.11492,6.22763 -7.47865,8.21477 -8.62149,5.09318 -19.94531,-0.7094 -22.34948,-11.45239 -0.83574,-3.73447 -1.81265,-3.85171 -2.42059,-0.2905 -1.03284,6.05015 -5.56419,11.15672 -11.45135,12.90502 -3.90539,1.15978 -5.63938,1.10239 -9.41889,-0.31171 -5.33115,-1.99464 -9.60776,-7.28212 -10.36635,-12.81667 -0.45565,-3.32435 -1.40562,-3.18099 -2.31327,0.3491 -1.47848,5.75018 -4.2853,9.42368 -9.0089,11.79067 -2.84103,1.42364 -8.05389,2.07281 -10.45397,1.30185 z"
   id="path149" /><path
   style="fill:#000000;stroke:#000000;stroke-width:0.59533"
   d="m 286.45643,489.11983 c -3.7824,-1.30631 -7.36292,-4.57428 -9.42224,-8.59977 l -1.47725,-2.88766 -0.003,-22.19877 -0.003,-22.19877 1.50374,-2.9675 c 3.33742,-6.58608 10.55113,-10.50888 16.76696,-9.11783 6.57018,1.47034 11.35945,6.29399 12.84646,12.93868 0.82992,3.70847 1.81186,3.85634 2.40827,0.36267 0.83892,-4.91422 4.62332,-9.87882 9.42195,-12.36029 4.97058,-2.57038 11.54038,-1.45419 16.34777,2.77744 3.14845,2.77138 4.42585,4.92971 5.37982,9.0899 0.84957,3.70492 1.81405,4.08052 2.32195,0.90423 0.50764,-3.17458 2.77514,-7.59013 4.92083,-9.58243 8.13566,-7.55403 19.52331,-5.1345 25.10274,5.33358 l 1.89144,3.5487 v 21.26521 21.2652 l -1.89144,3.54871 c -7.7314,14.5056 -25.85129,12.38104 -29.90418,-3.50628 -0.93124,-3.65045 -1.88047,-3.84949 -2.34082,-0.49084 -1.10085,8.03155 -9.40756,14.81299 -16.88869,13.78758 -7.54036,-1.03352 -13.11125,-6.30512 -14.35359,-13.58246 -0.60369,-3.53631 -1.58244,-3.40785 -2.41605,0.3171 -1.38216,6.17616 -5.61883,10.97907 -11.15419,12.64497 -3.62784,1.09181 -5.19825,1.04129 -9.05699,-0.29137 z"
   id="path151" /><path
   style="fill:#000000;stroke:#000000;stroke-width:0.59533"
   d="m 392.9176,451.25991 v -15.92607 l 15.6274,0.31372 c 8.91237,0.17892 16.56707,0.60143 17.8142,0.98328 4.55467,1.39456 10.01747,9.37219 10.01747,14.62907 0,5.25688 -5.4628,13.23451 -10.01747,14.62907 -1.24713,0.38186 -8.90183,0.80437 -17.8142,0.98328 l -15.6274,0.31372 z"
   id="path153" /><path
   style="fill:#000000;stroke:#000000;stroke-width:0.59533"
   d="m 67.56992,466.47871 c -3.426555,-0.58768 -5.780949,-2.00021 -8.519404,-5.11126 -5.643803,-6.4117 -5.558534,-14.0121 0.229426,-20.44971 4.440288,-4.93867 4.813682,-5.02498 23.024388,-5.32229 l 15.92507,-0.25999 v 15.85035 15.85034 l -14.139081,-0.0745 c -7.776494,-0.041 -15.210673,-0.2583 -16.520399,-0.48292 z"
   id="path155" /></svg>
