<?xml version="1.0" encoding="UTF-8" standalone="no"?>
<svg
   xmlns:dc="http://purl.org/dc/elements/1.1/"
   xmlns:cc="http://creativecommons.org/ns#"
   xmlns:rdf="http://www.w3.org/1999/02/22-rdf-syntax-ns#"
   xmlns:svg="http://www.w3.org/2000/svg"
   xmlns="http://www.w3.org/2000/svg"
   xmlns:sodipodi="http://sodipodi.sourceforge.net/DTD/sodipodi-0.dtd"
   xmlns:inkscape="http://www.inkscape.org/namespaces/inkscape"
   version="1.1"
   id="Capa_1"
   x="0px"
   y="0px"
   viewBox="0 0 150.00001 150.00001"
   xml:space="preserve"
   sodipodi:docname="sun.svg"
   width="150"
   height="150"
   inkscape:version="1.0.2 (1.0.2+r75+1)"><metadata
   id="metadata162"><rdf:RDF><cc:Work
       rdf:about=""><dc:format>image/svg+xml</dc:format><dc:type
         rdf:resource="http://purl.org/dc/dcmitype/StillImage" /><dc:title></dc:title></cc:Work></rdf:RDF></metadata><defs
   id="defs160" /><sodipodi:namedview
   pagecolor="#ffffff"
   bordercolor="#666666"
   borderopacity="1"
   objecttolerance="10"
   gridtolerance="10"
   guidetolerance="10"
   inkscape:pageopacity="0"
   inkscape:pageshadow="2"
   inkscape:window-width="1848"
   inkscape:window-height="1016"
   id="namedview158"
   showgrid="false"
   inkscape:zoom="1.348037"
   inkscape:cx="152.07298"
   inkscape:cy="305.9995"
   inkscape:window-x="72"
   inkscape:window-y="27"
   inkscape:window-maximized="1"
   inkscape:current-layer="Capa_1" />
<g
   id="g125"
   transform="matrix(0.24509764,0,0,0.24509844,0,-2.4509844e-4)">
	<g
   id="g123">
		<path
   d="m 306,149.341 c -86.382,0 -156.661,70.278 -156.661,156.661 0,86.382 70.278,156.66 156.661,156.66 86.383,0 156.66,-70.278 156.66,-156.66 0,-86.384 -70.278,-156.661 -156.66,-156.661 z"
   id="path105" />
		<path
   d="m 274.194,117.278 h 63.612 c 5.032,0 9.356,-2.101 11.863,-5.763 2.508,-3.662 2.9,-8.453 1.079,-13.146 L 315.749,8.257 C 312.96,1.073 308.444,0.001 306,0.001 c -2.444,0 -6.96,1.073 -9.749,8.255 l -35,90.114 c -1.821,4.692 -1.427,9.482 1.079,13.145 2.507,3.663 6.832,5.763 11.864,5.763 z"
   id="path107" />
		<path
   d="m 337.806,494.723 h -63.612 c -5.032,0 -9.357,2.102 -11.863,5.764 -2.506,3.663 -2.9,8.453 -1.079,13.145 l 34.999,90.114 c 2.789,7.182 7.305,8.254 9.749,8.254 2.444,0 6.96,-1.072 9.749,-8.254 l 34.999,-90.115 c 1.821,-4.69 1.429,-9.48 -1.079,-13.144 -2.507,-3.662 -6.831,-5.764 -11.863,-5.764 z"
   id="path109" />
		<path
   d="m 127.54,190.824 c 2.412,5.477 7.028,8.746 12.348,8.746 3.644,0 7.257,-1.608 10.174,-4.526 l 44.981,-44.98 c 3.558,-3.558 5.13,-8.102 4.312,-12.466 -0.819,-4.362 -3.928,-8.028 -8.532,-10.056 L 102.356,88.569 c -2.233,-0.983 -4.336,-1.482 -6.25,-1.482 -3.201,0 -5.959,1.415 -7.568,3.882 -1.357,2.081 -2.454,5.747 0.031,11.389 z"
   id="path111" />
		<path
   d="m 484.46,421.178 c -2.412,-5.477 -7.027,-8.746 -12.346,-8.746 -3.645,0 -7.259,1.609 -10.177,4.527 l -44.981,44.98 c -3.558,3.559 -5.13,8.104 -4.312,12.466 0.818,4.362 3.929,8.028 8.532,10.055 l 88.466,38.974 c 2.233,0.983 4.336,1.482 6.25,1.482 3.201,0 5.959,-1.417 7.568,-3.882 1.358,-2.083 2.455,-5.748 -0.03,-11.389 z"
   id="path113" />
		<path
   d="m 461.937,195.044 c 2.918,2.918 6.532,4.526 10.176,4.526 5.319,0 9.934,-3.269 12.348,-8.746 l 38.972,-88.465 c 2.486,-5.643 1.389,-9.308 0.031,-11.389 -1.609,-2.467 -4.367,-3.882 -7.568,-3.882 -1.914,0 -4.017,0.499 -6.251,1.483 l -88.466,38.97 c -4.604,2.029 -7.715,5.694 -8.532,10.057 -0.818,4.363 0.754,8.908 4.312,12.466 z"
   id="path115" />
		<path
   d="m 150.063,416.959 c -2.918,-2.918 -6.532,-4.527 -10.177,-4.527 -5.319,0 -9.934,3.269 -12.346,8.746 l -38.972,88.465 c -2.486,5.643 -1.389,9.308 -0.031,11.39 1.609,2.466 4.368,3.882 7.568,3.882 1.914,0 4.017,-0.499 6.251,-1.484 l 88.466,-38.972 c 4.604,-2.028 7.715,-5.694 8.532,-10.056 0.818,-4.362 -0.753,-8.907 -4.312,-12.466 z"
   id="path117" />
		<path
   d="m 603.745,296.251 -90.111,-34.996 c -1.942,-0.755 -3.896,-1.137 -5.806,-1.137 -7.593,0 -13.104,5.921 -13.104,14.078 l 0.001,63.613 c 0,8.157 5.511,14.078 13.104,14.078 1.912,0 3.866,-0.382 5.806,-1.136 l 90.112,-34.999 c 7.182,-2.79 8.254,-7.306 8.254,-9.751 0,-2.443 -1.075,-6.961 -8.256,-9.75 z"
   id="path119" />
		<path
   d="m 104.173,351.886 c 7.594,0 13.106,-5.921 13.106,-14.078 v -63.613 c 0,-8.157 -5.511,-14.078 -13.106,-14.078 -1.912,0 -3.864,0.382 -5.805,1.136 L 8.255,296.251 C 1.073,299.04 0,303.556 0,306.001 c 0,2.444 1.072,6.96 8.255,9.752 l 90.111,34.996 c 1.942,0.754 3.895,1.137 5.807,1.137 z"
   id="path121" />
	</g>
</g>
<g
   id="g127"
   transform="translate(0,-0.001)">
</g>
<g
   id="g129"
   transform="translate(0,-0.001)">
</g>
<g
   id="g131"
   transform="translate(0,-0.001)">
</g>
<g
   id="g133"
   transform="translate(0,-0.001)">
</g>
<g
   id="g135"
   transform="translate(0,-0.001)">
</g>
<g
   id="g137"
   transform="translate(0,-0.001)">
</g>
<g
   id="g139"
   transform="translate(0,-0.001)">
</g>
<g
   id="g141"
   transform="translate(0,-0.001)">
</g>
<g
   id="g143"
   transform="translate(0,-0.001)">
</g>
<g
   id="g145"
   transform="translate(0,-0.001)">
</g>
<g
   id="g147"
   transform="translate(0,-0.001)">
</g>
<g
   id="g149"
   transform="translate(0,-0.001)">
</g>
<g
   id="g151"
   transform="translate(0,-0.001)">
</g>
<g
   id="g153"
   transform="translate(0,-0.001)">
</g>
<g
   id="g155"
   transform="translate(0,-0.001)">
</g>
</svg>
