<?xml version="1.0" encoding="UTF-8" standalone="no"?>
<svg
   xmlns:dc="http://purl.org/dc/elements/1.1/"
   xmlns:cc="http://creativecommons.org/ns#"
   xmlns:rdf="http://www.w3.org/1999/02/22-rdf-syntax-ns#"
   xmlns:svg="http://www.w3.org/2000/svg"
   xmlns="http://www.w3.org/2000/svg"
   xmlns:sodipodi="http://sodipodi.sourceforge.net/DTD/sodipodi-0.dtd"
   xmlns:inkscape="http://www.inkscape.org/namespaces/inkscape"
   version="1.1"
   viewBox="0 0 441.592 441.592"
   enable-background="new 0 0 441.592 441.592"
   id="svg91"
   sodipodi:docname="trees-blanc.svg"
   inkscape:version="1.0.2 (1.0.2+r75+1)">
  <metadata
     id="metadata97">
    <rdf:RDF>
      <cc:Work
         rdf:about="">
        <dc:format>image/svg+xml</dc:format>
        <dc:type
           rdf:resource="http://purl.org/dc/dcmitype/StillImage" />
        <dc:title></dc:title>
      </cc:Work>
    </rdf:RDF>
  </metadata>
  <defs
     id="defs95" />
  <sodipodi:namedview
     pagecolor="#ffffff"
     bordercolor="#666666"
     borderopacity="1"
     objecttolerance="10"
     gridtolerance="10"
     guidetolerance="10"
     inkscape:pageopacity="0"
     inkscape:pageshadow="2"
     inkscape:window-width="1848"
     inkscape:window-height="1016"
     id="namedview93"
     showgrid="false"
     inkscape:zoom="1.8682404"
     inkscape:cx="220.796"
     inkscape:cy="220.796"
     inkscape:window-x="72"
     inkscape:window-y="27"
     inkscape:window-maximized="1"
     inkscape:current-layer="svg91" />
  <path
     d="m431.092,420.592h-128.29v-84.147h19.54c2.853,0 5.583-1.161 7.562-3.216l101.396-105.261c3.601-3.737 3.93-9.545 0.776-13.666l-56.208-73.436 16.333-18.609c3.478-3.962 3.478-9.89 0-13.852l-92.008-104.831c-1.993-2.272-4.869-3.574-7.891-3.574s-5.898,1.303-7.892,3.574l-92.006,104.831c-3.478,3.962-3.478,9.89 0,13.853l16.333,18.608-56.207,73.436c-3.154,4.121-2.825,9.929 0.776,13.666l101.396,105.261c1.979,2.055 4.709,3.216 7.562,3.216h19.538v84.147h-148.299v-84.147h68.33c5.799,0 10.5-4.701 10.5-10.5s-4.701-10.5-10.5-10.5h-169.411l90.581-271.74 30.648,91.945c1.834,5.502 7.781,8.475 13.282,6.641 5.501-1.834 8.475-7.78 6.641-13.281l-40.61-121.83c-1.43-4.288-5.442-7.18-9.961-7.18-4.52,0-8.532,2.892-9.961,7.18l-105.149,315.444c-1.067,3.202-0.53,6.722 1.443,9.46s5.143,4.36 8.518,4.36h94.649v84.147h-102.003c-5.799,0-10.5,4.701-10.5,10.5s4.701,10.5 10.5,10.5h420.592c5.799,0 10.5-4.701 10.5-10.5s-4.701-10.499-10.5-10.499zm-138.79-210.296c-5.799,0-10.5,4.701-10.5,10.5v31.401l-24.027-20.21c-4.437-3.733-11.061-3.161-14.794,1.276-3.733,4.438-3.162,11.062 1.276,14.794l37.544,31.581v35.806h-15.073l-92.038-95.546 55.955-73.105c3.042-3.976 2.856-9.546-0.446-13.308l-15.933-18.154 78.036-88.913 78.037,88.913-15.933,18.154c-3.302,3.762-3.489,9.332-0.446,13.308l55.955,73.105-92.038,95.546h-15.075v-35.806l37.544-31.581c4.438-3.732 5.009-10.356 1.276-14.794-3.732-4.438-10.357-5.01-14.794-1.276l-24.027,20.21v-31.401c0.001-5.799-4.7-10.5-10.499-10.5z"
     id="path89" />
  <path
     style="fill:#ffffff;stroke:#000000;stroke-width:0.535263"
     d="m 8.2729355,440.99139 c -2.6611704,-0.60157 -5.7003317,-3.02912 -6.8649801,-5.48343 -1.06057317,-2.23499 -1.12977289,-6.18138 -0.1495283,-8.52743 0.9558774,-2.28774 4.1062274,-4.99768 6.6220717,-5.69634 1.3460533,-0.3738 19.2422412,-0.56248 53.5409342,-0.56446 l 51.519067,-0.003 v -42.28578 -42.28578 l -48.575121,-0.0118 C 18.08005,336.12222 15.686403,336.07449 13.58707,335.12114 10.8664,333.88563 8.8418409,331.31067 7.9400163,327.93885 L 7.2535377,325.37218 60.398288,165.9269 C 89.6279,78.232021 114.07698,5.68933 114.72957,4.7209461 c 1.74499,-2.5893916 4.8686,-4.16630815 8.27369,-4.17687778 4.15889,-0.0129094 7.32385,2.06880728 9.3452,6.14671958 0.43777,0.883184 10.0013,29.2829321 21.25227,63.1105511 22.17259,66.665001 21.28482,63.470921 18.78419,67.582881 -1.8575,3.05441 -4.5924,4.66489 -8.25724,4.86235 -3.85183,0.20754 -6.75683,-1.14192 -8.71572,-4.04872 -0.65127,-0.96642 -8.0952,-22.52047 -16.54207,-47.89789 -8.44687,-25.37742 -15.51176,-46.312646 -15.69976,-46.52273 -0.18801,-0.210083 -20.66711,60.60918 -45.509106,135.15392 -24.842,74.54473 -45.278085,135.83697 -45.413524,136.20496 -0.196356,0.53351 17.17609,0.66908 85.73792,0.66908 70.88454,0 86.28665,0.12663 87.70659,0.72107 2.42714,1.01609 5.6047,4.72078 6.0402,7.04221 0.91185,4.86055 -1.19431,9.08746 -5.66657,11.37237 l -2.35726,1.20434 h -35.21394 -35.21395 v 42.28578 42.28578 h 74.40157 74.40156 v -42.28578 -42.28578 l -10.83908,-0.0118 c -9.36949,-0.0102 -11.13332,-0.14541 -13.00929,-0.99751 -1.61059,-0.73155 -15.48232,-14.80431 -53.79394,-54.57355 -28.39304,-29.47329 -52.0906,-54.47795 -52.66124,-55.5659 -1.43656,-2.73886 -1.31,-6.54138 0.3064,-9.20594 0.69652,-1.14817 13.67111,-18.27197 28.83243,-38.05289 15.16133,-19.78091 27.63534,-36.26572 27.72003,-36.63292 0.0847,-0.36719 -3.62851,-4.98763 -8.25154,-10.26763 -4.64655,-5.30687 -8.87135,-10.65258 -9.44717,-11.95369 -1.1383,-2.57205 -1.0461,-5.3133 0.26727,-7.94602 1.29492,-2.5957 93.45123,-107.3398057 95.83929,-108.9301236 2.63919,-1.75755237 6.74442,-1.9976783 9.739,-0.5696603 1.33759,0.6378505 15.57998,16.4895359 48.59328,54.0839629 25.68561,29.249908 47.24306,54.172931 47.90545,55.384491 1.37525,2.51544 1.54409,5.53782 0.45499,8.14441 -0.41215,0.9864 -4.53408,6.09712 -9.15986,11.35715 -4.62578,5.26003 -8.51848,9.83597 -8.65045,10.16875 -0.13197,0.33279 12.45955,17.19357 27.98116,37.46842 15.52161,20.27484 28.68693,37.91418 29.25627,39.19853 1.1938,2.69307 0.96781,5.81602 -0.60695,8.38751 -0.9195,1.50149 -81.48114,85.48585 -97.67658,101.82645 -5.50137,5.55068 -8.08165,7.78028 -9.44317,8.15978 -1.03038,0.2872 -6.63057,0.52353 -12.44486,0.52517 l -10.57145,0.003 v 42.28578 42.28578 l 64.63301,0.003 c 43.91401,0.002 65.2886,0.18503 66.67814,0.57088 2.65601,0.73754 6.02415,3.80634 6.81817,6.21222 0.34453,1.04395 0.5186,3.19825 0.38683,4.78732 -0.28339,3.41723 -2.21634,6.18678 -5.53181,7.92602 l -2.11253,1.10798 -211.42889,0.0782 C 95.76439,441.44919 9.5640193,441.28325 8.2729355,440.99139 Z M 282.08362,297.61968 v -18.18551 l -19.53609,-16.43549 c -20.81357,-17.51023 -21.69268,-18.44213 -21.66741,-22.96839 0.0358,-6.41014 6.16537,-11.33869 12.27805,-9.87228 2.23911,0.53715 4.47846,2.18938 15.63561,11.53626 l 13.02221,10.90931 0.26763,-17.54999 0.26763,-17.54999 1.47257,-2.22388 c 1.44639,-2.18436 4.02789,-3.88355 6.97788,-4.593 1.98206,-0.47666 5.58854,0.52832 7.74182,2.15734 3.54992,2.68562 3.58417,2.88262 3.88009,22.31436 l 0.26763,17.574 12.43931,-10.46515 c 6.84162,-5.75582 13.1042,-10.80491 13.91684,-11.22019 6.7644,-3.45675 14.59148,1.38084 14.59148,9.01839 0,4.63794 -0.75397,5.43922 -21.65917,23.01859 l -19.55609,16.44489 v 18.15206 18.15206 l 7.91811,-0.14775 7.91811,-0.14776 45.65878,-47.37078 c 25.11233,-26.05393 45.77355,-47.64927 45.91383,-47.98964 0.14027,-0.34037 -12.33721,-17.06763 -27.72773,-37.17168 -15.39052,-20.10406 -28.41451,-37.39967 -28.9422,-38.43471 -1.19964,-2.35302 -1.19977,-6.20674 -2.9e-4,-8.45162 0.50285,-0.94111 4.5273,-5.84001 8.94322,-10.88644 4.41592,-5.04643 8.02895,-9.50461 8.02895,-9.90706 0,-0.86858 -77.3749,-89.182134 -77.95308,-88.973493 -0.47206,0.170345 -77.73127,88.120603 -77.97872,88.769343 -0.0936,0.24549 3.60567,4.73278 8.22069,9.97176 4.61503,5.23898 8.72618,10.3005 9.13591,11.24782 1.00538,2.32453 0.9401,6.24907 -0.13874,8.34036 -0.48603,0.94216 -13.40513,18.06709 -28.70909,38.05539 -15.30397,19.98831 -27.85298,36.64297 -27.88669,37.01036 -0.0337,0.36739 20.60913,22.13074 45.87298,48.363 l 45.93427,47.69502 h 7.72585 7.72585 z"
     id="path99" />
</svg>
