<?xml version="1.0" encoding="UTF-8" standalone="no"?>
<svg
   xmlns:dc="http://purl.org/dc/elements/1.1/"
   xmlns:cc="http://creativecommons.org/ns#"
   xmlns:rdf="http://www.w3.org/1999/02/22-rdf-syntax-ns#"
   xmlns:svg="http://www.w3.org/2000/svg"
   xmlns="http://www.w3.org/2000/svg"
   xmlns:sodipodi="http://sodipodi.sourceforge.net/DTD/sodipodi-0.dtd"
   xmlns:inkscape="http://www.inkscape.org/namespaces/inkscape"
   version="1.1"
   id="Capa_1"
   x="0px"
   y="0px"
   viewBox="0 0 470 470"
   style="enable-background:new 0 0 470 470;"
   xml:space="preserve"
   sodipodi:docname="tree-blanc.svg"
   inkscape:version="1.0.2 (1.0.2+r75+1)"><metadata
   id="metadata57"><rdf:RDF><cc:Work
       rdf:about=""><dc:format>image/svg+xml</dc:format><dc:type
         rdf:resource="http://purl.org/dc/dcmitype/StillImage" /><dc:title></dc:title></cc:Work></rdf:RDF></metadata><defs
   id="defs55" /><sodipodi:namedview
   pagecolor="#ffffff"
   bordercolor="#666666"
   borderopacity="1"
   objecttolerance="10"
   gridtolerance="10"
   guidetolerance="10"
   inkscape:pageopacity="0"
   inkscape:pageshadow="2"
   inkscape:window-width="1848"
   inkscape:window-height="1016"
   id="namedview53"
   showgrid="false"
   inkscape:zoom="1.7553191"
   inkscape:cx="235"
   inkscape:cy="235"
   inkscape:window-x="72"
   inkscape:window-y="27"
   inkscape:window-maximized="1"
   inkscape:current-layer="Capa_1" />
<g
   id="g20">
	<path
   d="M350.851,146.286c2.093-8.917,3.153-18.077,3.153-27.282C354.003,53.385,300.619,0,235,0S115.997,53.385,115.997,119.004   c0,9.206,1.06,18.365,3.153,27.282c-21.612,26.559-33.469,59.853-33.469,94.203c0,34.339,11.945,67.867,33.634,94.409   c21.383,26.167,51.252,44.475,84.106,51.552c4.048,0.873,8.039-1.703,8.911-5.753c0.872-4.049-1.704-8.039-5.753-8.911   c-61.362-13.217-105.898-68.435-105.898-131.298c0-32.077,11.495-63.132,32.366-87.443c1.617-1.884,2.198-4.445,1.55-6.842   c-2.389-8.84-3.6-17.992-3.6-27.2C130.997,61.656,177.652,15,235,15s104.003,46.656,104.003,104.004c0,9.208-1.211,18.36-3.6,27.2   c-0.648,2.397-0.067,4.958,1.55,6.842c20.872,24.311,32.366,55.366,32.366,87.443c0,62.862-44.537,118.081-105.898,131.298   c-4.049,0.872-6.625,4.862-5.753,8.911c0.758,3.517,3.867,5.922,7.325,5.922c0.523,0,1.054-0.055,1.586-0.17   c32.854-7.076,62.723-25.385,84.106-51.552c21.689-26.542,33.634-60.071,33.634-94.409   C384.319,206.139,372.462,172.845,350.851,146.286z"
   id="path10" />
	<path
   d="M297.007,266.39c2.929-2.929,2.929-7.678,0-10.606c-2.929-2.929-7.678-2.929-10.606,0L242.5,299.684v-43.867   c0-0.026,0-126.517,0-126.517c0-4.142-3.358-7.5-7.5-7.5s-7.5,3.358-7.5,7.5v108.397l-43.9-43.9c-2.929-2.929-7.678-2.929-10.606,0   c-2.929,2.929-2.929,7.677,0,10.606l54.507,54.507V462.5c0,4.142,3.358,7.5,7.5,7.5s7.5-3.358,7.5-7.5V320.897L297.007,266.39z"
   id="path12" />
	<path
   d="M162.5,290.5c0,4.411,3.589,8,8,8s8-3.589,8-8s-3.589-8-8-8S162.5,286.089,162.5,290.5z"
   id="path14" />
	<path
   d="M299.704,104c0-4.411-3.589-8-8-8s-8,3.589-8,8s3.589,8,8,8S299.704,108.411,299.704,104z"
   id="path16" />
	<path
   d="M281,74.5c0-4.411-3.589-8-8-8s-8,3.589-8,8s3.589,8,8,8S281,78.911,281,74.5z"
   id="path18" />
</g>
<g
   id="g22">
</g>
<g
   id="g24">
</g>
<g
   id="g26">
</g>
<g
   id="g28">
</g>
<g
   id="g30">
</g>
<g
   id="g32">
</g>
<g
   id="g34">
</g>
<g
   id="g36">
</g>
<g
   id="g38">
</g>
<g
   id="g40">
</g>
<g
   id="g42">
</g>
<g
   id="g44">
</g>
<g
   id="g46">
</g>
<g
   id="g48">
</g>
<g
   id="g50">
</g>
<path
   style="fill:#ffffff;stroke:#000000;stroke-width:0.569697"
   d="m 197.4,384.56482 c -10.43375,-2.71002 -18.00551,-5.55967 -28.2,-10.61313 -14.50813,-7.19174 -26.31177,-15.52364 -37.81093,-26.68979 -24.32961,-23.62503 -39.318311,-53.58537 -44.334977,-88.61948 -1.124599,-7.85368 -0.946848,-30.34347 0.303931,-38.45454 3.975808,-25.78238 13.198136,-48.3785 27.736976,-67.95989 l 4.36498,-5.87889 -0.98218,-4.85133 c -8.40389,-41.50981 7.83532,-86.657811 40.93912,-113.818302 7.67293,-6.29536 14.23829,-10.482819 23.74066,-15.142035 20.24776,-9.9279234 41.32792,-13.8049665 63.27984,-11.63837365 14.27447,1.40885055 27.04321,5.08679285 40.405,11.63837365 9.50237,4.659216 16.06773,8.846675 23.74066,15.142035 33.1038,27.160491 49.34301,72.308492 40.93912,113.818302 l -0.98218,4.85133 4.36498,5.87889 c 14.51069,19.54347 23.77325,42.23772 27.73755,67.95989 1.25018,8.11178 1.42761,30.60327 0.30335,38.45454 -3.39508,23.70974 -11.53477,45.52547 -23.91304,64.09091 -11.6891,17.53179 -27.24529,32.73063 -45.12983,44.09311 -6.17298,3.92184 -20.96491,11.1548 -27.91515,13.64996 -3.29,1.18112 -9.30386,3.02397 -13.36415,4.09524 -8.45245,2.23009 -10.54776,2.08034 -13.08517,-0.9352 -1.14891,-1.3654 -1.46583,-2.36077 -1.46583,-4.60379 0,-2.47084 0.2529,-3.11344 1.85151,-4.70444 1.49521,-1.48809 2.89304,-2.09653 7.26364,-3.16168 13.59665,-3.31362 30.17163,-10.52238 41.30303,-17.96342 21.70015,-14.50597 38.73202,-34.41266 49.01108,-57.28367 21.00114,-46.72775 14.30747,-99.41586 -17.7939,-140.06175 -4.26907,-5.40539 -4.27691,-5.42171 -3.97873,-8.28536 0.16432,-1.57812 0.83788,-5.36975 1.49681,-8.42584 1.57302,-7.29566 2.24668,-18.32025 1.67107,-27.3473 -3.65259,-57.281587 -54.09129,-101.056665 -111.41359,-96.694365 -14.59485,1.110687 -26.23706,4.325068 -39.1988,10.822673 -15.48969,7.764842 -28.34356,18.81672 -38.75395,33.320987 -4.41365,6.149315 -10.95426,19.045346 -13.39731,26.41527 -5.54094,16.715345 -6.81111,37.644165 -3.2662,53.817925 0.6981,3.18508 1.27534,7.08526 1.28276,8.66708 0.0127,2.71344 -0.21503,3.16432 -4.02882,7.97575 -16.04024,20.2362 -25.09172,41.70907 -28.8058,68.3361 -0.92782,6.65174 -0.9143,25.26424 0.0234,32.18787 3.42402,25.28237 13.27405,48.53448 28.83944,68.07879 4.44678,5.58349 14.42563,15.56175 20.50651,20.50531 14.85167,12.07391 33.66798,21.43526 52.12727,25.93395 4.3706,1.06515 5.76843,1.67359 7.26364,3.16168 1.59861,1.591 1.85151,2.2336 1.85151,4.70444 0,2.23455 -0.31763,3.23924 -1.44926,4.5841 -1.30928,1.556 -2.04777,1.96338 -4.8174,2.65752 -0.47,0.1178 -4.18728,-0.65145 -8.26061,-1.70945 z"
   id="path59" /><path
   style="fill:#ffffff;stroke:#000000;stroke-width:0.569697"
   d="m 166.79494,296.98114 c -5.21582,-3.02353 -5.00545,-10.66353 0.36377,-13.2114 2.66264,-1.2635 4.94548,-1.14532 7.22674,0.37414 5.30119,3.53092 4.75234,10.90764 -0.99008,13.30697 -2.58175,1.07873 -4.11782,0.96942 -6.60043,-0.46971 z"
   id="path61" /><path
   style="fill:#ffffff;stroke:#000000;stroke-width:0.569697"
   d="m 231.46705,468.59882 c -3.8759,-2.36328 -3.58826,6.2335 -3.58826,-107.24241 V 258.63807 l -27.91775,-27.91298 c -19.52958,-19.52624 -28.1031,-28.47439 -28.53464,-29.7815 -1.62066,-4.9088 3.82474,-10.34021 8.74027,-8.71782 1.27312,0.42019 8.88036,7.64165 24.35184,23.1169 12.37518,12.3782 22.69381,22.50581 22.9303,22.50581 0.23649,0 0.42998,-24.82935 0.42998,-55.17635 v -55.17636 l 1.29892,-1.92746 c 3.05549,-4.53405 8.58909,-4.53405 11.64458,0 l 1.29892,1.92746 v 86.22484 c 0,47.42367 0.18808,86.22484 0.41795,86.22484 0.22988,0 10.6767,-10.2383 23.21516,-22.75178 15.11927,-15.08916 23.32484,-22.88068 24.36386,-23.13449 4.8762,-1.19114 10.00921,4.27512 8.44981,8.9984 -0.42421,1.28488 -9.15519,10.39395 -28.52903,29.76448 l -27.91775,27.91298 -0.002,71.78399 c -0.002,70.19145 -0.0268,71.82447 -1.1142,73.60786 -2.10833,3.45779 -6.18722,4.51492 -9.53783,2.47193 z"
   id="path63" /><path
   style="fill:#ffffff;stroke:#000000;stroke-width:0.569697"
   d="m 289.60637,111.309 c -0.9865,-0.27804 -2.58877,-1.41113 -3.56061,-2.51799 -1.48045,-1.68615 -1.76697,-2.48202 -1.76697,-4.90816 0,-2.60408 0.22273,-3.11842 2.21176,-5.107449 1.98903,-1.989031 2.50337,-2.211765 5.10745,-2.211765 2.42224,0 3.22268,0.287101 4.89561,1.755958 1.09996,0.965777 2.24185,2.632136 2.53754,3.703026 1.53656,5.56495 -3.83829,10.86087 -9.42478,9.28638 z"
   id="path65" /><path
   style="fill:#ffffff;stroke:#000000;stroke-width:0.569697"
   d="m 270.29297,81.519879 c -2.8283,-1.23193 -4.81452,-4.034927 -4.81205,-6.790862 0.008,-8.604709 11.23896,-10.712467 14.63087,-2.745759 1.46723,3.44616 -0.53054,8.03138 -4.16,9.547864 -2.31636,0.967839 -3.41603,0.965654 -5.65882,-0.01125 z"
   id="path67" /></svg>
