<?xml version="1.0" encoding="UTF-8" standalone="no"?>
<svg
   xmlns:dc="http://purl.org/dc/elements/1.1/"
   xmlns:cc="http://creativecommons.org/ns#"
   xmlns:rdf="http://www.w3.org/1999/02/22-rdf-syntax-ns#"
   xmlns:svg="http://www.w3.org/2000/svg"
   xmlns="http://www.w3.org/2000/svg"
   xmlns:sodipodi="http://sodipodi.sourceforge.net/DTD/sodipodi-0.dtd"
   xmlns:inkscape="http://www.inkscape.org/namespaces/inkscape"
   viewBox="0 0 441.59202 441.24061"
   version="1.1"
   id="svg42"
   sodipodi:docname="trees-owl-blanc.svg"
   width="441.59201"
   height="441.2406"
   inkscape:version="1.0.2 (1.0.2+r75+1)">
  <metadata
     id="metadata48">
    <rdf:RDF>
      <cc:Work
         rdf:about="">
        <dc:format>image/svg+xml</dc:format>
        <dc:type
           rdf:resource="http://purl.org/dc/dcmitype/StillImage" />
        <dc:title></dc:title>
      </cc:Work>
    </rdf:RDF>
  </metadata>
  <defs
     id="defs46" />
  <sodipodi:namedview
     pagecolor="#ffffff"
     bordercolor="#666666"
     borderopacity="1"
     objecttolerance="10"
     gridtolerance="10"
     guidetolerance="10"
     inkscape:pageopacity="0"
     inkscape:pageshadow="2"
     inkscape:window-width="1848"
     inkscape:window-height="1016"
     id="namedview44"
     showgrid="false"
     inkscape:zoom="2.8708535"
     inkscape:cx="248.24152"
     inkscape:cy="305.63722"
     inkscape:window-x="72"
     inkscape:window-y="27"
     inkscape:window-maximized="1"
     inkscape:current-layer="svg42" />
  <style
     id="style16">
        .st0{fill:#fff}.st1{fill:none;stroke:#231f20;stroke-width:50;stroke-linecap:round;stroke-linejoin:round;stroke-miterlimit:10}
    </style>
  <path
     class="st0"
     d="m -1576.1507,-770.57447 c 50.2,0 90.8,40.7 90.8,90.8 0,50.2 -40.7,90.8 -90.8,90.8 -50.2,0 -90.8,-40.7 -90.8,-90.8 0,-50.2 40.6,-90.8 90.8,-90.8 z m -443.1,90.8 c 0,50.2 40.7,90.8 90.8,90.8 50.2,0 90.8,-40.7 90.8,-90.8 0,-50.2 -40.7,-90.8 -90.8,-90.8 -50.2,0 -90.8,40.6 -90.8,90.8 z"
     id="Layer_1" />
  <path
     class="st0"
     d="m -1685.1507,-578.77447 -66.1,117.7 -66,-117.7 z"
     id="Layer_2" />
  <g
     id="g78"
     transform="translate(-2150.6481,-1050.9298)">
    <path
       class="st0"
       d="m 983.09745,1471.5553 c -6.1,-24.2 -68.6,-90.7 -492.7,-216.1 -2.6,-0.8 -5.2,-1.5 -7.8,-2.3 -561.400005,-165.3 -381,-646.59997 -381,-646.59997 -28.000005,-53.4 -43.900005,-115 -43.900005,-180.7 0,-77.7 22.3,-149.7 60.400005,-209.1 -8.5,-32.1 -38.600005,-151.200003 -93.000005,-174.500003 0,0 89.900005,-64.6 222.900005,56.3 46.5,-25.8 99.3,-40.3 155.2,-40.3 53.6,0 104.2,13.4 149.3,37.1 131.1,-116.6 219.4,-53.1 219.4,-53.1 -49.8,21.3 -88.3,122.700003 -100.2,164.500003 42.1,61.2 67.1,137 67.1,219.1 0,32.7 -4,64.4 -11.4,94.6 0,0 320.59995,260.9 256,952.19997 0,-0.1 0,-0.2 -0.1,-0.3 0,-0.2 -0.1,-0.3 -0.1,-0.5 -0.1,-0.1 -0.1,-0.2 -0.1,-0.3 z m -317.8,-1100.39997 c 0,-50.2 -40.7,-90.8 -90.8,-90.8 -50.2,0 -90.8,40.7 -90.8,90.8 0,50.2 40.7,90.8 90.8,90.8 50.1,0 90.8,-40.7 90.8,-90.8 z m -265.9,218.7 66.1,-117.7 h -132.1 z m -86.4,-218.7 c 0,-50.2 -40.7,-90.8 -90.8,-90.8 -50.2,0 -90.8,40.7 -90.8,90.8 0,50.2 40.7,90.8 90.8,90.8 50.2,0 90.8,-40.7 90.8,-90.8 z"
       id="Layer_4" />
  </g>
  <g
     id="STROKES"
     transform="matrix(0.07263772,0,0,0.07441399,327.5615,298.5904)">
    <path
       class="st1"
       d="m 932.4,1470.8 -78.4,88.6 c 0,0 -90.1,44.8 -91.6,110.1"
       id="path21" />
    <path
       class="st1"
       d="m 692.1,1641.3 c 0,0 30.1,-126.7 161.9,-81.8"
       id="path23" />
    <path
       class="st1"
       d="m 1088,1519.4 -81.2,91.8 c 0,0 -76.1,31.7 -77.5,97"
       id="path25" />
    <path
       class="st1"
       d="m 845,1693 c 0,0 30.1,-126.7 161.9,-81.8"
       id="path27" />
    <path
       class="st1"
       d="m 1425.2,1687.2 c 0,0.2 0.1,0.4 0.1,0.5"
       id="path29" />
    <path
       class="st1"
       d="m 854,919.9 c 0,0 -45.6,266.2 358.3,472.8 163.3,83.5 209.2,277.7 212.8,294.3"
       id="path31" />
    <path
       class="st1"
       d="m 1425.3,1688.1 c 64.6,-691.3 -256,-952.2 -256,-952.2 7.4,-30.2 11.4,-61.9 11.4,-94.6 0,-82.1 -24.9,-157.9 -67.1,-219.1 11.9,-41.7 50.5,-143.1 100.2,-164.5 0,0 -88.3,-63.5 -219.4,53.1 C 949.3,287 898.7,273.7 845.1,273.7 789.2,273.7 736.4,288.3 689.9,314 556.9,193.1 467,257.7 467,257.7 c 54.4,23.3 84.5,142.4 93,174.5 -38.1,59.4 -60.4,131.4 -60.4,209.1 0,65.7 15.9,127.3 43.9,180.7 0,0 -180.4,481.3 380.9,646.5 2.6,0.8 5.2,1.5 7.8,2.3 424.1,125.5 486.6,192 492.7,216.1 0,0.1 0,0.2 0.1,0.3 0,0.2 0.1,0.4 0.1,0.5 0.2,0.2 0.2,0.3 0.2,0.4 z"
       id="path33" />
    <path
       class="st1"
       d="m 755,586.6 c 0,50.2 -40.7,90.8 -90.8,90.8 -50.2,0 -90.8,-40.7 -90.8,-90.8 0,-50.2 40.7,-90.8 90.8,-90.8 50.2,0 90.8,40.6 90.8,90.8 z"
       id="path35" />
    <path
       class="st1"
       d="m 1107.3,586.6 c 0,50.2 -40.7,90.8 -90.8,90.8 -50.2,0 -90.8,-40.7 -90.8,-90.8 0,-50.2 40.7,-90.8 90.8,-90.8 50.1,0 90.8,40.6 90.8,90.8 z"
       id="path37" />
    <path
       class="st1"
       d="m 775.4,687.6 66,117.7 66.1,-117.7 z"
       id="path39" />
  </g>
  <path
     d="m 431.092,420.1789 h -128.29 v -84.0644 h 19.54 c 2.853,0 5.583,-1.1599 7.562,-3.2128 L 431.3,227.7441 c 3.601,-3.7334 3.93,-9.5357 0.776,-13.6526 l -56.208,-73.3639 16.333,-18.5907 c 3.478,-3.9581 3.478,-9.8803 0,-13.8384 L 300.193,3.5705 C 298.2,1.3007 295.324,0 292.302,0 289.28,0 286.404,1.3017 284.41,3.5705 l -92.006,104.728 c -3.478,3.9581 -3.478,9.8803 0,13.8394 l 16.333,18.5897 -56.207,73.3639 c -3.154,4.1169 -2.825,9.9192 0.776,13.6526 l 101.396,105.1576 c 1.979,2.0529 4.709,3.2128 7.562,3.2128 h 19.538 v 84.0644 H 133.503 v -84.0644 h 68.33 c 5.799,0 10.5,-4.6964 10.5,-10.4897 0,-5.7933 -4.701,-10.4897 -10.5,-10.4897 H 32.422 l 90.581,-271.4731 30.648,91.8547 c 1.834,5.4966 7.781,8.4667 13.282,6.6345 5.501,-1.8322 8.475,-7.7723 6.641,-13.2679 L 132.964,7.1729 C 131.534,2.8891 127.522,0 123.003,0 c -4.52,0 -8.532,2.8891 -9.961,7.1729 L 7.893,322.3071 c -1.067,3.1988 -0.53,6.7154 1.443,9.4507 1.973,2.7353 5.143,4.3557 8.518,4.3557 h 94.649 v 84.0644 H 10.5 c -5.799,0 -10.5,4.6963 -10.5,10.4896 0,5.7933 4.701,10.4897 10.5,10.4897 h 420.592 c 5.799,0 10.5,-4.6964 10.5,-10.4897 0,-5.7933 -4.701,-10.4886 -10.5,-10.4886 z M 292.302,210.0894 c -5.799,0 -10.5,4.6964 -10.5,10.4897 v 31.3702 l -24.027,-20.1902 c -4.437,-3.7293 -11.061,-3.1579 -14.794,1.2748 -3.733,4.4336 -3.162,11.0511 1.276,14.7794 l 37.544,31.55 v 35.7708 H 266.728 L 174.69,219.682 230.645,146.6488 c 3.042,-3.9721 2.856,-9.5366 -0.446,-13.2949 l -15.933,-18.1362 78.036,-88.8257 78.037,88.8257 -15.933,18.1362 c -3.302,3.7583 -3.489,9.3228 -0.446,13.2949 l 55.955,73.0332 -92.038,95.4521 h -15.075 v -35.7708 l 37.544,-31.55 c 4.438,-3.7283 5.009,-10.3458 1.276,-14.7794 -3.732,-4.4337 -10.357,-5.0051 -14.794,-1.2748 l -24.027,20.1902 v -31.3702 c 0,-5.7933 -4.7,-10.4897 -10.499,-10.4897 z"
     id="path89"
     style="stroke-width:0.999509" />
  <g
     id="g85"
     transform="translate(-2150.6481,-1050.9298)">
    <g
       id="g81">
      <path
         style="fill:#ffffff;stroke:#000000;stroke-width:0.534999"
         d="m 2158.921,1491.488 c -2.6611,-0.601 -5.7003,-3.0261 -6.8649,-5.478 -1.0606,-2.2328 -1.1298,-6.1754 -0.1496,-8.5191 0.9559,-2.2855 4.1063,-4.9928 6.6221,-5.6907 1.3461,-0.3735 19.2422,-0.562 53.5409,-0.5639 h 51.5191 v -42.2443 -42.2442 l -48.5751,-0.012 c -46.2853,-0.011 -48.679,-0.059 -50.7783,-1.0113 -2.7207,-1.2343 -4.7453,-3.8067 -5.6471,-7.1752 l -0.6865,-2.5641 53.1448,-159.2887 c 29.2296,-87.6088 53.6787,-160.0802 54.3313,-161.0476 1.745,-2.5869 4.8686,-4.1622 8.2737,-4.1728 4.1589,-0.013 7.3238,2.0668 9.3452,6.1407 0.4377,0.8823 10.0013,29.2542 21.2522,63.0485 22.1726,66.5996 21.2848,63.4086 18.7842,67.5165 -1.8575,3.0515 -4.5924,4.6604 -8.2572,4.8576 -3.8519,0.2074 -6.7569,-1.1408 -8.7157,-4.0447 -0.6513,-0.9655 -8.0952,-22.4984 -16.5421,-47.8509 -8.4469,-25.3525 -15.5118,-46.2671 -15.6998,-46.477 -0.188,-0.2099 -20.6671,60.5497 -45.5091,135.0212 -24.842,74.4715 -45.2781,135.7035 -45.4135,136.0711 -0.1964,0.533 17.1761,0.6685 85.7379,0.6685 70.8846,0 86.2867,0.1265 87.7066,0.7203 2.4271,1.0151 5.6047,4.7162 6.0402,7.0353 0.9119,4.8558 -1.1943,9.0786 -5.6666,11.3612 l -2.3572,1.2032 h -35.214 -35.2139 v 42.2442 42.2443 h 74.4016 74.4015 v -42.2443 -42.2442 l -10.8391,-0.012 c -9.3694,-0.01 -11.1333,-0.1453 -13.0092,-0.9965 -1.6106,-0.7309 -15.4824,-14.7898 -53.794,-54.52 -28.393,-29.4443 -52.0906,-54.4244 -52.6612,-55.5113 -1.4366,-2.7362 -1.31,-6.535 0.3064,-9.1969 0.6965,-1.147 13.6711,-18.254 28.8324,-38.0155 15.1613,-19.7615 27.6353,-36.2301 27.72,-36.597 0.085,-0.3668 -3.6285,-4.9827 -8.2515,-10.2575 -4.6466,-5.3017 -8.8714,-10.6421 -9.4472,-11.942 -1.1383,-2.5695 -1.0461,-5.308 0.2673,-7.9382 1.2949,-2.5931 93.4512,-107.2343 95.8393,-108.8231 2.6392,-1.7558 6.7444,-1.9957 9.739,-0.5691 1.3376,0.6372 15.58,16.4733 48.5933,54.0308 25.6856,29.2212 47.243,54.1198 47.9054,55.3301 1.3753,2.513 1.5441,5.5324 0.455,8.1364 -0.4121,0.9855 -4.5341,6.0912 -9.1599,11.346 -4.6257,5.2549 -8.5184,9.8264 -8.6504,10.1588 -0.132,0.3325 12.4595,17.1767 27.9812,37.4316 15.5216,20.2549 28.6869,37.877 29.2562,39.16 1.1938,2.6905 0.9678,5.8104 -0.6069,8.3793 -0.9195,1.5 -81.4812,85.4019 -97.6766,101.7264 -5.5014,5.5453 -8.0817,7.7727 -9.4432,8.1518 -1.0304,0.2869 -6.6306,0.523 -12.4448,0.5247 h -10.5715 v 42.2442 42.2442 h 64.633 c 43.914,0 65.2886,0.1849 66.6782,0.5704 2.656,0.7368 6.0241,3.8026 6.8181,6.2061 0.3446,1.0429 0.5186,3.1951 0.3869,4.7826 -0.2834,3.4139 -2.2164,6.1807 -5.5319,7.9182 l -2.1125,1.1069 -211.4289,0.078 c -126.1021,0.047 -212.3025,-0.1189 -213.5936,-0.4105 z m 273.8107,-143.2309 v -18.1676 l -19.5361,-16.4194 c -20.8135,-17.493 -21.6926,-18.424 -21.6674,-22.9458 0.036,-6.4039 6.1654,-11.3276 12.2781,-9.8626 2.2391,0.5366 4.4784,2.1872 15.6356,11.5249 l 13.0222,10.8986 0.2676,-17.5327 0.2677,-17.5328 1.4725,-2.2217 c 1.4464,-2.1822 4.0279,-3.8797 6.9779,-4.5884 1.9821,-0.4762 5.5885,0.5277 7.7418,2.1552 3.5499,2.683 3.5842,2.8798 3.8801,22.2924 l 0.2676,17.5568 12.4393,-10.4549 c 6.8417,-5.7502 13.1043,-10.7943 13.9169,-11.2092 6.7644,-3.4533 14.5915,1.3795 14.5915,9.0095 0,4.6334 -0.754,5.4339 -21.6592,22.996 l -19.5561,16.4288 v 18.1342 18.1342 l 7.9181,-0.1476 7.9181,-0.1476 45.6588,-47.3243 c 25.1123,-26.0283 45.7736,-47.6024 45.9138,-47.9425 0.1403,-0.34 -12.3372,-17.0508 -27.7277,-37.1351 -15.3905,-20.0843 -28.4145,-37.363 -28.9422,-38.397 -1.1996,-2.3507 -1.1998,-6.2006 -3e-4,-8.4433 0.5029,-0.9402 4.5273,-5.8343 8.9432,-10.8757 4.416,-5.0415 8.029,-9.4953 8.029,-9.8974 0,-0.8677 -77.3749,-89.0945 -77.9531,-88.8861 -0.4721,0.1702 -77.7313,88.0341 -77.9787,88.6822 -0.094,0.2452 3.6057,4.7281 8.2207,9.9619 4.615,5.2339 8.7262,10.2904 9.1359,11.2368 1.0054,2.3223 0.9401,6.2429 -0.1387,8.3322 -0.4861,0.9412 -13.4052,18.0493 -28.7091,38.018 -15.304,19.9687 -27.853,36.607 -27.8867,36.974 -0.034,0.367 20.6091,22.109 45.873,48.3155 l 45.9342,47.6482 h 7.7259 7.7258 z"
         id="path99" />
    </g>
  </g>
  <path
     style="fill:#ffffff;stroke:#000000;stroke-width:0.348328"
     d="m 422.65108,419.82347 c -0.41314,-0.40359 -5.91212,-2.69528 -10.86704,-4.52882 l -4.70013,-1.73926 -1.48705,1.68639 c -0.81787,0.92751 -1.99452,2.3423 -2.61477,3.14398 l -1.12772,1.4576 -6.26991,-0.004 -6.26992,-0.004 1.50158,-1.34568 c 2.04357,-1.83141 4.38067,-2.56975 7.33322,-2.3167 l 2.31171,0.19812 1.4804,-1.73737 c 0.81422,-0.95556 1.4804,-1.85499 1.4804,-1.99874 0,-0.28549 -6.50682,-2.49949 -7.34584,-2.49949 -0.28472,0 -1.60904,1.32011 -2.94292,2.93358 -1.33388,1.61347 -2.82885,3.11023 -3.32217,3.32613 -0.49331,0.2159 -1.65689,1.09025 -2.58572,1.94301 -1.51147,1.38768 -1.86532,1.55048 -3.37009,1.55048 -0.92471,0 -1.6813,-0.12187 -1.6813,-0.27083 0,-0.37501 0.97525,-1.79709 2.05631,-2.99844 l 0.90448,-1.00513 -1.04498,0.24851 c -1.46158,0.34759 -3.12591,1.69764 -3.64867,2.95969 -0.40731,0.98333 -0.57371,1.0662 -2.14101,1.0662 -2.02136,0 -2.07323,-0.20762 -0.66518,-2.66261 2.05091,-3.57587 5.30274,-5.26839 9.32946,-4.85584 l 2.25957,0.23149 1.26453,-1.46098 c 1.98574,-2.29425 1.9939,-2.23077 -0.39735,-3.09212 -3.54774,-1.27791 -9.38426,-4.40531 -12.37091,-6.62874 -7.05364,-5.2511 -11.74666,-12.49509 -13.53866,-20.89779 -0.94768,-4.44372 -0.87005,-11.90438 0.17649,-16.96012 l 0.80797,-3.90328 -0.87476,-2.19247 c -2.98828,-7.48969 -2.51153,-17.7289 1.16456,-25.01118 l 1.04024,-2.06072 -0.90986,-2.88674 c -1.27318,-4.03941 -2.40783,-6.138 -4.22769,-7.81928 -2.07383,-1.91592 -1.91453,-2.82465 0.69486,-3.9637 3.86146,-1.68561 8.52906,-0.86088 13.23822,2.3391 l 2.69664,1.83243 1.58714,-0.68032 c 5.43898,-2.33142 11.58638,-2.51287 17.38046,-0.51302 l 2.57835,0.88992 2.58586,-1.68807 c 4.69498,-3.06491 9.28191,-3.83043 13.06268,-2.18004 2.72357,1.18889 2.78328,2.00127 0.31607,4.30032 -1.46409,1.3643 -2.28195,2.5375 -3.32533,4.77009 -2.07678,4.4438 -2.07606,4.43028 -0.41728,7.82558 0.79327,1.62373 1.75996,4.17161 2.14818,5.66196 0.84551,3.24579 1.2144,9.56614 0.72741,12.46293 l -0.35135,2.08997 1.30916,1.39331 c 7.49571,7.97753 13.79267,22.40512 16.19106,37.09698 1.26783,7.76636 1.91847,19.1939 1.44777,25.42798 l -0.24986,3.30912 h -5.04099 c -2.77255,0 -5.1514,-0.10785 -5.28632,-0.23965 z m 4.80543,-1.51357 c 0,-0.50309 -2.02551,-4.10109 -3.57338,-6.34757 -2.38842,-3.46638 -5.51665,-6.28654 -9.37424,-8.45105 -1.78731,-1.00288 -4.58201,-2.68771 -6.21044,-3.74409 -12.58572,-8.1644 -20.16552,-19.47014 -20.33257,-30.32726 -0.041,-2.66784 0.0227,-2.95689 0.78912,-3.57963 0.73405,-0.59642 0.92153,-0.61936 1.56748,-0.1918 0.63923,0.42311 0.76281,0.95134 0.95968,4.10212 0.69608,11.13987 7.93376,20.86285 21.50944,28.89544 6.7959,4.02106 8.03645,4.92073 10.74833,7.79485 1.51794,1.60875 3.49604,4.21765 4.5238,5.96638 l 1.82636,3.10756 0.002,-6.32009 c 0.002,-6.94801 -0.35032,-11.37525 -1.41208,-17.71457 -2.39169,-14.27968 -7.96767,-27.00237 -15.47329,-35.30536 -1.38554,-1.53275 -2.23986,-2.76193 -2.12594,-3.0588 0.10475,-0.27297 0.37074,-1.90212 0.59109,-3.62034 0.70105,-5.46647 -0.49353,-11.61997 -3.23463,-16.66218 -1.10066,-2.02465 -1.35022,-2.79603 -1.18329,-3.65745 0.34635,-1.78727 2.42184,-6.53549 3.79507,-8.68219 0.70429,-1.10111 1.2806,-2.07735 1.2806,-2.16942 0,-0.0921 -0.63091,-0.16741 -1.40202,-0.16741 -2.59772,0 -6.00293,1.59293 -9.80104,4.58484 l -0.92737,0.73052 -2.66248,-1.10839 c -5.53785,-2.30541 -11.49369,-2.25628 -17.03009,0.14047 l -2.83568,1.22759 -0.87083,-0.6974 c -4.03456,-3.2311 -7.44156,-4.87763 -10.09282,-4.87763 -1.58597,0 -1.71368,0.32558 -0.69106,1.76173 0.93027,1.30645 2.55051,5.26042 3.43203,8.37545 l 0.70207,2.48086 -1.40252,2.78947 c -2.16106,4.29813 -2.84121,7.28977 -2.87211,12.63294 -0.028,4.83529 0.35239,6.89097 2.06884,11.18142 l 0.89828,2.24534 -0.80263,3.21398 c -0.69895,2.79882 -0.80166,4.06888 -0.79518,9.83222 0.007,6.22826 0.0642,6.80297 0.97018,9.7532 1.60087,5.21292 4.71579,10.31641 8.32947,13.64701 5.09729,4.69799 10.51889,7.48174 21.20341,10.88698 13.24817,4.2223 25.94775,9.08016 28.62319,10.94898 0.79394,0.55457 1.28481,0.701 1.28481,0.38328 z"
     id="path87" />
  <path
     style="fill:#ffffff;stroke:#000000;stroke-width:0.348328"
     d="m 372.59478,349.91989 c -3.08816,-1.41052 -4.85715,-4.22008 -4.85332,-7.70818 0.003,-2.70461 0.81071,-4.48121 2.89254,-6.36201 4.90118,-4.42793 12.7855,-0.95976 13.2168,5.81382 0.39853,6.25876 -5.75211,10.7703 -11.25602,8.25637 z m 5.38659,-3.26699 c 2.56445,-1.31499 3.48106,-4.11798 2.21743,-6.78089 -0.80442,-1.6952 -2.31334,-2.534 -4.56126,-2.5356 -1.59789,-10e-4 -1.99876,0.14984 -3.11562,1.17336 -1.17799,1.07955 -1.2934,1.35718 -1.42531,3.42889 -0.13586,2.13358 -0.0837,2.32236 0.97395,3.52699 1.01246,1.15313 2.40445,1.85501 3.84661,1.93957 0.29468,0.0173 1.22356,-0.32127 2.0642,-0.75232 z"
     id="path90" />
  <path
     style="fill:#ffffff;stroke:#000000;stroke-width:0.348328"
     d="m 397.94296,349.84187 c -1.67904,-0.83112 -3.44116,-2.69014 -4.14372,-4.3716 -0.77865,-1.86356 -0.61335,-5.1076 0.35742,-7.01467 1.02653,-2.0166 2.00384,-2.95462 4.04026,-3.87785 2.8131,-1.27533 5.94632,-0.79523 8.37454,1.28324 2.06991,1.77176 2.92037,3.6212 2.92037,6.35072 0,2.58907 -0.75873,4.35874 -2.64326,6.16518 -2.35924,2.26148 -6.06497,2.87107 -8.90561,1.46498 z m 4.80203,-2.7533 c 1.9284,-0.53571 3.1828,-2.07826 3.38282,-4.15989 0.32619,-3.39474 -1.46808,-5.5945 -4.56141,-5.59227 -2.21424,0.002 -3.72948,0.84984 -4.52943,2.5356 -1.60899,3.39071 0.43111,7.11485 4.12074,7.52228 0.19158,0.0211 0.90586,-0.11642 1.58728,-0.30572 z"
     id="path92" />
  <path
     style="fill:#ffffff;stroke:#000000;stroke-width:0.348328"
     d="m 388.02614,359.95854 c -0.50891,-0.29677 -5.0431,-8.12889 -5.70586,-9.85601 -0.13871,-0.36147 0.0162,-0.87495 0.38776,-1.28555 0.56459,-0.62386 1.09557,-0.68369 6.06833,-0.68369 5.64018,0 6.28559,0.15132 6.28559,1.47369 0,0.70255 -4.65598,9.40245 -5.46486,10.21133 -0.58988,0.58988 -0.77199,0.60613 -1.57096,0.14023 z m 1.73696,-6.77448 0.76154,-1.56748 h -1.95134 c -1.94202,0 -1.94891,0.004 -1.44299,0.78374 0.27959,0.43105 0.695,1.13642 0.92314,1.56747 0.58781,1.11067 0.847,0.99185 1.70965,-0.78373 z"
     id="path94" />
</svg>
