<?xml version="1.0" encoding="UTF-8" standalone="no"?>
<svg
   xmlns:dc="http://purl.org/dc/elements/1.1/"
   xmlns:cc="http://creativecommons.org/ns#"
   xmlns:rdf="http://www.w3.org/1999/02/22-rdf-syntax-ns#"
   xmlns:svg="http://www.w3.org/2000/svg"
   xmlns="http://www.w3.org/2000/svg"
   xmlns:sodipodi="http://sodipodi.sourceforge.net/DTD/sodipodi-0.dtd"
   xmlns:inkscape="http://www.inkscape.org/namespaces/inkscape"
   width="116.83788mm"
   height="120.35126mm"
   viewBox="0 0 116.83788 120.35126"
   version="1.1"
   id="svg8"
   inkscape:version="1.0.2 (1.0.2+r75+1)"
   sodipodi:docname="trees-bird2.svg">
  <defs
     id="defs2" />
  <sodipodi:namedview
     id="base"
     pagecolor="#ffffff"
     bordercolor="#666666"
     borderopacity="1.0"
     inkscape:pageopacity="0.0"
     inkscape:pageshadow="2"
     inkscape:zoom="0.81454783"
     inkscape:cx="263.74155"
     inkscape:cy="102.36759"
     inkscape:document-units="mm"
     inkscape:current-layer="layer1"
     inkscape:document-rotation="0"
     showgrid="false"
     inkscape:window-width="1848"
     inkscape:window-height="1016"
     inkscape:window-x="72"
     inkscape:window-y="27"
     inkscape:window-maximized="1" />
  <metadata
     id="metadata5">
    <rdf:RDF>
      <cc:Work
         rdf:about="">
        <dc:format>image/svg+xml</dc:format>
        <dc:type
           rdf:resource="http://purl.org/dc/dcmitype/StillImage" />
        <dc:title></dc:title>
      </cc:Work>
    </rdf:RDF>
  </metadata>
  <g
     inkscape:label="Calque 1"
     inkscape:groupmode="layer"
     id="layer1"
     style="opacity:1"
     transform="translate(-36.051715,-116.95142)">
    <g
       id="g735">
      <a
         id="a677">
        <g
           id="g526"
           transform="matrix(0.06307454,0,0,0.06976934,75.169061,116.29468)">
          <g
             id="g465">
	<path
   d="m 247.717,78.946 c 5.589,0 11.18,-2.128 15.436,-6.384 4.005,-4.006 6.101,-9.194 6.336,-14.451 0.036,-0.324 0.058,-0.652 0.058,-0.986 V 27.191 h 16.993 c 4.909,0 8.889,-3.98 8.889,-8.889 0,-4.909 -3.98,-8.889 -8.889,-8.889 h -25.882 c -4.909,0 -8.889,3.98 -8.889,8.889 v 17.386 c -6.85,-1.285 -14.2,0.712 -19.49,6.001 -8.511,8.511 -8.51,22.36 0.001,30.872 4.256,4.256 9.846,6.385 15.437,6.385 z"
   id="path453" />

	<path
   d="m 286.539,266.669 h -47.433 l -13.595,-13.595 h 9.263 c 1.124,0 2.241,-0.181 3.307,-0.536 l 51.765,-17.255 c 5.479,-1.827 8.441,-7.749 6.615,-13.228 -1.827,-5.478 -7.747,-8.441 -13.228,-6.615 l -50.155,16.719 h -74.17 C 139.982,247.374 98.18,251.181 62.623,251.347 L 7.588,267.071 c -5.554,1.587 -8.769,7.374 -7.182,12.928 1.312,4.594 5.499,7.588 10.05,7.588 0.951,0 1.918,-0.131 2.878,-0.405 L 132.71,253.074 h 63.223 l 31.447,31.447 c 1.962,1.961 4.621,3.063 7.395,3.063 h 51.765 c 5.775,0 10.457,-4.682 10.457,-10.457 0,-5.776 -4.683,-10.458 -10.458,-10.458 z"
   id="path455" />

	<path
   d="m 124.139,141.645 c 9.901,6.546 21.758,8.847 33.395,6.475 11.632,-2.373 21.644,-9.133 28.192,-19.036 6.547,-9.903 8.846,-21.763 6.474,-33.395 -2.372,-11.632 -9.132,-21.643 -19.035,-28.19 -7.359,-4.865 -15.801,-7.386 -24.424,-7.386 -2.981,0 -5.984,0.301 -8.972,0.91 -11.632,2.372 -21.643,9.133 -28.191,19.035 -6.547,9.903 -8.847,21.763 -6.475,33.395 2.373,11.631 9.133,21.644 19.036,28.192 z m 26.637,-58.862 c 1.946,-1.945 4.644,-3.065 7.394,-3.065 2.75,0 5.438,1.119 7.393,3.065 1.945,1.955 3.065,4.643 3.065,7.393 0,2.75 -1.119,5.448 -3.065,7.394 -1.944,1.945 -4.643,3.064 -7.393,3.064 -2.761,0 -5.448,-1.118 -7.394,-3.064 -1.945,-1.945 -3.064,-4.632 -3.064,-7.394 0,-2.75 1.119,-5.448 3.064,-7.393 z"
   id="path457" />

	<path
   d="m 205.275,121.535 15.834,-12.413 c 1.958,-1.535 3.023,-3.841 2.923,-6.327 -0.1,-2.486 -1.348,-4.699 -3.423,-6.071 L 204.832,86.293 c 0.682,2.11 1.263,4.265 1.713,6.47 1.981,9.712 1.509,19.541 -1.27,28.772 z"
   id="path459" />

	<path
   d="m 154.047,163.407 c -5.546,14.85 -28.295,52.019 -117.061,52.019 -1.694,0 -3.341,-0.03 -4.952,-0.085 -1.146,5.517 -2.238,11.207 -3.259,17.082 -0.205,1.18 0.305,2.032 0.628,2.436 0.323,0.402 1.043,1.087 2.24,1.144 47.518,2.305 103.917,-0.875 119.723,-16.684 0,0 0,-10e-4 10e-4,-10e-4 11.653,-11.654 18.071,-27.147 18.071,-43.628 0,-5.179 -0.656,-10.253 -1.892,-15.146 -2.306,0.773 -4.666,1.426 -7.087,1.92 -2.134,0.435 -4.274,0.743 -6.412,0.943 z"
   id="path461" />

	<path
   d="m 36.986,200.786 c 50.253,0 76.025,-12.646 88.796,-23.254 6.455,-5.362 10.265,-10.665 12.495,-14.767 -7.835,-1.395 -15.375,-4.387 -22.213,-8.908 -13.165,-8.704 -22.152,-22.014 -25.305,-37.478 -0.255,-1.252 -0.455,-2.506 -0.629,-3.76 -22.623,2.159 -36.946,8.846 -49.689,15.666 -4.855,2.598 -16.225,12.264 -26.299,25.617 -10.316,13.671 -15.127,25.913 -13.203,33.588 2.757,10.989 21.124,13.296 36.047,13.296 z"
   id="path463" />

</g>
          <g
             id="g467">
</g>
          <g
             id="g469">
</g>
          <g
             id="g471">
</g>
          <g
             id="g473">
</g>
          <g
             id="g475">
</g>
          <g
             id="g477">
</g>
          <g
             id="g479">
</g>
          <g
             id="g481">
</g>
          <g
             id="g483">
</g>
          <g
             id="g485">
</g>
          <g
             id="g487">
</g>
          <g
             id="g489">
</g>
          <g
             id="g491">
</g>
          <g
             id="g493">
</g>
          <g
             id="g495">
</g>
        </g>
      </a>
      <path
         d="m 150.11148,231.74669 h -33.9434 V 209.4828 h 5.16996 c 0.75486,0 1.47717,-0.30718 2.00078,-0.8509 l 26.82769,-27.8503 c 0.95277,-0.98875 1.03981,-2.52545 0.20532,-3.6158 l -14.8717,-19.42994 4.32144,-4.92363 c 0.92022,-1.04828 0.92022,-2.61673 0,-3.66501 l -24.34379,-27.73654 c -0.52731,-0.60113 -1.28825,-0.94562 -2.08782,-0.94562 -0.79957,0 -1.56052,0.34475 -2.08809,0.94562 l -24.343265,27.73654 c -0.92022,1.04828 -0.92022,2.61673 0,3.66527 l 4.32144,4.92337 -14.87143,19.42994 c -0.8345,1.09035 -0.74745,2.62705 0.20531,3.6158 l 26.827695,27.8503 c 0.52361,0.54372 1.24593,0.8509 2.00078,0.8509 h 5.16943 v 22.26389 H 71.374385 V 209.4828 h 18.07898 c 1.53432,0 2.77812,-1.2438 2.77812,-2.77812 0,-1.53432 -1.2438,-2.77813 -2.77812,-2.77813 h -44.82333 l 23.96622,-71.89787 8.10895,24.32711 c 0.48525,1.45574 2.05873,2.24235 3.5142,1.7571 1.45547,-0.48525 2.24234,-2.05846 1.7571,-3.51393 l -10.74473,-32.23419 c -0.37836,-1.13453 -1.43986,-1.89971 -2.63552,-1.89971 -1.19591,0 -2.25742,0.76518 -2.63551,1.89971 L 38.140075,205.826 c -0.28231,0.84719 -0.14023,1.77852 0.38179,2.50295 0.52202,0.72443 1.36075,1.15359 2.25372,1.15359 h 25.04255 v 22.26389 h -26.9883 c -1.53431,0 -2.77812,1.2438 -2.77812,2.77812 0,1.53432 1.24381,2.77813 2.77812,2.77813 H 150.11148 c 1.53432,0 2.77812,-1.24381 2.77812,-2.77813 0,-1.53432 -1.2438,-2.77786 -2.77812,-2.77786 z m -36.72152,-55.64081 c -1.53432,0 -2.77813,1.24381 -2.77813,2.77812 v 8.30819 l -6.35714,-5.34723 c -1.17396,-0.98769 -2.92656,-0.83635 -3.91425,0.3376 -0.987695,1.17423 -0.836615,2.92683 0.33761,3.91425 l 9.93352,8.35581 v 9.47367 h -3.98807 l -24.351725,-25.27988 14.80476,-19.34237 c 0.80486,-1.05198 0.75565,-2.52571 -0.118,-3.52107 l -4.21561,-4.80325 20.647035,-23.52489 20.64729,23.52489 -4.21561,4.80325 c -0.87365,0.99536 -0.92313,2.46909 -0.118,3.52107 l 14.80476,19.34237 -24.35172,25.27988 h -3.9886 v -9.47367 l 9.93352,-8.35581 c 1.17422,-0.98742 1.3253,-2.74002 0.33761,-3.91425 -0.98743,-1.17422 -2.74029,-1.32556 -3.91425,-0.3376 l -6.35714,5.34723 V 178.884 c 2.6e-4,-1.53431 -1.24354,-2.77812 -2.77786,-2.77812 z"
         id="path528"
         style="stroke-width:0.264583" />
    </g>
  </g>
</svg>
